SplineFontDB: 3.2
FontName: ZameroSans-Medium
FullName: Zamero Sans Medium
FamilyName: Zamero Sans
Weight: Medium
Copyright: Copyright (c) 2024, Zamero Type Foundry
UComments: "2024-1-17: Created with FontForge (http://fontforge.org)+AAoACgAK-Instead of Charlie and the Alphabet and Charlie and the Numbers, how about Charlie and the Fonts? :)"
Version: 001.000
ItalicAngle: 0
UnderlinePosition: -100
UnderlineWidth: 50
Ascent: 800
Descent: 200
InvalidEm: 0
LayerCount: 2
Layer: 0 0 "Back" 1
Layer: 1 0 "Fore" 0
XUID: [1021 474 1118879153 20760]
StyleMap: 0x0040
FSType: 0
OS2Version: 0
OS2_WeightWidthSlopeOnly: 0
OS2_UseTypoMetrics: 1
CreationTime: 1705525712
ModificationTime: 1727736459
PfmFamily: 33
TTFWeight: 500
TTFWidth: 5
LineGap: 90
VLineGap: 90
OS2TypoAscent: 0
OS2TypoAOffset: 1
OS2TypoDescent: 0
OS2TypoDOffset: 1
OS2TypoLinegap: 90
OS2WinAscent: 0
OS2WinAOffset: 1
OS2WinDescent: 0
OS2WinDOffset: 1
HheadAscent: 0
HheadAOffset: 1
HheadDescent: 0
HheadDOffset: 1
OS2Vendor: 'ZAM '
Lookup: 1 0 0 "'ss15' Style Set 15 lookup 20" { "'ss15' Style Set 15 lookup 20-1" ("ss15") } ['ss15' ('DFLT' <'dflt' > 'grek' <'dflt' > 'latn' <'dflt' > ) ]
Lookup: 1 0 0 "'ss14' Style Set 14 lookup 19" { "'ss14' Style Set 14 lookup 19-1" ("ss14") } ['ss14' ('DFLT' <'dflt' > 'grek' <'dflt' > 'latn' <'dflt' > ) ]
Lookup: 1 0 0 "'onum' Oldstyle Figures lookup 18" { "'onum' Oldstyle Figures lookup 18-1" ("osf") } ['onum' ('DFLT' <'dflt' > 'grek' <'dflt' > 'latn' <'dflt' > ) ]
Lookup: 1 0 0 "'tnum' Tabular Numbers lookup 17" { "'tnum' Tabular Numbers lookup 17-1" ("tf") } ['tnum' ('DFLT' <'dflt' > 'grek' <'dflt' > 'latn' <'dflt' > ) ]
Lookup: 1 0 0 "'dnom' Denominators lookup 0" { "'dnom' Denominators lookup 0 subtable" ("dnom") } ['dnom' ('DFLT' <'dflt' > 'latn' <'dflt' > ) ]
Lookup: 1 0 0 "'numr' Numerators lookup 0" { "'numr' Numerators lookup 0 subtable" ("numr") } ['numr' ('DFLT' <'dflt' > 'latn' <'dflt' > ) ]

StartChar: I
Encoding: 73 73 0
Width: 434
Flags: W
HStem: 0 122.25<36.5 145.5 288.5 397.5> 30 92.25<145.5 288.5> 607.75 123.25<36.5 145.5 288.5 397.5> 607.75 93.25<145.5 288.5>
VStem: 145.5 143<30 701>
LayerCount: 2
Fore
SplineSet
397.5 0 m 1x88
 36.5 0 l 1
 36.5 122.25 l 1
 397.5 122.25 l 1
 397.5 0 l 1x88
397.5 607.75 m 1x28
 36.5 607.75 l 1
 36.5 731 l 1
 397.5 731 l 1
 397.5 607.75 l 1x28
145.5 30 m 1x58
 145.5 701 l 1
 288.5 701 l 1
 288.5 30 l 1
 145.5 30 l 1x58
EndSplineSet
EndChar

StartChar: O
Encoding: 79 79 1
Width: 797
Flags: W
HStem: -9.99805 129.712<294.431 503.346> 609.409 129.712<294.431 503.346>
VStem: 41.5 142.099<237.154 491.969> 614.179 142.099<237.154 491.969>
LayerCount: 2
Back
SplineSet
104.848632812 364.561523438 m 0
 104.848632812 169.015917071 203.263968617 38.4638671875 398.888671875 38.4638671875 c 4
 594.513375133 38.4638671875 692.928710938 169.015917071 692.928710938 364.561523438 c 0
 692.928710938 560.107129798 594.513375133 690.659179688 398.888671875 690.659179688 c 0
 203.263968617 690.659179688 104.848632812 560.107129798 104.848632812 364.561523438 c 0
55 364.561523438 m 0
 55 591.206054688 185.120861123 739.12109375 398.888671875 739.12109375 c 0
 612.656482627 739.12109375 742.77734375 591.206054688 742.77734375 364.561523438 c 0
 742.77734375 137.916992188 612.656482627 -9.998046875 398.888671875 -9.998046875 c 0
 185.120861123 -9.998046875 55 137.916992188 55 364.561523438 c 0
EndSplineSet
Fore
SplineSet
183.598632812 364.561523438 m 0
 183.598632812 217.737765306 248.076740942 119.713867188 398.888671875 119.713867188 c 0
 549.700602808 119.713867188 614.178710938 217.737765306 614.178710938 364.561523438 c 0
 614.178710938 511.385281567 549.700602808 609.409179688 398.888671875 609.409179688 c 0
 248.076740942 609.409179688 183.598632812 511.385281567 183.598632812 364.561523438 c 0
41.5 364.561523438 m 0
 41.5 591.206054688 176.729001544 739.12109375 398.888671875 739.12109375 c 0
 621.048342206 739.12109375 756.27734375 591.206054688 756.27734375 364.561523438 c 0
 756.27734375 137.916992188 621.048342206 -9.998046875 398.888671875 -9.998046875 c 0
 176.729001544 -9.998046875 41.5 137.916992188 41.5 364.561523438 c 0
EndSplineSet
EndChar

StartChar: H
Encoding: 72 72 2
Width: 719
Flags: W
HStem: 0 21G<61.5 204.5 514.5 657.5> 298 120<133.5 570.5> 711.008 20G<61.5 204.5 514.5 657.5>
VStem: 61.5 143<0 298 418 731.008> 133.5 71<298 418> 514.5 143<0 298 418 731.008> 514.5 56<298 418>
LayerCount: 2
Fore
SplineSet
570.5 298 m 1xea
 133.5 298 l 1
 133.5 418 l 1
 570.5 418 l 1
 570.5 298 l 1xea
514.5 0 m 1xe4
 514.5 731.0078125 l 1
 657.5 731.0078125 l 1
 657.5 0 l 1
 514.5 0 l 1xe4
61.5 0 m 1xf0
 61.5 731.0078125 l 1
 204.5 731.0078125 l 1
 204.5 0 l 1
 61.5 0 l 1xf0
EndSplineSet
EndChar

StartChar: V
Encoding: 86 86 4
Width: 699
Flags: W
HStem: 0 21G<257.578 451.148> 711.008 20G<11.5 167.812 531.469 687.5>
LayerCount: 2
Fore
SplineSet
264.5 0 m 1
 11.5 731.0078125 l 1
 161.25 731.0078125 l 1
 353.606445312 144.694335938 l 1
 537.75 731.0078125 l 1
 687.5 731.0078125 l 1
 444.5 0 l 1
 264.5 0 l 1
EndSplineSet
EndChar

StartChar: D
Encoding: 68 68 5
Width: 727
Flags: W
HStem: 0 127.602<204.5 419.515> 603.4 127.608<204.5 419.943>
VStem: 61.5 143<127.602 603.4> 542.429 143.849<240.757 488.57>
LayerCount: 2
Fore
SplineSet
61.5 0 m 1
 61.5 731.0078125 l 1
 312.388671875 731.0078125 l 2
 509.109624971 731.0078125 686.27734375 631.206054688 686.27734375 364.561523438 c 0
 686.27734375 97.9169921874 507.958235806 -2.35061969889e-14 312.388671875 0 c 2
 61.5 0 l 1
204.5 603.399552393 m 1
 204.5 127.601724767 l 1
 287.388671875 127.711914062 l 2
 433.398938573 127.883555612 542.428710938 170.300723032 542.428710938 364.561523438 c 0
 542.428710938 558.659495906 433.39894154 603.134672646 287.388671875 603.295898438 c 2
 204.5 603.399552393 l 1
EndSplineSet
EndChar

StartChar: U
Encoding: 85 85 6
Width: 719
Flags: W
HStem: -9.99805 129.712<264.146 451.632> 711.008 20G<61.5 204.5 511.277 654.277>
VStem: 61.5 143<184.362 731.008> 511.277 143<184.362 731.008>
LayerCount: 2
Fore
SplineSet
357.888671875 -9.998046875 m 0
 136.542739551 -9.998046875 61.5 102.375640235 61.5 274.561523438 c 2
 61.5 731.0078125 l 1
 204.5 731.0078125 l 1
 204.5 304.561523438 l 2
 204.5 193.71697631 225.648532221 119.713867188 357.888671875 119.713867188 c 0
 490.128811529 119.713867188 511.27734375 193.71697631 511.27734375 304.561523438 c 2
 511.27734375 731.0078125 l 1
 654.27734375 731.0078125 l 1
 654.27734375 274.561523438 l 2
 654.27734375 102.375640235 579.234604199 -9.998046875 357.888671875 -9.998046875 c 0
EndSplineSet
EndChar

StartChar: L
Encoding: 76 76 7
Width: 568
Flags: W
HStem: 0 123.25<204.5 544> 711.008 20G<61.5 204.5>
VStem: 61.5 143<123.25 731.008>
LayerCount: 2
Fore
SplineSet
204.5 123.25 m 1
 544 123.25 l 1
 544 0 l 1
 61.5 0 l 1
 61.5 731.0078125 l 1
 204.5 731.0078125 l 1
 204.5 123.25 l 1
EndSplineSet
EndChar

StartChar: F
Encoding: 70 70 8
Width: 574
Flags: W
HStem: 0 21G<61.5 204.5> 275.4 125.85<133.5 477.5> 607.758 123.25<204.5 537.5>
VStem: 61.5 143<0 275.4 401.25 607.758> 133.5 71<275.4 401.25>
LayerCount: 2
Fore
SplineSet
477.5 275.4 m 1xe8
 133.5 275.4 l 1
 133.5 401.25 l 1
 477.5 401.25 l 1
 477.5 275.4 l 1xe8
204.5 607.7578125 m 1xf0
 204.5 0 l 1
 61.5 0 l 1
 61.5 731.0078125 l 1
 537.5 731.0078125 l 1
 537.5 607.7578125 l 1
 204.5 607.7578125 l 1xf0
EndSplineSet
EndChar

StartChar: C
Encoding: 67 67 9
Width: 667
Flags: W
HStem: -9.99805 129.712<309.909 550.781> 609.409 129.712<312.532 532.814>
VStem: 41.85 149.099<241.903 482.479>
LayerCount: 2
Fore
SplineSet
41.85 360.561523438 m 0
 41.85 589.626439045 173.706048603 739.12109375 405.888671875 739.12109375 c 0
 571.571008915 739.12109375 639.681640625 672.891601562 639.681640625 672.891601562 c 1
 588.10546875 553.988671875 l 1
 588.10546875 553.988671875 532.543853228 609.409179688 419.888671875 609.409179688 c 0
 259.514836144 609.409179688 190.948632812 509.783895634 190.948632812 360.561523438 c 0
 190.948632812 216.136379373 259.514836144 119.713867188 419.888671875 119.713867188 c 0
 539.282660315 119.713867188 602.518554688 165.845703125 602.518554688 165.845703125 c 1
 642.827148438 44.595703125 l 1
 642.827148438 44.595703125 570.452460076 -9.998046875 405.888671875 -9.998046875 c 0
 173.706048603 -9.998046875 41.85 136.337376545 41.85 360.561523438 c 0
EndSplineSet
Substitution2: "'ss12' Style Set 12 lookup 13-1" C.ss12
EndChar

StartChar: E
Encoding: 69 69 10
Width: 579
Flags: W
HStem: 0 123.25<204.5 542.5> 301.75 126.5<133.5 482.5> 607.758 123.25<204.5 542.5>
VStem: 133.5 71<301.75 428.25>
LayerCount: 2
Fore
SplineSet
482.5 301.75 m 1
 133.5 301.75 l 1
 133.5 428.25 l 1
 482.5 428.25 l 1
 482.5 301.75 l 1
204.5 607.7578125 m 1
 204.5 123.25 l 1
 542.5 123.25 l 1
 542.5 0 l 1
 61.5 0 l 1
 61.5 731.0078125 l 1
 542.5 731.0078125 l 1
 542.5 607.7578125 l 1
 204.5 607.7578125 l 1
EndSplineSet
EndChar

StartChar: N
Encoding: 78 78 11
Width: 719
Flags: W
HStem: 0 21G<61.5 199.7 499.17 657.5> 711.008 20G<61.5 220.165 519.3 657.5>
VStem: 61.5 138.2<0 490.505> 519.3 138.2<253.1 731.008>
LayerCount: 2
Fore
SplineSet
61.5 0 m 1
 61.5 731.0078125 l 1
 207.1 731.0078125 l 1
 519.3 253.099609375 l 1
 519.3 731.0078125 l 1
 657.5 731.0078125 l 1
 657.5 0 l 1
 511.9 0 l 1
 199.7 490.504882812 l 1
 199.7 0 l 1
 61.5 0 l 1
EndSplineSet
EndChar

StartChar: M
Encoding: 77 77 12
Width: 830
Flags: W
HStem: 0 21G<61.5 204.5 625.5 768.5> 711.008 20G<61.5 234.568 595.432 768.5>
VStem: 61.5 143<0 480.005> 625.5 143<0 480.005>
LayerCount: 2
Fore
SplineSet
61.5 0 m 1
 61.5 731.0078125 l 1
 224.5 731.0078125 l 1
 415 352.599609375 l 1
 605.5 731.0078125 l 1
 768.5 731.0078125 l 1
 768.5 0 l 1
 625.5 0 l 1
 625.5 480.004882812 l 1
 465 169.5 l 1
 365 169.5 l 1
 204.5 480.004882812 l 1
 204.5 0 l 1
 61.5 0 l 1
EndSplineSet
EndChar

StartChar: G
Encoding: 71 71 13
Width: 789
Flags: W
HStem: -9.99805 129.712<300.683 508.638> 295.75 118.5<406 549.019 681.327 757.5> 295.75 21.8457<549.019 681.327> 609.409 129.712<308.697 535.449>
VStem: 41.5 149.099<237.154 484.85> 562.431 133.851<169.062 294.578>
LayerCount: 2
Fore
SplineSet
757.5 295.75 m 1xdc
 406 295.75 l 1
 406 414.25 l 1
 757.5 414.25 l 1
 757.5 295.75 l 1xdc
41.5 364.561523438 m 0
 41.5 591.206054688 180.512809264 739.12109375 408.888671875 739.12109375 c 0
 581.834888424 739.12109375 652.931640625 667.041601562 652.931640625 667.041601562 c 1
 598.10546875 552.038671875 l 1
 598.10546875 552.038671875 537.919685893 609.409179688 415.888671875 609.409179688 c 0
 258.071682482 609.409179688 190.598632812 511.385281567 190.598632812 364.561523438 c 0
 190.598632812 217.737765306 248.559730026 119.713867188 406.888671875 119.713867188 c 0
 517.974627341 119.713867188 562.431445312 168.710114496 562.431445312 242.25 c 0
 562.431445312 294.947010827 549.018554688 317.595703125 549.018554688 317.595703125 c 1
 681.327148438 317.595703125 l 1xbc
 681.327148438 317.595703125 696.282421875 295.204797442 696.282421875 222 c 0
 696.282421875 93.0859042083 600.892488209 -9.998046875 399.888671875 -9.998046875 c 0
 171.612834387 -9.998046875 41.5 137.916992188 41.5 364.561523438 c 0
EndSplineSet
Substitution2: "'ss12' Style Set 12 lookup 13-1" G.ss12
Substitution2: "'ss08' Style Set 8 lookup 9-1" G.ss08
EndChar

StartChar: A
Encoding: 65 65 14
Width: 719
Flags: W
HStem: 0 21G<11.5 168.029 550.685 707.5> 148 123.25<162 556> 711.008 20G<270.709 438.565>
LayerCount: 2
Fore
SplineSet
556 148 m 1
 162 148 l 1
 162 271.25 l 1
 556 271.25 l 1
 556 148 l 1
431 731.0078125 m 1
 707.5 0 l 1
 557.75 0 l 1
 355.393554688 572.813476562 l 1
 161.25 0 l 1
 11.5 0 l 1
 278 731.0078125 l 1
 431 731.0078125 l 1
EndSplineSet
EndChar

StartChar: P
Encoding: 80 80 15
Width: 665
Flags: W
HStem: 0 21G<61.5 204.5> 224 119.602<157.5 431.159> 607.399 123.608<204.5 429.751>
VStem: 61.5 143<0 224 343.602 607.399> 157.5 47<224 343.602> 485.429 143.849<395.425 554.82>
LayerCount: 2
Fore
SplineSet
157.5 224 m 1xec
 157.5 343.6015625 l 1xec
 320.388671875 343.711914062 l 2
 414.87392349 343.856101789 485.428710938 367.240468878 485.428710938 474.561523438 c 0
 485.428710938 582.478420886 414.87393395 607.160408692 320.388671875 607.295898438 c 2
 204.5 607.399414062 l 1
 204.5 0 l 1
 61.5 0 l 1
 61.5 731.0078125 l 1xf4
 342.388671875 731.0078125 l 2
 493.334707979 731.0078125 629.27734375 661.164588003 629.27734375 474.561523438 c 0
 629.27734375 291.297915868 492.451235081 224 342.388671875 224 c 2
 157.5 224 l 1xec
EndSplineSet
EndChar

StartChar: R
Encoding: 82 82 16
Width: 660
Flags: W
HStem: 0 21G<61.5 204.5 497.545 650> 266.4 121.502<157.5 414.476> 606.749 124.258<204.5 420.929>
VStem: 61.5 143<0 266.4 387.902 606.749> 157.5 47<266.4 387.902> 466.929 143.849<428.068 563.896>
LayerCount: 2
Back
SplineSet
124 383.3515625 m 1xec
 300.888671875 383.461914062 l 2
 383.403259307 383.509014034 462.928710938 404.697396723 462.928710938 501.561523438 c 0
 462.928710938 596.672668425 383.403268044 618.487535435 300.888671875 618.545898438 c 2
 184 618.649414062 l 1
 184 0 l 1
 55 0 l 1
 55 731.0078125 l 1xf4
 308.888671875 731.0078125 l 2
 457.204101562 731.0078125 590.77734375 670.696715458 590.77734375 509.561523438 c 4
 590.77734375 364.195131811 466.688476562 330.276367188 466.688476562 330.276367188 c 1
 466.688476562 330.276367188 540.174524344 311.767586577 573.702148438 195.399414062 c 2
 630 0 l 1
 492 0 l 1
 447 165 l 2
 420.732434887 256.417062766 391.813913829 266 270 266 c 2
 124 266 l 1
 124 383.3515625 l 1xec
EndSplineSet
Fore
SplineSet
157.5 387.9015625 m 1xec
 319.388671875 388.011914062 l 2
 403.855120542 388.070199799 466.928710938 407.440306913 466.928710938 496.061523438 c 0
 466.928710938 585.969312611 403.855120581 606.569140306 319.388671875 606.645898438 c 2
 204.5 606.749414062 l 1
 204.5 0 l 1
 61.5 0 l 1
 61.5 731.0078125 l 1xf4
 335.388671875 731.0078125 l 2
 480.284133365 731.0078125 610.77734375 669.334960938 610.77734375 504.561523438 c 0
 610.77734375 368.825734628 494.188476562 331.276367188 494.188476562 331.276367188 c 1
 494.188476562 331.276367188 559.706610191 313.390818588 589.741210938 209.146533203 c 2
 650 0 l 1
 503 0 l 1
 458 165 l 2
 433.024070887 254.645917431 407.334807894 266.4 295.5 266.4 c 2
 157.5 266.4 l 1
 157.5 387.9015625 l 1xec
EndSplineSet
Substitution2: "'ss01' Style Set 1 lookup 2-1" R.ss01
EndChar

StartChar: T
Encoding: 84 84 17
Width: 614
Flags: W
HStem: 0 21G<235.5 378.5> 607.75 123.25<36.5 235.5 378.5 577.5> 607.75 93.25<235.5 378.5>
VStem: 235.5 143<0 701>
LayerCount: 2
Fore
SplineSet
577.5 607.75 m 1xd0
 36.5 607.75 l 1
 36.5 731 l 1
 577.5 731 l 1
 577.5 607.75 l 1xd0
235.5 0 m 1
 235.5 701 l 1
 378.5 701 l 1xb0
 378.5 0 l 1
 235.5 0 l 1
EndSplineSet
EndChar

StartChar: Q
Encoding: 81 81 18
Width: 866
Flags: W
HStem: -9.99805 129.712<299.264 626.895 668.438 747.068> 609.409 129.712<302.996 505.054>
VStem: 41.5 142.099<244.273 484.85> 624.179 144.099<248.27 485.561>
LayerCount: 2
Fore
SplineSet
41.5 364.561523438 m 0
 41.5 591.206054687 178.620905404 739.12109375 403.888671875 739.12109375 c 0
 630.399676802 739.12109375 768.27734375 589.104132899 768.27734375 384.561523438 c 0
 768.27734375 201.24208897 668.438476562 123.848632812 668.438476562 123.848632812 c 1
 737.022000725 125.13799029 822.338671875 139.551953125 822.338671875 139.551953125 c 1
 835.388671875 19.001953125 l 1
 835.388671875 19.001953125 727.995389199 -9.998046875 451 -9.998046875 c 0
 167.501164761 -9.998046875 41.5 137.916992188 41.5 364.561523438 c 0
183.598632812 364.561523438 m 0
 183.598632812 217.737765306 253.892776639 119.713867188 403.888671875 119.713867188 c 0
 553.884567111 119.713867188 624.178710938 217.737765306 624.178710938 364.561523438 c 0
 624.178710938 511.385281567 553.884567111 609.409179688 403.888671875 609.409179688 c 0
 253.892776639 609.409179688 183.598632812 511.385281567 183.598632812 364.561523438 c 0
EndSplineSet
Substitution2: "'ss10' Style Set 10 lookup 11-1" Q.ss10
Substitution2: "'ss09' Style Set 9 lookup 10-1" Q.ss09
EndChar

StartChar: B
Encoding: 66 66 19
Width: 640
Flags: W
HStem: 0 123.71<201.25 427.546> 307.656 115.695<157.5 405.653> 607.399 123.608<201.25 399.735>
VStem: 157.5 43.75<307.656 423.352> 439.679 140.599<455.378 572.8> 462.679 140.599<153.752 273.127>
LayerCount: 2
Fore
SplineSet
490.162109375 376.4375 m 1xf8
 490.162109375 376.4375 603.27734375 342.813198592 603.27734375 206.446289062 c 0xf4
 603.27734375 56.2257093531 478.697709119 -1.54459778301e-14 339.388671875 0 c 2
 61.5 0 l 1
 61.5 731.0078125 l 1
 318.388671875 731.0078125 l 2
 456.1809962 731.0078125 580.27734375 674.782103147 580.27734375 524.561523438 c 0
 580.27734375 408.693422378 490.162109375 376.4375 490.162109375 376.4375 c 1xf8
201.25 123.70997461 m 1
 331.138671875 123.711914062 l 2
 406.364030027 123.712907648 462.678710938 140.527033227 462.678710938 213.646289062 c 0xf4
 462.678710938 290.661460516 400.887578132 307.427334774 318.138671875 307.545898438 c 2
 157.5 307.65625 l 1
 157.5 423.3515625 l 1
 296.138671875 423.461914062 l 2
 378.314877897 423.625195695 439.678710938 439.761957399 439.678710938 514.111523438 c 0xf8
 439.678710938 589.873123554 378.31523764 607.229924471 296.138671875 607.295898438 c 2
 201.25 607.399414062 l 1
 201.25 123.70997461 l 1
EndSplineSet
EndChar

StartChar: J
Encoding: 74 74 20
Width: 432
Flags: W
HStem: -10 123<21.8827 194.62> 607.758 123.25<50 221>
VStem: 221 143<139.699 607.758>
LayerCount: 2
Fore
SplineSet
128 113 m 0
 193.476904297 113 221 143.640736776 221 215.5 c 2
 221 607.7578125 l 1
 50 607.7578125 l 1
 50 731.0078125 l 1
 364 731.0078125 l 1
 364 201 l 2
 364 74.4647758463 304.5 -10 161 -10 c 0
 71.7384777535 -10 10 10 10 10 c 1
 24 128 l 1
 24 128 67.3388671875 113 128 113 c 0
EndSplineSet
EndChar

StartChar: K
Encoding: 75 75 21
Width: 669
Flags: W
HStem: 0 21G<61.5 204.5 449.365 652.5> 320.45 70.05<113.5 285.5> 711.008 20G<61.5 204.5 447.591 642.5>
VStem: 61.5 143<0 311 401 731.008> 185.5 19<311 401>
LayerCount: 2
Fore
SplineSet
113.5 390.5 m 1xe0
 285.5 390.5 l 1
 285.5 320.45 l 1
 113.5 320.45 l 1
 113.5 390.5 l 1xe0
467.5 0 m 1
 185.5 311 l 1
 185.5 401 l 1xe8
 464.5 731.0078125 l 1
 642.5 731.0078125 l 1
 319.5 372 l 1
 652.5 0 l 1
 467.5 0 l 1
61.5 0 m 1xf0
 61.5 731.0078125 l 1
 204.5 731.0078125 l 1
 204.5 0 l 1
 61.5 0 l 1xf0
EndSplineSet
EndChar

StartChar: S
Encoding: 83 83 22
Width: 591
Flags: W
HStem: -10 124.712<139.375 374.193> 613.409 125.712<230.514 445.441>
VStem: 52.627 145.062<476.374 581.439> 411.088 138.932<147.593 255.91>
LayerCount: 2
Fore
SplineSet
283.3828125 299.390625 m 0
 106.630375805 346.525517641 52.626953125 412.633537507 52.626953125 520.9 c 0
 52.626953125 653.642882406 152.181373003 739.12109375 315.733398438 739.12109375 c 0
 459.047834206 739.12109375 528.745117188 688.891601562 528.745117188 688.891601562 c 1
 486.37109375 570.888671875 l 1
 486.37109375 570.888671875 426.607716403 613.409179688 332.86328125 613.409179688 c 0
 239.619519449 613.409179688 197.688476562 584.353493157 197.688476562 529.5 c 0
 197.688476562 482.11792674 223.367963487 456.764736563 320.947070312 431.081054688 c 0
 492.856908163 386.004721033 550.01953125 319.026879668 550.01953125 206.8 c 0
 550.01953125 73.1892560529 457.335278588 -10 283.8046875 -10 c 0
 134.166771349 -10 39.31640625 42.2294921875 39.31640625 42.2294921875 c 1
 76.47265625 163.232421875 l 1
 76.47265625 163.232421875 159.795413886 114.711914062 266.696289062 114.711914062 c 0
 364.516872467 114.711914062 411.087890625 144.234834409 411.087890625 201.5 c 0
 411.087890625 251.146312376 389.892265111 271.042327311 283.3828125 299.390625 c 0
EndSplineSet
EndChar

StartChar: W
Encoding: 87 87 23
Width: 949
Flags: W
HStem: 0 21G<178.794 356.346 586.747 764.37> 711.008 20G<11.5 160.314 782.354 937.5>
LayerCount: 2
Fore
SplineSet
183.5 0 m 1
 11.5 731.0078125 l 1
 156.05 731.0078125 l 1
 275.406445312 171.194335938 l 1
 399.55 671.0078125 l 1
 545.55 671.0078125 l 1
 671.806445312 171.194335938 l 1
 786.45 731.0078125 l 1
 937.5 731.0078125 l 1
 759.5 0 l 1
 592 0 l 1
 472.55 454.771484375 l 1
 351 0 l 1
 183.5 0 l 1
EndSplineSet
EndChar

StartChar: X
Encoding: 88 88 24
Width: 689
Flags: W
HStem: 0 21G<16.5 200.765 488.235 672.5> 711.008 20G<26.5 202.9 486.1 662.5>
VStem: 315.6 57.8<311 401>
LayerCount: 2
Fore
SplineSet
188.9 0 m 1
 16.5 0 l 1
 249 372 l 1
 26.5 731.0078125 l 1
 191.9 731.0078125 l 1
 373.4 401 l 1
 373.4 311 l 1
 188.9 0 l 1
500.1 0 m 1
 315.6 311 l 1
 315.6 401 l 1
 497.1 731.0078125 l 1
 662.5 731.0078125 l 1
 440 372 l 1
 672.5 0 l 1
 500.1 0 l 1
EndSplineSet
EndChar

StartChar: Y
Encoding: 89 89 25
Width: 689
Flags: W
HStem: 0 21G<273 416> 275 73<279 410> 711.008 20G<26.5 191.596 497.404 662.5>
VStem: 273 143<0 348>
LayerCount: 2
Fore
SplineSet
279 275 m 1
 26.5 731.0078125 l 1
 181.25 731.0078125 l 1
 344.5 415.416015625 l 1
 507.75 731.0078125 l 1
 662.5 731.0078125 l 1
 410 275 l 1
 279 275 l 1
273 0 m 1
 273 348 l 1
 416 348 l 1
 416 0 l 1
 273 0 l 1
EndSplineSet
EndChar

StartChar: Z
Encoding: 90 90 26
Width: 594
Flags: W
HStem: 0 123.25<217.5 557.5> 607.75 123.25<46.5 376.5>
LayerCount: 2
Fore
SplineSet
557.5 0 m 1
 36.5 0 l 1
 36.5 96 l 1
 376.5 607.75 l 1
 46.5 607.75 l 1
 46.5 731 l 1
 547.5 731 l 1
 547.5 625 l 1
 217.5 123.25 l 1
 557.5 123.25 l 1
 557.5 0 l 1
EndSplineSet
EndChar

StartChar: ampersand
Encoding: 38 38 27
Width: 754
Flags: W
HStem: -10 118.193<207.95 373.956 531.454 732.822> 624.162 114.83<337.321 490.722>
VStem: 41.5 131.337<141.181 265.954> 164.551 137.376<443.522 590.279>
LayerCount: 2
Fore
SplineSet
284.767578125 442.321289062 m 1xe0
 314.841796875 357.213867188 l 0
 314.841796875 357.213867188 172.836914062 300.213059541 172.836914062 204 c 0
 172.836914062 142.83234865 215.392155806 108.192773438 283.400390625 108.192773438 c 0
 373.916803813 108.192773438 495.430727928 189.951435873 555 451.905078125 c 1
 681.538085938 416.3046875 l 1
 590.225459685 105.469202174 437.350323735 -10 265.928710938 -10 c 0
 123.855387715 -10 41.5 70.9521484375 41.5 188.185546875 c 0
 41.5 374.241587769 284.767578125 442.321289062 284.767578125 442.321289062 c 1xe0
742.451171875 4.5546875 m 1
 742.451171875 4.5546875 712.678991135 -10 632.5 -10 c 0
 490.19402357 -10 392.16873695 64.5407360781 318 156 c 0
 215.658209562 282.239300341 164.55078125 415.954893974 164.55078125 522 c 0
 164.55078125 663.905888236 251.999268175 738.9921875 397.022460938 738.9921875 c 0
 482.209601156 738.9921875 534.250390625 703.649414062 534.250390625 703.649414062 c 1
 501.8703125 595.948632812 l 1
 501.8703125 595.948632812 461.286425453 624.16171875 406.807861328 624.16171875 c 0
 337.345227562 624.16171875 301.926757812 587.777744039 301.926757812 514 c 0xd0
 301.926757812 442.976292686 337.533571134 341.585911011 413.9375 248 c 0
 468.407805672 181.052578195 535.233101627 110.9046875 638.01171875 110.9046875 c 0
 697.555788023 110.9046875 731.62890625 120.1546875 731.62890625 120.1546875 c 1
 742.451171875 4.5546875 l 1
EndSplineSet
EndChar

StartChar: i
Encoding: 105 105 28
Width: 269
Flags: W
HStem: 0 21G<68 201> 481.011 20G<68 201> 576.551 160.449<76.6062 192.393>
VStem: 54.8867 159.227<598.437 715.113> 68 133<0 501.011>
LayerCount: 2
Fore
SplineSet
68 0 m 1xe8
 68 501.010742188 l 1
 201 501.010742188 l 1
 201 0 l 1
 68 0 l 1xe8
54.88671875 656.775390625 m 0xf0
 54.88671875 705.376756051 86.267859183 737 134.499023438 737 c 0
 182.731185246 737 214.11328125 705.376756051 214.11328125 656.775390625 c 0
 214.11328125 608.173147141 182.731185246 576.55078125 134.499023438 576.55078125 c 0
 86.267859183 576.55078125 54.88671875 608.173147141 54.88671875 656.775390625 c 0xf0
EndSplineSet
EndChar

StartChar: o
Encoding: 111 111 29
Width: 589
Flags: W
HStem: -9.99805 116.462<218.903 369.777> 394.284 116.649<218.925 369.799>
VStem: 41.5 128.849<161.721 342.315> 419.429 128.849<161.721 342.315>
LayerCount: 2
Fore
SplineSet
170.348632812 253.561523438 m 0
 170.348632812 165.353896566 207.348152306 106.463867188 293.888671875 106.463867188 c 0
 381.830203136 106.463867188 419.428710938 165.353896566 419.428710938 253.561523438 c 0
 419.428710938 337.946359139 381.863545259 394.284179688 294 394.284179688 c 0
 207.381494429 394.284179688 170.348632812 337.946359139 170.348632812 253.561523438 c 0
41.5 253.561523438 m 0
 41.5 409.296356709 136.999020491 510.93359375 293.888671875 510.93359375 c 0
 452.021561715 510.93359375 548.27734375 409.296356709 548.27734375 253.561523438 c 0
 548.27734375 94.0826581125 452.021561715 -9.998046875 293.888671875 -9.998046875 c 0
 136.999020491 -9.998046875 41.5 94.0826581125 41.5 253.561523438 c 0
EndSplineSet
EndChar

StartChar: n
Encoding: 110 110 30
Width: 595
Flags: W
HStem: 0 21G<61.5 194.5 401.277 534.277> 403.034 107.899<241.224 368.39> 481.011 20G<61.5 194.5>
VStem: 61.5 133<0 501.011> 401.277 133<0 364.662>
LayerCount: 2
Fore
SplineSet
194.5 284 m 9xd8
 136 293.561523438 l 17
 158.574426506 444 212.103327188 510.93359375 345.5 510.93359375 c 0
 470.166135504 510.93359375 534.27734375 444.084682028 534.27734375 304.561523438 c 2
 534.27734375 0 l 1
 401.27734375 0 l 1
 401.27734375 287.561523438 l 2
 401.27734375 360.70961187 370.785311573 403.034179688 299 403.034179688 c 0
 225.7971391 403.034179688 194.5 355.379264459 194.5 284 c 9xd8
61.5 0 m 1
 61.5 501.010742188 l 1
 194.5 501.010742188 l 1xb8
 194.5 0 l 1
 61.5 0 l 1
EndSplineSet
EndChar

StartChar: m
Encoding: 109 109 31
Width: 882
Flags: W
HStem: 0 21G<61.5 194.5 374.777 507.777 688.055 821.055> 403.034 107.899<227.83 348.535 541.108 661.812> 481.011 20G<61.5 194.5>
VStem: 61.5 133<0 501.011> 374.777 133<0 364.375> 688.055 133<0 376.917>
CounterMasks: 1 1c
LayerCount: 2
Fore
SplineSet
507.77734375 284 m 9xdc
 436.27734375 293.561523438 l 17
 458.824831799 444 512.289855512 510.93359375 645.52734375 510.93359375 c 0
 761.443349273 510.93359375 821.0546875 447.323924219 821.0546875 314.561523438 c 2
 821.0546875 0 l 1
 688.0546875 0 l 1
 688.0546875 297.561523438 l 2
 688.0546875 364.374944356 662.481814469 403.034179688 602.27734375 403.034179688 c 0
 536.079541309 403.034179688 507.77734375 355.379264458 507.77734375 284 c 9xdc
194.5 284 m 9
 123 293.561523438 l 17
 145.547488049 444 199.012511762 510.93359375 332.25 510.93359375 c 0
 448.166005523 510.93359375 507.77734375 447.323924219 507.77734375 314.561523438 c 2
 507.77734375 0 l 1
 374.77734375 0 l 1
 374.77734375 297.561523438 l 2
 374.77734375 364.374944356 349.204470719 403.034179688 289 403.034179688 c 0
 222.802197559 403.034179688 194.5 355.379264459 194.5 284 c 9
61.5 0 m 1
 61.5 501.010742188 l 1
 194.5 501.010742188 l 1xbc
 194.5 0 l 1
 61.5 0 l 1
EndSplineSet
EndChar

StartChar: p
Encoding: 112 112 32
Width: 602
Flags: W
HStem: -9.99805 113.712<240.213 386.535> 398.034 112.899<246.285 384.762> 481.011 20G<61.5 194.5>
VStem: 61.5 133<-180 501.011> 119.651 74.8486<66.4394 183.562> 144.651 49.8486<283.562 425.747> 433.58 128.849<156.331 347.9>
LayerCount: 2
Fore
SplineSet
61.5 -180 m 1xb2
 61.5 501.010742188 l 1
 194.5 501.010742188 l 1
 194.5 -180 l 1
 61.5 -180 l 1xb2
194.5 213.561523438 m 1
 194.5 160.044393143 230.451289954 103.713867188 314.540039062 103.713867188 c 0
 397.928282325 103.713867188 433.580078125 163.704849395 433.580078125 253.561523438 c 0
 433.580078125 340.195059827 397.961624448 398.034179688 314.651367188 398.034179688 c 0
 230.484632077 398.034179688 194.5 352.205454325 194.5 283.561523438 c 1xd2
 144.651367188 283.561523438 l 1xc6
 144.651367188 425.746590474 220.965663421 510.93359375 338.5 510.93359375 c 0
 480.740588621 510.93359375 562.428710938 409.296356709 562.428710938 253.561523438 c 0
 562.428710938 94.0826581125 476.956780901 -9.998046875 336.540039062 -9.998046875 c 0
 201.717870276 -9.998046875 119.651367188 66.4393843717 119.651367188 183.561523438 c 1xca
 194.5 213.561523438 l 1
EndSplineSet
EndChar

StartChar: j
Encoding: 106 106 33
Width: 269
Flags: W
HStem: -190 113.65<-77.7699 48.4037> 481.011 20G<68 201> 576.551 160.449<76.6062 192.393>
VStem: 54.8867 159.227<598.437 715.113> 68 133<-58.911 501.011>
LayerCount: 2
Fore
SplineSet
68 7.3 m 2xe8
 68 501.010742188 l 1
 201 501.010742188 l 1
 201 501.010742188 201 1.5 201 1.5 c 2
 201 -113.763033175 148.974137931 -190 23.5 -190 c 0
 -43.5939256621 -190 -90 -172.7 -90 -172.7 c 1
 -76 -64.7 l 1
 -76 -64.7 -48.7256840632 -76.35 -10.55 -76.35 c 0
 44.7533422851 -76.35 68 -51.1542168675 68 7.3 c 2xe8
54.88671875 656.775390625 m 0xf0
 54.88671875 705.376756051 86.267859183 737 134.499023438 737 c 0
 182.731185246 737 214.11328125 705.376756051 214.11328125 656.775390625 c 0
 214.11328125 608.173147141 182.731185246 576.55078125 134.499023438 576.55078125 c 0
 86.267859183 576.55078125 54.88671875 608.173147141 54.88671875 656.775390625 c 0xf0
EndSplineSet
EndChar

StartChar: k
Encoding: 107 107 34
Width: 555
Flags: W
HStem: 0 21G<61.5 194.5 354.298 538.5> 217.5 77<93 179> 481.011 20G<350.644 528.5> 731.002 20G<61.5 194.5>
VStem: 61.5 133<0 217.5 294.5 751.002> 93 101.5<217.5 294.5>
LayerCount: 2
Fore
SplineSet
179 294.5 m 1xf4
 179 217.5 l 1
 93 217.5 l 1
 93 294.5 l 1
 179 294.5 l 1xf4
372.05 0 m 1
 179 217.5 l 1
 179 294.5 l 1
 369.05 501.010742188 l 1
 528.5 501.010742188 l 1
 306 267.45 l 1
 538.5 0 l 1
 372.05 0 l 1
61.5 0 m 1xf8
 61.5 751.001953125 l 1
 194.5 751.001953125 l 1
 194.5 0 l 1
 61.5 0 l 1xf8
EndSplineSet
EndChar

StartChar: l
Encoding: 108 108 35
Width: 371
Flags: W
HStem: -10.0088 116.25<216.706 325.412> 731.002 20G<68 201>
VStem: 68 133<124.093 751.002>
LayerCount: 2
Fore
SplineSet
201 191.991210938 m 2
 201 132.06952419 221.420361328 106.241210938 270 106.241210938 c 0
 301.176322586 106.241210938 323.45 116.891210938 323.45 116.891210938 c 1
 337.45 5.6412109375 l 1
 337.45 5.6412109375 297.197330234 -10.0087890625 239 -10.0087890625 c 0
 118.120689655 -10.0087890625 68 58.0670403213 68 160.991210938 c 2
 68 751.001953125 l 1
 201 751.001953125 l 1
 201 191.991210938 l 2
EndSplineSet
EndChar

StartChar: h
Encoding: 104 104 36
Width: 595
Flags: W
HStem: 0 21G<61.5 194.5 401.277 534.277> 403.034 107.899<241.224 368.39> 731.002 20G<61.5 194.5>
VStem: 61.5 133<0 751.002> 401.277 133<0 364.662>
LayerCount: 2
Fore
SplineSet
61.5 0 m 1
 61.5 751.001953125 l 1
 194.5 751.001953125 l 1
 194.5 0 l 1
 61.5 0 l 1
194.5 284 m 9
 136 293.561523438 l 17
 158.574426506 444 212.103327188 510.93359375 345.5 510.93359375 c 0
 470.166135504 510.93359375 534.27734375 444.084682028 534.27734375 304.561523438 c 2
 534.27734375 0 l 1
 401.27734375 0 l 1
 401.27734375 287.561523438 l 2
 401.27734375 360.70961187 370.785311573 403.034179688 299 403.034179688 c 0
 225.7971391 403.034179688 194.5 355.379264459 194.5 284 c 9
EndSplineSet
EndChar

StartChar: q
Encoding: 113 113 37
Width: 602
Flags: W
HStem: -9.99805 113.712<224.73 372.215> 398.034 112.899<223.523 367.574> 481.011 20G<412.5 545.5>
VStem: 44.5713 128.849<157.705 343.51> 412.5 133<-180 501.011> 412.5 67.8486<66.4394 183.562 283.562 425.747>
LayerCount: 2
Fore
SplineSet
545.5 -180 m 1xb8
 412.5 -180 l 1
 412.5 501.010742188 l 1
 545.5 501.010742188 l 1
 545.5 -180 l 1xb8
412.5 205.561523438 m 1
 480.348632812 183.561523438 l 1xd4
 480.348632812 66.4393843715 400.930795128 -9.998046875 270.459960938 -9.998046875 c 0
 130.043219097 -9.998046875 44.5712890625 94.0826581123 44.5712890625 253.561523438 c 0
 44.5712890625 409.296356709 126.259411379 510.93359375 268.5 510.93359375 c 0
 393.916498828 510.93359375 475.348632812 425.746590474 475.348632812 283.561523438 c 1
 412.5 275.561523438 l 1
 412.5 349.002682459 378.462079925 398.034179688 298.848632812 398.034179688 c 0xd8
 210.985087554 398.034179688 173.419921875 340.195059826 173.419921875 253.561523438 c 0
 173.419921875 163.704849395 211.018429676 103.713867188 298.959960938 103.713867188 c 0
 378.495422047 103.713867188 412.5 155.941945964 412.5 205.561523438 c 1
EndSplineSet
EndChar

StartChar: g
Encoding: 103 103 38
Width: 602
Flags: W
HStem: -190 108.8<152.376 370.829> 20.002 106.612<222.61 370.006> 403.384 107.549<221.847 370.848> 481.011 20G<412.5 545.5>
VStem: 44.5713 128.849<177.7 353.907> 412.5 133<-38.79 39 223.562 501.011> 412.5 67.8486<100.388 223.562 293.562 429.493>
LayerCount: 2
Fore
SplineSet
412.5 39 m 2xdc
 412.5 501.010742188 l 1
 545.5 501.010742188 l 1
 545.5 31 l 2
 545.5 -102.018957346 472.077586208 -190 295 -190 c 0
 164.654532084 -190 74.5 -145.3 74.5 -145.3 c 1
 102 -37.2 l 1
 102 -37.2 174.092538687 -81.2 275 -81.2 c 0
 371.807250976 -81.2 412.5 -44.995180723 412.5 39 c 2xdc
412.5 235.561523438 m 1
 480.348632812 223.561523438 l 1xea
 480.348632812 100.388423477 406.382138034 20.001953125 270.459960938 20.001953125 c 0
 123.242137992 20.001953125 44.5712890625 115.39477208 44.5712890625 261.561523438 c 0
 44.5712890625 412.455587994 119.455571844 510.93359375 268.5 510.93359375 c 0
 399.371590066 510.93359375 475.348632812 429.493180948 475.348632812 293.561523438 c 1
 412.5 285.561523438 l 1
 412.5 356.214293606 374.86675785 403.384179688 294.848632812 403.384179688 c 0xec
 209.787110937 403.384179688 173.419921875 347.386653649 173.419921875 263.511523438 c 0
 173.419921875 181.420362436 211.018429676 126.613867188 298.959960938 126.613867188 c 0
 378.495422048 126.613867188 412.5 182.482867836 412.5 235.561523438 c 1
EndSplineSet
Substitution2: "'ss14' Style Set 14 lookup 19-1" g.ss14
EndChar

StartChar: f
Encoding: 102 102 39
Width: 398
Flags: W
HStem: 0 21G<108 241> 395.75 105.261<20.5 375.5> 653.411 107.6<262.886 397.175>
VStem: 108 133<0 630.327>
LayerCount: 2
Fore
SplineSet
20.5 501.010742188 m 1
 375.5 501.010742188 l 1
 375.5 395.75 l 1
 20.5 395.75 l 1
 20.5 501.010742188 l 1
241 557.010742188 m 2
 241 0 l 1
 108 0 l 1
 108 570.010742188 l 2
 108 684.97265625 161.930877221 761.010742188 292 761.010742188 c 0
 361.162890625 761.010742188 409 745.010742188 409 745.010742188 c 1
 395 642.410742188 l 1
 395 642.410742188 367.079516601 653.410742188 328 653.410742188 c 0
 266.747756545 653.410742188 241 624.374162565 241 557.010742188 c 2
EndSplineSet
EndChar

StartChar: c
Encoding: 99 99 40
Width: 492
Flags: W
HStem: -9.99805 110.062<234.827 419.345> 398.684 112.249<228.923 400.391>
VStem: 41.5 133.899<162.592 342.356>
LayerCount: 2
Fore
SplineSet
41.5 253.561523438 m 0
 41.5 409.296356709 128.817240231 510.93359375 293.138671875 510.93359375 c 0
 417.753514531 510.93359375 468.981640625 453.304101562 468.981640625 453.304101562 c 1
 427.70546875 358.001171875 l 1
 427.70546875 358.001171875 389.504737271 398.684179688 312.05 398.684179688 c 0
 216.324918431 398.684179688 175.398632812 340.584834611 175.398632812 253.561523438 c 0
 175.398632812 161.516114058 219.046922526 100.063867188 321.138671875 100.063867188 c 0
 393.135903395 100.063867188 431.268554688 128.595703125 431.268554688 128.595703125 c 1
 464.077148438 28.595703125 l 1
 464.077148438 28.595703125 404.180581031 -9.998046875 300.138671875 -9.998046875 c 0
 131.463179142 -9.998046875 41.5 94.082658113 41.5 253.561523438 c 0
EndSplineSet
Substitution2: "'ss12' Style Set 12 lookup 13-1" c.ss12
EndChar

StartChar: t
Encoding: 116 116 41
Width: 412
Flags: W
HStem: -10 110.25<256.835 367.942> 396.4 104.611<20.5 375.5>
VStem: 108 133<115.793 652.311>
LayerCount: 2
Fore
SplineSet
20.5 501.010742188 m 1
 375.5 501.010742188 l 1
 375.5 396.4 l 1
 20.5 396.4 l 1
 20.5 501.010742188 l 1
241 182.5 m 2
 241 125.024467572 262.36767842 100.25 313.2 100.25 c 0
 344.026156006 100.25 366.05 111.25 366.05 111.25 c 1
 378.75 4.7 l 1
 378.75 4.7 339.192390324 -10 282 -10 c 0
 140.390225617 -10 108 60.6636662509 108 167.5 c 2
 108 652.310742188 l 1
 241 669.060742188 l 1
 241 182.5 l 2
EndSplineSet
Substitution2: "'ss11' Style Set 11 lookup 12-1" t.ss11
EndChar

StartChar: r
Encoding: 114 114 42
Width: 420
Flags: W
HStem: 0 21G<61.5 194.5> 397.284 113.649<231.223 388.042> 481.011 20G<61.5 194.5>
VStem: 61.5 133<0 501.011>
LayerCount: 2
Fore
SplineSet
61.5 0 m 1xb0
 61.5 501.010742188 l 1
 194.5 501.010742188 l 1
 194.5 0 l 1
 61.5 0 l 1xb0
319 510.93359375 m 0xd0
 389.205209629 510.93359375 409.2 484.93359375 409.2 484.93359375 c 1
 383.2 375.93359375 l 1
 383.2 375.93359375 350.865863847 397.284179688 301.5 397.284179688 c 0
 234.26372382 397.284179688 194.5 358.935748421 194.5 284 c 1
 136 293.561523438 l 1
 155.622288602 444 202.151024888 510.93359375 319 510.93359375 c 0xd0
EndSplineSet
EndChar

StartChar: e
Encoding: 101 101 43
Width: 551
Flags: W
HStem: -9.99805 109.112<232.807 451.492> 205 91.25<135.05 388.75> 403.834 107.099<218.006 349.666>
VStem: 135.05 37.2486<205 296.25>
LayerCount: 2
Fore
SplineSet
41.5 253.561523438 m 0
 41.5 409.296356709 134.728735861 510.93359375 287.888671875 510.93359375 c 0
 464.582777787 510.93359375 519.965820312 373.273945545 519.965820312 274.7109375 c 0
 519.965820312 231.674278598 515.5 205 515.5 205 c 1
 135.05 205 l 1
 135.05 296.25 l 1
 388.75 296.25 l 1
 388.75 296.25 388.375219157 302.583044635 386.514796838 313.199999843 c 0
 379.459158373 356.42559523 355.155247888 403.834179688 281.3 403.834179688 c 0
 204.943905072 403.834179688 172.298632812 344.413691217 172.298632812 255.411523438 c 0
 172.298632812 153.277373956 216.348156192 99.1138671877 328.55 99.1138671877 c 0
 415.830830889 99.1138671877 465.568554688 127.245703125 465.568554688 127.245703125 c 1
 486.827148438 18.245703125 l 1
 486.827148438 18.245703125 427.295941065 -9.998046875 323.888671875 -9.998046875 c 0
 128.800443988 -9.998046875 41.5 94.082658113 41.5 253.561523438 c 0
EndSplineSet
Substitution2: "'ss03' Style Set 3 lookup 4-1" e.ss03
EndChar

StartChar: d
Encoding: 100 100 44
Width: 602
Flags: W
HStem: -9.99805 112.899<223.228 357.212> 0 21G<412.5 545.5> 397.222 113.712<224.406 363.908> 731.002 20G<412.5 545.5>
VStem: 44.5713 128.849<154.36 343.23> 412.5 133<217.374 751.002> 412.5 49.8486<75.1885 217.374 317.374 434.496>
LayerCount: 2
Fore
SplineSet
545.5 0 m 1x7c
 412.5 0 l 1x7a
 412.5 751.001953125 l 1
 545.5 751.001953125 l 1
 545.5 0 l 1x7c
412.5 295.374023438 m 1xbc
 412.5 344.993885693 377.52253729 397.221679688 295.709960938 397.221679688 c 0
 210.045554886 397.221679688 173.419921875 337.231036103 173.419921875 247.374023438 c 0
 173.419921875 160.74073386 210.011246778 102.901367188 295.598632812 102.901367188 c 0
 377.488155112 102.901367188 412.5 151.933126488 412.5 225.374023438 c 1xbc
 462.348632812 217.374023438 l 1xba
 462.348632812 75.1884765624 383.475255552 -9.998046875 262 -9.998046875 c 0
 123.888586443 -9.998046875 44.5712890625 91.6396484372 44.5712890625 247.374023438 c 0
 44.5712890625 406.852539062 127.583500937 510.93359375 263.959960938 510.93359375 c 0
 386.349609375 510.93359375 460.848632812 434.49609375 460.848632812 317.374023438 c 1
 412.5 295.374023438 l 1xbc
EndSplineSet
Substitution2: "'ss05' Style Set 5 lookup 6-1" d.ss05
EndChar

StartChar: b
Encoding: 98 98 45
Width: 602
Flags: W
HStem: -9.99805 112.899<240.595 383.772> 0 21G<61.5 194.5> 397.222 113.712<244.851 382.594> 731.002 20G<61.5 194.5>
VStem: 61.5 133<197.374 751.002> 144.651 49.8486<55.1885 197.374 297.374 424.496> 433.58 128.849<154.36 343.23>
LayerCount: 2
Fore
SplineSet
61.5 0 m 1x7a
 61.5 751.001953125 l 1
 194.5 751.001953125 l 1x7a
 194.5 0 l 1x76
 61.5 0 l 1x7a
194.5 295.374023438 m 1
 139.651367188 297.374023438 l 1
 139.651367188 424.49609375 216.609870125 510.93359375 343.040039062 510.93359375 c 0
 479.416499063 510.93359375 562.428710938 406.852539062 562.428710938 247.374023438 c 0
 562.428710938 91.6396484372 483.111413557 -9.998046875 345 -9.998046875 c 0
 223.524744448 -9.998046875 144.651367188 55.1884765624 144.651367188 197.374023438 c 1xb6
 194.5 225.374023438 l 1
 194.5 151.933126488 229.511844888 102.901367188 311.401367188 102.901367188 c 0xba
 396.988753222 102.901367188 433.580078125 160.74073386 433.580078125 247.374023438 c 0
 433.580078125 337.231036103 396.954445114 397.221679688 311.290039062 397.221679688 c 0
 229.47746271 397.221679688 194.5 344.993885693 194.5 295.374023438 c 1
EndSplineSet
EndChar

StartChar: a
Encoding: 97 97 46
Width: 566
Flags: W
HStem: -9.99805 102.812<179.833 311.543 423.847 541.649> 222.084 87.8494<195.644 359.377> 402.811 108.2<138.423 309.322>
VStem: 33.25 133.399<106.98 196.17> 343.529 130.4<105.167 222.084 289.011 370.263> 343.529 46.5986<55.9744 157.062> 343.529 15.8486<222.084 309.934>
LayerCount: 2
Back
SplineSet
357.928710938 177.561523438 m 5x7c
 407.77734375 180.561523438 l 5x7a
 407.77734375 65.2546726394 343.443566636 -9.998046875 207.888671875 -9.998046875 c 4
 103.525845263 -9.998046875 40 50 40 141 c 4
 40 286.71747631 179.159368499 309.798279039 373.928710938 309.93359375 c 5
 373.77734375 224.284179688 l 5x79
 214.9215174 224.170106541 164.848632812 210.544945242 164.848632812 148.561523438 c 4
 164.848632812 111.324445486 189.419144912 86.4638671875 246.888671875 86.4638671875 c 4
 313.711369303 86.4638671875 357.928710938 123.027306191 357.928710938 177.561523438 c 5x7c
357.928710938 299.010742188 m 6xbc
 357.928710938 377.97408765 325.670027448 412.010742188 248.928710938 412.010742188 c 4
 170.769677734 412.010742188 114.928710938 368.010742188 114.928710938 368.010742188 c 5
 79.9287109375 467.010742188 l 5
 79.9287109375 467.010742188 159.657226562 511.010742188 274.928710938 511.010742188 c 4
 417.721987032 511.010742188 476.928710938 427.01055301 476.928710938 300.010742188 c 6
 476.928710938 118 l 6
 476.928710938 93.251950046 485.36431245 84 507.928710938 84 c 4
 525.694039812 84 536.928710938 91 536.928710938 91 c 5
 545.928710938 13 l 5
 545.928710938 13 520.8653569 -9.998046875 467.928710938 -9.998046875 c 4
 394.082557091 -9.998046875 357.928710938 33 357.928710938 125 c 6
 357.928710938 299.010742188 l 6xbc
EndSplineSet
Fore
SplineSet
343.528710938 177.561523438 m 1xf8
 390.12734375 157.061523438 l 1xf4
 390.12734375 55.9744307412 332.439728646 -9.998046875 210.888671875 -9.998046875 c 0
 100.465057789 -9.998046875 33.25 50 33.25 141 c 0
 33.25 286.71747631 176.006685429 309.798279039 359.528710938 309.93359375 c 1
 359.37734375 222.084179688 l 1xf2
 227.086240438 221.979672562 166.648632812 209.497098944 166.648632812 152.711523438 c 0
 166.648632812 116.793683223 188.149329832 92.8138671877 238.438671875 92.8138671877 c 0
 301.680723502 92.8138671877 343.528710938 126.828636476 343.528710938 177.561523438 c 1xf8
343.528710938 289.010742188 m 2xf8
 343.528710938 368.533120184 311.965512827 402.810742188 236.878710938 402.810742188 c 0
 161.927697753 402.810742188 108.378710938 364.860742188 108.378710938 364.860742188 c 1
 73.1787109375 467.010742188 l 1
 73.1787109375 467.010742188 149.942961238 511.010742188 260.928710938 511.010742188 c 0
 411.497858502 511.010742188 473.928710938 427.01055301 473.928710938 300.010742188 c 2
 473.928710938 133.7 l 2
 473.928710938 105.166954171 482.718063481 94.5 506.228710938 94.5 c 0
 527.179547058 94.5 540.428710938 102.15 540.428710938 102.15 c 1
 549.428710938 12.35 l 1
 549.428710938 12.35 522.116081538 -9.998046875 464.428710938 -9.998046875 c 0
 383.265074574 -9.998046875 343.528710938 33 343.528710938 125 c 2
 343.528710938 289.010742188 l 2xf8
EndSplineSet
Substitution2: "'ss15' Style Set 15 lookup 20-1" a.ss15
Substitution2: "'ss02' Style Set 2 lookup 3-1" a.ss02
EndChar

StartChar: plus
Encoding: 43 43 47
Width: 450
Flags: W
HStem: 304.75 106.5<30 420>
VStem: 171.75 106.5<163 553>
LayerCount: 2
Fore
SplineSet
278.25 553 m 1
 278.25 163 l 1
 171.75 163 l 1
 171.75 553 l 1
 278.25 553 l 1
420 304.75 m 1
 30 304.75 l 1
 30 411.25 l 1
 420 411.25 l 1
 420 304.75 l 1
EndSplineSet
EndChar

StartChar: s
Encoding: 115 115 48
Width: 476
Flags: W
HStem: -9.99805 104.179<98.1356 294.06> 405.404 105.529<188.901 380.059>
VStem: 46.7541 130.758<322.628 390.647> 305.971 129.219<108.69 176.475>
LayerCount: 2
Fore
SplineSet
210.796679688 201.318359375 m 0
 81.9395629996 230.151763005 46.7541015625 278.194739688 46.7541015625 354.3 c 0
 46.7541015625 451.872024778 126.332868264 510.93359375 257.067578125 510.93359375 c 0
 368.629299147 510.93359375 422.884960938 473.225585938 422.884960938 473.225585938 c 1
 393.644921875 377.644335938 l 1
 393.644921875 377.644335938 342.895832388 405.404296875 268.093164062 405.404296875 c 0
 205.611274845 405.404296875 177.51171875 386.654516048 177.51171875 356.418554688 c 0
 177.51171875 331.018888554 195.917279426 315.65983357 257.737109375 300.986914062 c 0
 389.530919622 269.481355938 435.189453125 223.981782715 435.189453125 144.10234375 c 0
 435.189453125 49.1320345148 363.004659945 -9.998046875 227.856445312 -9.998046875 c 0
 111.96201098 -9.998046875 38.5 26.5625 38.5 26.5625 c 1
 65.314453125 129.361328125 l 1
 65.314453125 129.361328125 131.768841723 94.1814453123 213.243164062 94.1814453123 c 0
 276.062771995 94.1814453123 305.970507812 110.630679027 305.970507812 142.536914062 c 0
 305.970507812 169.480464418 289.904750008 183.722211237 210.796679688 201.318359375 c 0
EndSplineSet
EndChar

StartChar: y
Encoding: 121 121 49
Width: 539
Flags: W
HStem: 481.011 20G<11.5 159.125 380.648 527.5>
LayerCount: 2
Fore
SplineSet
203.65 38.1 m 1
 11.5 501.010742188 l 1
 151.25 501.010742188 l 1
 275.606445312 185.194335938 l 1
 387.75 501.010742188 l 1
 527.5 501.010742188 l 1
 263 -179.994140625 l 1
 115.85 -179.994140625 l 1
 203.65 38.1 l 1
EndSplineSet
Substitution2: "'ss04' Style Set 4 lookup 5-1" y.ss04
EndChar

StartChar: u
Encoding: 117 117 50
Width: 595
Flags: W
HStem: -9.92285 107.899<227.387 354.553> 0 21G<401.277 534.277> 481.011 20G<61.5 194.5 401.277 534.277>
VStem: 61.5 133<136.348 501.011> 401.277 133<207.449 501.011>
LayerCount: 2
Fore
SplineSet
401.27734375 217.010742188 m 9xb8
 459.77734375 207.44921875 l 17
 437.202917244 57.0107421877 383.674016563 -9.9228515625 250.27734375 -9.9228515625 c 0
 125.611208246 -9.9228515625 61.5 56.9260601597 61.5 196.44921875 c 2
 61.5 501.010742188 l 1
 194.5 501.010742188 l 1
 194.5 213.44921875 l 2
 194.5 140.301130317 224.992032177 97.9765625 296.77734375 97.9765625 c 0
 369.98020465 97.9765625 401.27734375 145.631477729 401.27734375 217.010742188 c 9xb8
534.27734375 501.010742188 m 1
 534.27734375 0 l 1
 401.27734375 0 l 1x78
 401.27734375 501.010742188 l 1
 534.27734375 501.010742188 l 1
EndSplineSet
Substitution2: "'ss05' Style Set 5 lookup 6-1" u.ss05
EndChar

StartChar: backslash
Encoding: 92 92 51
Width: 434
Flags: W
LayerCount: 2
Fore
SplineSet
294.75 -171.469726562 m 1
 19.75 761.403320312 l 1
 139.25 761.403320312 l 1
 414.25 -171.469726562 l 1
 294.75 -171.469726562 l 1
EndSplineSet
EndChar

StartChar: equal
Encoding: 61 61 52
Width: 450
Flags: W
HStem: 224.75 96.5<30 420> 394.75 96.5<30 420>
LayerCount: 2
Back
SplineSet
420 285 m 5xea
 30 285 l 5
 30 431 l 5
 420 431 l 5
 420 285 l 5xea
EndSplineSet
Fore
SplineSet
420 224.75 m 1
 30 224.75 l 1
 30 321.25 l 1
 420 321.25 l 1
 420 224.75 l 1
420 394.75 m 1
 30 394.75 l 1
 30 491.25 l 1
 420 491.25 l 1
 420 394.75 l 1
EndSplineSet
EndChar

StartChar: v
Encoding: 118 118 53
Width: 539
Flags: W
HStem: 0 21G<187.195 361.406> 481.011 20G<11.5 157.867 381.577 527.5>
LayerCount: 2
Fore
SplineSet
194.5 0 m 1
 11.5 501.010742188 l 1
 151.25 501.010742188 l 1
 273.606445312 131.194335938 l 1
 387.75 501.010742188 l 1
 527.5 501.010742188 l 1
 354.5 0 l 1
 194.5 0 l 1
EndSplineSet
EndChar

StartChar: w
Encoding: 119 119 54
Width: 735
Flags: W
HStem: 0 21G<132.47 293.778 440.289 601.57> 481.011 20G<11.5 146.689 588.311 723.5>
LayerCount: 2
Fore
SplineSet
137.5 0 m 1
 11.5 501.010742188 l 1
 142.25 501.010742188 l 1
 220.106445312 150.194335938 l 1
 295.5 451.010742188 l 1
 439.5 451.010742188 l 1
 514.893554688 150.194335938 l 1
 592.75 501.010742188 l 1
 723.5 501.010742188 l 1
 596.5 0 l 1
 445.5 0 l 1
 367.5 299.341796875 l 1
 288.5 0 l 1
 137.5 0 l 1
EndSplineSet
EndChar

StartChar: x
Encoding: 120 120 55
Width: 528
Flags: W
HStem: 0 21G<11.5 177.713 350.287 516.5> 481.011 20G<21.5 179.892 348.108 506.5>
VStem: 237.5 53<201 291>
LayerCount: 2
Fore
SplineSet
165.25 0 m 1
 11.5 0 l 1
 184.5 255.5 l 1
 21.5 501.010742188 l 1
 168.25 501.010742188 l 1
 290.5 291 l 1
 290.5 201 l 1
 165.25 0 l 1
362.75 0 m 1
 237.5 201 l 1
 237.5 291 l 1
 359.75 501.010742188 l 1
 506.5 501.010742188 l 1
 343.5 255.5 l 1
 516.5 0 l 1
 362.75 0 l 1
EndSplineSet
EndChar

StartChar: z
Encoding: 122 122 56
Width: 478
Flags: W
HStem: 0 112.6<201.45 441.5> 388.411 112.6<46.5 270.05>
LayerCount: 2
Fore
SplineSet
441.5 0 m 1
 36.5 0 l 1
 36.5 96 l 1
 270.05 388.410742188 l 1
 46.5 388.410742188 l 1
 46.5 501.010742188 l 1
 431.5 501.010742188 l 1
 431.5 405.010742188 l 1
 201.45 112.6 l 1
 441.5 112.6 l 1
 441.5 0 l 1
EndSplineSet
EndChar

StartChar: period
Encoding: 46 46 57
Width: 245
Flags: W
HStem: -10 160.449<64.7196 180.506>
VStem: 43 159.227<11.8866 128.562>
LayerCount: 2
Fore
SplineSet
43 70.224609375 m 0
 43 118.825619299 74.3815276409 150.44921875 122.612304688 150.44921875 c 0
 170.844087307 150.44921875 202.2265625 118.825619299 202.2265625 70.224609375 c 0
 202.2265625 21.6227590682 170.844087307 -10 122.612304688 -10 c 0
 74.381527641 -10 43 21.6227590682 43 70.224609375 c 0
EndSplineSet
EndChar

StartChar: two
Encoding: 50 50 58
Width: 608
Flags: W
HStem: 0 121.6<198.813 572.049> 612.999 125.994<173.419 383.806>
VStem: 424.176 140.086<452.489 573.082>
LayerCount: 2
Fore
SplineSet
424.17578125 510.753759766 m 0
 424.17578125 571.789251935 388.372184614 612.998632812 283.328125 612.998632812 c 0
 184.387616859 612.998632812 113.538085938 559.154882812 113.538085938 559.154882812 c 1
 67.522265625 675.796875 l 1
 67.522265625 675.796875 156.780818622 738.9921875 286.69140625 738.9921875 c 0
 459.774613033 738.9921875 564.26171875 662.295898438 564.26171875 510.93359375 c 0
 564.26171875 379.668690038 479.64272514 323.660871915 349.374023438 256.0234375 c 0
 207.494141077 181.502747321 200.197585996 140.45 198.813476562 121.6 c 1
 572.048828125 121.6 l 1
 572.048828125 0 l 1
 48 0 l 1
 48 54 l 2
 48 207.808482717 144.466610609 294.563600609 314.821289062 383.476953125 c 0
 386.079480972 420.655830884 424.17578125 461.147111488 424.17578125 510.753759766 c 0
EndSplineSet
Substitution2: "'onum' Oldstyle Figures lookup 18-1" two.osf
Substitution2: "'tnum' Tabular Numbers lookup 17-1" two.tf
Substitution2: "'numr' Numerators lookup 0 subtable" two.numr
Substitution2: "'dnom' Denominators lookup 0 subtable" two.dnom
Substitution2: "'sups' Superscript lookup 0 subtable" two.superior
Substitution2: "'sinf' Scientific Inferiors lookup 0 subtable" two.inferior
Substitution2: "'sups' Superscript lookup 0 subtable" two.superior
EndChar

StartChar: three
Encoding: 51 51 59
Width: 579
Flags: W
HStem: -9.99805 120.888<116.274 348.095> 316.1 113.281<164.139 350.911> 613.649 125.344<122.237 340.718>
VStem: 379.684 142.886<457.006 580.44> 392.627 145.784<152.12 277.141>
LayerCount: 2
Fore
SplineSet
255.688671875 429.381445312 m 2xe8
 349.205031825 429.381445312 379.684375 459.879860395 379.684375 520.55859375 c 0
 379.684375 573.476453402 347.743552327 613.648632812 243.93671875 613.648632812 c 0
 137.489574345 613.648632812 72.6966796875 567.554882812 72.6966796875 567.554882812 c 1
 35.680859375 685.496875 l 1
 35.680859375 685.496875 114.81977121 738.9921875 252 738.9921875 c 0
 419.517708662 738.9921875 522.5703125 667.857421875 522.5703125 532.868164062 c 0xf0
 522.5703125 412 413.313085938 375.697265625 413.313085938 375.697265625 c 1
 413.313085938 375.697265625 538.411132812 341 538.411132812 205.670898438 c 0
 538.411132812 51.6816406249 423.117211297 -9.998046875 250 -9.998046875 c 0
 102.934570312 -9.998046875 15.451171875 40.9091796875 15.451171875 40.9091796875 c 1
 53.6744140625 162.862695312 l 1
 53.6744140625 162.862695312 125.942447354 110.889453125 239.3 110.889453125 c 0
 345.365574561 110.889453125 392.627148438 147.515604038 392.627148438 213.55 c 0
 392.627148438 282.34941413 345.540687622 315.58850492 255.688671875 315.837304688 c 2
 164 316.1 l 1
 164.138671875 429.381445312 l 1
 255.688671875 429.381445312 l 2xe8
EndSplineSet
Substitution2: "'onum' Oldstyle Figures lookup 18-1" three.osf
Substitution2: "'tnum' Tabular Numbers lookup 17-1" three.tf
Substitution2: "'numr' Numerators lookup 0 subtable" three.numr
Substitution2: "'dnom' Denominators lookup 0 subtable" three.dnom
Substitution2: "'sups' Superscript lookup 0 subtable" three.superior
Substitution2: "'sinf' Scientific Inferiors lookup 0 subtable" three.inferior
Substitution2: "'sups' Superscript lookup 0 subtable" three.superior
EndChar

StartChar: comma
Encoding: 44 44 61
Width: 252
Flags: W
HStem: -116 266.449
VStem: 43 166.227<13.7375 123.239>
LayerCount: 2
Fore
SplineSet
43 70.224609375 m 0
 43 118.825619299 74.3815276409 150.44921875 122.612304688 150.44921875 c 0
 175.084816137 150.44921875 209.2265625 117.192344343 209.2265625 57 c 0
 209.2265625 -39.8791186262 115 -116 115 -116 c 1
 58.5 -73 l 1
 58.5 -73 99.2416131531 -41.2623013609 117.448362625 -9.44909586549 c 1
 71.9700368894 -5.34491886184 43 25.1215899872 43 70.224609375 c 0
EndSplineSet
EndChar

StartChar: zero
Encoding: 48 48 63
Width: 683
Flags: W
HStem: -9.99805 123.462<264.34 419.438> 615.659 123.462<264.34 419.438>
VStem: 41.5 136.849<219.005 510.118> 505.429 136.849<219.005 510.118>
LayerCount: 2
Fore
SplineSet
178.348632812 364.561523438 m 0
 178.348632812 213.989930825 227.327918469 113.463867188 341.888671875 113.463867188 c 0
 456.449425281 113.463867188 505.428710938 213.989930825 505.428710938 364.561523438 c 0
 505.428710938 515.133116046 456.449425281 615.659179688 341.888671875 615.659179688 c 0
 227.327918469 615.659179688 178.348632812 515.133116046 178.348632812 364.561523438 c 0
41.5 364.561523438 m 0
 41.5 591.206054688 145.373100736 739.12109375 341.888671875 739.12109375 c 0
 538.404243014 739.12109375 642.27734375 591.206054688 642.27734375 364.561523438 c 0
 642.27734375 137.916992188 538.404243014 -9.998046875 341.888671875 -9.998046875 c 0
 145.373100736 -9.998046875 41.5 137.916992188 41.5 364.561523438 c 0
EndSplineSet
Substitution2: "'onum' Oldstyle Figures lookup 18-1" zero.osf
Substitution2: "'tnum' Tabular Numbers lookup 17-1" zero.tf
Substitution2: "'numr' Numerators lookup 0 subtable" zero.numr
Substitution2: "'dnom' Denominators lookup 0 subtable" zero.dnom
Substitution2: "'sups' Superscript lookup 0 subtable" zero.superior
Substitution2: "'sinf' Scientific Inferiors lookup 0 subtable" zero.inferior
Substitution2: "'sups' Superscript lookup 0 subtable" zero.superior
EndChar

StartChar: one
Encoding: 49 49 64
Width: 415
Flags: W
HStem: 0 21G<210.5 353.5> 505.3 21G<56.0286 101.165> 711 20G<192.186 353.5>
VStem: 210.5 143<0 586.1>
LayerCount: 2
Fore
SplineSet
353.5 731 m 1
 353.5 0 l 1
 210.5 0 l 1
 210.5 586.1 l 1
 65.2 505.3 l 1
 16.5 611.5 l 1
 227.5 731 l 1
 353.5 731 l 1
EndSplineSet
Substitution2: "'onum' Oldstyle Figures lookup 18-1" one.osf
Substitution2: "'tnum' Tabular Numbers lookup 17-1" one.tf
Substitution2: "'numr' Numerators lookup 0 subtable" one.numr
Substitution2: "'dnom' Denominators lookup 0 subtable" one.dnom
Substitution2: "'sups' Superscript lookup 0 subtable" one.superior
Substitution2: "'sinf' Scientific Inferiors lookup 0 subtable" one.inferior
Substitution2: "'sups' Superscript lookup 0 subtable" one.superior
EndChar

StartChar: four
Encoding: 52 52 65
Width: 660
Flags: W
HStem: 0 21G<383.45 520.8> 171.75 116.5<194.1 623.5> 711 20G<370.206 520.8>
VStem: 383.45 137.35<0 533.5>
LayerCount: 2
Fore
SplineSet
520.8 731 m 1
 520.8 0 l 1
 383.45 0 l 1
 383.45 533.5 l 1
 194.1 288.25 l 1
 623.5 288.25 l 1
 623.5 171.75 l 1
 63.9 171.75 l 1
 38.45 275.75 l 1
 385.45 731 l 1
 520.8 731 l 1
EndSplineSet
Substitution2: "'onum' Oldstyle Figures lookup 18-1" four.osf
Substitution2: "'tnum' Tabular Numbers lookup 17-1" four.tf
Substitution2: "'numr' Numerators lookup 0 subtable" four.numr
Substitution2: "'dnom' Denominators lookup 0 subtable" four.dnom
Substitution2: "'sups' Superscript lookup 0 subtable" four.superior
Substitution2: "'sinf' Scientific Inferiors lookup 0 subtable" four.inferior
Substitution2: "'sups' Superscript lookup 0 subtable" four.superior
EndChar

StartChar: exclam
Encoding: 33 33 66
Width: 274
Flags: W
HStem: -10 160.449<79.1063 194.893> 711.008 20G<68.6 209.4>
VStem: 57.3867 159.227<11.8866 128.562> 68.6 140.8<524.223 731.008> 86 106<217 423.785>
LayerCount: 2
Fore
SplineSet
86 217 m 1xc8
 68.6 731.0078125 l 1
 209.4 731.0078125 l 1xd0
 192 217 l 1
 86 217 l 1xc8
57.38671875 70.224609375 m 0xe0
 57.38671875 118.825619299 88.7682463909 150.44921875 136.999023438 150.44921875 c 0
 185.230806057 150.44921875 216.61328125 118.825619299 216.61328125 70.224609375 c 0
 216.61328125 21.6227590682 185.230806057 -10 136.999023438 -10 c 0
 88.768246391 -10 57.38671875 21.6227590682 57.38671875 70.224609375 c 0xe0
EndSplineSet
EndChar

StartChar: five
Encoding: 53 53 67
Width: 594
Flags: W
HStem: -9.99805 126.143<123.02 356.653> 367.186 114.185<210.359 368.458> 609.291 121.717<205.505 508.172>
VStem: 412.345 140.982<169.267 323.144>
LayerCount: 2
Fore
SplineSet
267 -9.998046875 m 0
 113.350921935 -9.998046875 21.951171875 40.9091796875 21.951171875 40.9091796875 c 1
 57.7744140625 165.462695312 l 1
 57.7744140625 165.462695312 142.770332227 116.14453125 252 116.14453125 c 0
 367.830204077 116.14453125 412.344726562 165.569013548 412.344726562 245.576171875 c 0
 412.344726562 321.74174122 370.969317167 367.185546875 287.5 367.185546875 c 0
 198.986651051 367.185546875 168.5 309.2 168.5 309.2 c 1
 58.447265625 338.928515625 l 1
 93.1 731.0078125 l 1
 508.171875 731.0078125 l 1
 508.171875 609.290820312 l 1
 205.5046875 609.290820312 l 1
 190.270703125 446.322265625 l 1
 190.270703125 446.322265625 221.437228972 481.370117188 321.815429688 481.370117188 c 0
 471.516127301 481.370117188 553.327148438 394.102903419 553.327148438 248.547070312 c 0
 553.327148438 88.2974573913 456.889892815 -9.998046875 267 -9.998046875 c 0
EndSplineSet
Substitution2: "'onum' Oldstyle Figures lookup 18-1" five.osf
Substitution2: "'tnum' Tabular Numbers lookup 17-1" five.tf
Substitution2: "'numr' Numerators lookup 0 subtable" five.numr
Substitution2: "'dnom' Denominators lookup 0 subtable" five.dnom
Substitution2: "'sups' Superscript lookup 0 subtable" five.superior
Substitution2: "'sinf' Scientific Inferiors lookup 0 subtable" five.inferior
Substitution2: "'sups' Superscript lookup 0 subtable" five.superior
EndChar

StartChar: six
Encoding: 54 54 68
Width: 640
Flags: W
HStem: -9.99805 118.389<244.482 417.11> 365.391 109.109<245.331 416.589> 617.32 121.673<268.912 484.183>
VStem: 41.5 152.398<191.512 445.19> 467.898 130.767<160.753 313.88>
LayerCount: 2
Back
SplineSet
188.3984375 236.890625 m 4
 188.3984375 160.019065367 229.88147703 103.890625 330.3984375 103.890625 c 4
 431.623435844 103.890625 473.3984375 160.019065367 473.3984375 236.890625 c 4
 473.3984375 314.340166284 431.623435844 370.890625 330.3984375 370.890625 c 4
 229.88147703 370.890625 188.3984375 314.340166284 188.3984375 236.890625 c 4
173.303710938 405.747070312 m 5
 173.303710938 405.747070312 214.094697864 475.599609375 341.263671875 475.599609375 c 4
 515.711185917 475.599609375 595.165039062 379.238029036 595.165039062 239 c 4
 595.165039062 79.095703125 494.937095781 -9.998046875 331.297851562 -9.998046875 c 4
 151.540405276 -9.998046875 45 99.6728515624 45 365.331054688 c 4
 45 605.528320312 159.046377502 738.9921875 364.297851562 738.9921875 c 4
 505.428880973 738.9921875 576.923828125 678.860351562 576.923828125 678.860351562 c 5
 532.619140625 573.388671875 l 5
 532.619140625 573.388671875 473.487673927 622.51953125 364.778320312 622.51953125 c 4
 242.266224145 622.51953125 180.301516454 546.295339891 173.303710938 405.747070312 c 5
EndSplineSet
Fore
SplineSet
193.8984375 236.890625 m 0
 193.8984375 162.619982798 233.774739583 108.390625 330.3984375 108.390625 c 0
 427.730166677 108.390625 467.8984375 162.619982798 467.8984375 236.890625 c 0
 467.8984375 311.161267202 427.730166677 365.390625 330.3984375 365.390625 c 0
 233.774739583 365.390625 193.8984375 311.161267202 193.8984375 236.890625 c 0
173.803710938 413.247070312 m 1
 173.803710938 413.247070312 216.391872034 474.499609375 349.163671875 474.499609375 c 0
 501.891938996 474.499609375 598.665039062 378.586033742 598.665039062 239 c 0
 598.665039062 79.095703125 497.107647414 -9.998046875 331.297851562 -9.998046875 c 0
 149.342864991 -9.998046875 41.5 99.6728515624 41.5 365.331054688 c 0
 41.5 605.528320312 154.474841533 738.9921875 357.797851562 738.9921875 c 0
 505.56640625 738.9921875 580.423828125 678.860351562 580.423828125 678.860351562 c 1
 536.119140625 568.188671875 l 1
 536.119140625 568.188671875 476.388752323 617.31953125 366.578320312 617.31953125 c 0
 243.234439056 617.31953125 180.849027437 545.561069653 173.803710938 413.247070312 c 1
EndSplineSet
Substitution2: "'onum' Oldstyle Figures lookup 18-1" six.osf
Substitution2: "'tnum' Tabular Numbers lookup 17-1" six.tf
Substitution2: "'numr' Numerators lookup 0 subtable" six.numr
Substitution2: "'dnom' Denominators lookup 0 subtable" six.dnom
Substitution2: "'ss07' Style Set 7 lookup 8-1" six.ss07
Substitution2: "'sups' Superscript lookup 0 subtable" six.superior
Substitution2: "'sinf' Scientific Inferiors lookup 0 subtable" six.inferior
Substitution2: "'sups' Superscript lookup 0 subtable" six.superior
EndChar

StartChar: parenright
Encoding: 41 41 69
Width: 402
Flags: W
HStem: -171.47 115.125<36.5 120.877> 644.344 115.125<36.5 120.877>
VStem: 234.948 130.679<95.6656 492.334>
LayerCount: 2
Fore
SplineSet
36.5 -56.3443359375 m 1
 169.497996295 -56.3443359375 234.948242188 40.7229087402 234.948242188 294 c 0
 234.948242188 547.277091259 169.497996295 644.344335938 36.5 644.344335938 c 1
 36.5 759.469726562 l 1
 250.521136935 759.469726562 365.626953125 611.823242188 365.626953125 294 c 0
 365.626953125 -23.8232421877 250.521136935 -171.469726562 36.5 -171.469726562 c 1
 36.5 -56.3443359375 l 1
EndSplineSet
EndChar

StartChar: seven
Encoding: 55 55 70
Width: 604
Flags: W
HStem: 0 21G<172 317.72> 608.4 122.6<46.5 401.55>
VStem: 172 144<0 151.672>
LayerCount: 2
Fore
SplineSet
316 0 m 1
 172 0 l 1
 183.678920971 334.88 401.55 608.4 401.55 608.4 c 1
 46.5 608.4 l 1
 46.5 731 l 1
 557.5 731 l 1
 557.5 625 l 1
 557.5 625 319.440022633 356 316 0 c 1
EndSplineSet
Substitution2: "'onum' Oldstyle Figures lookup 18-1" seven.osf
Substitution2: "'tnum' Tabular Numbers lookup 17-1" seven.tf
Substitution2: "'numr' Numerators lookup 0 subtable" seven.numr
Substitution2: "'dnom' Denominators lookup 0 subtable" seven.dnom
Substitution2: "'sups' Superscript lookup 0 subtable" seven.superior
Substitution2: "'sinf' Scientific Inferiors lookup 0 subtable" seven.inferior
Substitution2: "'sups' Superscript lookup 0 subtable" seven.superior
EndChar

StartChar: eight
Encoding: 56 56 71
Width: 647
Flags: W
HStem: -9.99805 113.964<227.268 419.732> 326.797 107.864<251.897 398.188> 359.573 51.7568<162.916 487.338> 623.798 115.087<243.707 405.82>
VStem: 41.5 135.768<149.56 280.926> 76.7598 130.688<471.64 588.763> 444.552 130.688<471.64 587.884> 469.732 135.768<149.56 280.926>
LayerCount: 2
Fore
SplineSet
323.5 434.661523438 m 0xd6
 398.187522539 434.661523438 444.551757812 471.139347345 444.551757812 529.069140625 c 0
 444.551757812 588.629525403 400.002326898 623.798046875 323.5 623.798046875 c 0
 250.157880797 623.798046875 207.448242188 588.629525403 207.448242188 529.069140625 c 0
 207.448242188 471.139347345 251.897442289 434.661523438 323.5 434.661523438 c 0xd6
323.5 738.884765625 m 0
 480.409219829 738.884765625 575.240234375 665.090820312 575.240234375 543.655273438 c 0
 575.240234375 424.0703125 487.337824429 359.573242188 323.5 359.573242188 c 0xb6
 162.916090667 359.573242188 76.759765625 424.0703125 76.759765625 543.655273438 c 0
 76.759765625 665.090820312 169.707003567 738.884765625 323.5 738.884765625 c 0
323.5 103.965625 m 0
 417.990930146 103.965625 469.732421875 144.170651533 469.732421875 216.820507812 c 0
 469.732421875 284.080993051 418.011212973 326.797460938 323.5 326.797460938 c 0
 228.988787027 326.797460938 177.267578125 284.080993051 177.267578125 216.820507812 c 0xd9
 177.267578125 144.170651533 229.009069854 103.965625 323.5 103.965625 c 0
323.5 411.330078125 m 0xb9
 505.414508358 411.330078125 605.5 339.082491044 605.5 208.381835938 c 0
 605.5 76.1718749997 494.564023903 -9.998046875 323.5 -9.998046875 c 0
 152.435976097 -9.998046875 41.5 76.1718749999 41.5 208.381835938 c 0
 41.5 339.082491044 141.585491642 411.330078125 323.5 411.330078125 c 0xb9
EndSplineSet
Substitution2: "'onum' Oldstyle Figures lookup 18-1" eight.osf
Substitution2: "'tnum' Tabular Numbers lookup 17-1" eight.tf
Substitution2: "'numr' Numerators lookup 0 subtable" eight.numr
Substitution2: "'dnom' Denominators lookup 0 subtable" eight.dnom
Substitution2: "'sups' Superscript lookup 0 subtable" eight.superior
Substitution2: "'sinf' Scientific Inferiors lookup 0 subtable" eight.inferior
Substitution2: "'sups' Superscript lookup 0 subtable" eight.superior
EndChar

StartChar: nine
Encoding: 57 57 72
Width: 640
Flags: W
HStem: -9.99805 121.673<152.513 370.364> 253.095 109.459<227.92 396.76> 619.554 119.439<227.547 396.858>
VStem: 41.5 133.117<414.371 567.716> 448.617 150.048<283.804 538.424>
LayerCount: 2
Fore
SplineSet
448.616601562 491.053515625 m 0
 448.616601562 565.324157827 408.740299479 619.553515625 312.116601562 619.553515625 c 0
 214.784872385 619.553515625 174.616601562 565.324157827 174.616601562 491.053515625 c 0
 174.616601562 416.782873423 214.784872385 362.553515625 312.116601562 362.553515625 c 0
 408.740299479 362.553515625 448.616601562 416.782873423 448.616601562 491.053515625 c 0
462.861328125 315.747070312 m 1
 462.861328125 315.747070312 421.123181837 253.09453125 291.001367188 253.09453125 c 0
 138.273100067 253.09453125 41.5 349.579073757 41.5 489.994140625 c 0
 41.5 649.8984375 143.05739165 738.9921875 308.8671875 738.9921875 c 0
 490.822174071 738.9921875 598.665039062 629.321289062 598.665039062 363.663085938 c 0
 598.665039062 123.465820312 485.690197529 -9.998046875 282.3671875 -9.998046875 c 0
 134.598632812 -9.998046875 59.7412109375 50.1337890625 59.7412109375 50.1337890625 c 1
 100.545898438 160.80546875 l 1
 100.545898438 160.80546875 161.509360632 111.674609375 273.58671875 111.674609375 c 0
 394.691178613 111.674609375 455.943925812 183.433070973 462.861328125 315.747070312 c 1
EndSplineSet
Substitution2: "'onum' Oldstyle Figures lookup 18-1" nine.osf
Substitution2: "'tnum' Tabular Numbers lookup 17-1" nine.tf
Substitution2: "'numr' Numerators lookup 0 subtable" nine.numr
Substitution2: "'dnom' Denominators lookup 0 subtable" nine.dnom
Substitution2: "'ss07' Style Set 7 lookup 8-1" nine.ss07
Substitution2: "'sups' Superscript lookup 0 subtable" nine.superior
Substitution2: "'sinf' Scientific Inferiors lookup 0 subtable" nine.inferior
Substitution2: "'sups' Superscript lookup 0 subtable" nine.superior
EndChar

StartChar: question
Encoding: 63 63 73
Width: 562
Flags: W
HStem: -10 160.449<167.106 282.893> 299.594 99.4551<209.115 345.931> 615.979 123.014<126.571 335.298>
VStem: 145.387 159.227<11.8866 128.562> 168.923 113.956<217 300.653> 387.596 137.774<438.39 567.248>
LayerCount: 2
Back
SplineSet
152.38671875 63.224609375 m 0xf4
 152.38671875 107.584937143 181.008990842 136.44921875 224.999023438 136.44921875 c 0
 268.990077228 136.44921875 297.61328125 107.584937143 297.61328125 63.224609375 c 0
 297.61328125 18.8635145521 268.990077228 -10 224.999023438 -10 c 0
 181.008990842 -10 152.38671875 18.8635145521 152.38671875 63.224609375 c 0xf4
280.88671875 300.653320312 m 1
 282.37890625 210 l 1
 169.422851562 210 l 1xec
 171.15625 399.46875 l 1
 171.15625 399.46875 208.949224154 395.048828125 256.3984375 395.048828125 c 0
 348.180522211 395.048828125 392.095703125 431.389934102 392.095703125 499.145507812 c 0
 392.095703125 585.201602829 327.571533338 623.228515625 232.89453125 623.228515625 c 0
 138.66274719 623.228515625 76.923828125 573.958007812 76.923828125 573.958007812 c 1
 30.2412109375 685.311523438 l 1
 30.2412109375 685.311523438 107.390463661 738.9921875 239.89453125 738.9921875 c 0
 405.150107971 738.9921875 521.870117188 670 521.870117188 501.010742188 c 0
 521.870117188 365.685958308 421.37343496 300.59375 309 300.59375 c 0
 290.63582236 300.59375 280.88671875 300.653320312 280.88671875 300.653320312 c 1
EndSplineSet
Fore
SplineSet
145.38671875 70.224609375 m 0xf4
 145.38671875 118.825619299 176.768246391 150.44921875 224.999023438 150.44921875 c 0
 273.230806057 150.44921875 304.61328125 118.825619299 304.61328125 70.224609375 c 0
 304.61328125 21.6227590682 273.230806057 -10 224.999023438 -10 c 0
 176.768246391 -10 145.38671875 21.6227590682 145.38671875 70.224609375 c 0xf4
281.38671875 300.653320312 m 1
 282.87890625 217 l 1
 168.922851562 217 l 1xec
 170.65625 403.46875 l 1
 170.65625 403.46875 204.747168359 399.048828125 247.5484375 399.048828125 c 0
 342.272748546 399.048828125 387.595703125 434.901181257 387.595703125 501.745507812 c 0
 387.595703125 580.970268298 326.516579858 615.978515625 236.89453125 615.978515625 c 0
 134.748207174 615.978515625 67.823828125 563.458007812 67.823828125 563.458007812 c 1
 20.2412109375 685.311523438 l 1
 20.2412109375 685.311523438 101.0703125 738.9921875 239.89453125 738.9921875 c 0
 407.201329947 738.9921875 525.370117188 664.363007144 525.370117188 503.610742188 c 0
 525.370117188 365.855180275 419.96024208 299.59375 316.55 299.59375 c 0
 293.58061633 299.59375 281.38671875 300.653320312 281.38671875 300.653320312 c 1
EndSplineSet
EndChar

StartChar: hyphen
Encoding: 45 45 74
Width: 354
Flags: W
HStem: 221.35 116.3<36.5 317.5>
VStem: 36.5 281<221.35 337.65>
LayerCount: 2
Fore
SplineSet
317.5 221.35 m 1
 36.5 221.35 l 1
 36.5 337.65 l 1
 317.5 337.65 l 1
 317.5 221.35 l 1
EndSplineSet
EndChar

StartChar: quotesingle
Encoding: 39 39 75
Width: 266
Flags: W
HStem: 456 275.008<90.4 179.6>
VStem: 90.4 89.2<456 566.635>
LayerCount: 2
Fore
SplineSet
90.4 456 m 1
 73 731.0078125 l 1
 197 731.0078125 l 1
 179.6 456 l 1
 90.4 456 l 1
EndSplineSet
EndChar

StartChar: parenleft
Encoding: 40 40 77
Width: 402
Flags: W
HStem: -171.47 115.125<281.25 365.627> 644.344 115.125<281.25 365.627>
VStem: 36.5 130.679<95.6656 492.334>
LayerCount: 2
Fore
SplineSet
365.626953125 -56.3443359375 m 1
 365.626953125 -171.469726562 l 1
 151.60581619 -171.469726562 36.5 -23.8232421877 36.5 294 c 0
 36.5 611.823242188 151.60581619 759.469726562 365.626953125 759.469726562 c 1
 365.626953125 644.344335938 l 1
 232.62895683 644.344335938 167.178710938 547.277091259 167.178710938 294 c 0
 167.178710938 40.7229087402 232.62895683 -56.3443359375 365.626953125 -56.3443359375 c 1
EndSplineSet
EndChar

StartChar: asterisk
Encoding: 42 42 78
Width: 400
Flags: W
HStem: 718.992 20G<144.034 256.405>
LayerCount: 2
Fore
SplineSet
256.405273438 738.9921875 m 1
 245.396484375 606.151367188 l 1
 358.440429688 660.049804688 l 1
 395.440429688 560.869140625 l 1
 269.896484375 527.767578125 l 1
 355.405273438 435.006835938 l 1
 264.25390625 366.916992188 l 1
 200.219726562 477.075195312 l 1
 136.185546875 366.916992188 l 1
 45.0341796875 435.006835938 l 1
 130.54296875 527.767578125 l 1
 5 560.869140625 l 1
 42 660.049804688 l 1
 155.04296875 606.151367188 l 1
 144.034179688 738.9921875 l 1
 256.405273438 738.9921875 l 1
EndSplineSet
Substitution2: "'ss13' Style Set 13 lookup 14-1" asterisk.ss13
EndChar

StartChar: less
Encoding: 60 60 79
Width: 450
Flags: W
LayerCount: 2
Fore
SplineSet
420 155 m 1
 30 298 l 1
 30 418 l 1
 420 561 l 1
 420 447.75 l 1
 166.454101562 358 l 1
 420 268.25 l 1
 420 155 l 1
EndSplineSet
EndChar

StartChar: greater
Encoding: 62 62 80
Width: 450
Flags: W
LayerCount: 2
Fore
SplineSet
30 561 m 1
 420 418 l 1
 420 298 l 1
 30 155 l 1
 30 268.25 l 1
 277.045898438 358 l 1
 30 447.75 l 1
 30 561 l 1
EndSplineSet
EndChar

StartChar: slash
Encoding: 47 47 81
Width: 434
Flags: W
LayerCount: 2
Fore
SplineSet
19.75 -171.469726562 m 1
 294.75 761.403320312 l 1
 414.25 761.403320312 l 1
 139.25 -171.469726562 l 1
 19.75 -171.469726562 l 1
EndSplineSet
EndChar

StartChar: bar
Encoding: 124 124 82
Width: 249
Flags: W
VStem: 64.75 119.5<-171.47 759.47>
LayerCount: 2
Fore
SplineSet
64.75 -171.469726562 m 1
 64.75 759.469726562 l 1
 184.25 759.469726562 l 1
 184.25 -171.469726562 l 1
 64.75 -171.469726562 l 1
EndSplineSet
EndChar

StartChar: bracketleft
Encoding: 91 91 83
Width: 375
Flags: W
HStem: -171.47 102.6<191 332> 657.52 101.95<191 332>
VStem: 68 264<-171.47 -68.8697 657.52 759.47> 68 123<-68.8697 657.52>
LayerCount: 2
Fore
SplineSet
68 759.469726562 m 1xe0
 332 759.469726562 l 1
 332 657.519726562 l 1xe0
 191 657.519726562 l 1
 191 -68.8697265625 l 1xd0
 332 -68.8697265625 l 1
 332 -171.469726562 l 1
 68 -171.469726562 l 1
 68 759.469726562 l 1xe0
EndSplineSet
EndChar

StartChar: bracketright
Encoding: 93 93 84
Width: 375
Flags: W
HStem: -171.47 102.6<43 184> 656.87 102.6<43 184>
VStem: 43 264<-171.47 -68.8697 656.87 759.47> 184 123<-68.8697 656.87>
LayerCount: 2
Fore
SplineSet
307 -171.469726562 m 1xe0
 43 -171.469726562 l 1
 43 -68.8697265625 l 1xe0
 184 -68.8697265625 l 1
 184 656.869726562 l 1xd0
 43 656.869726562 l 1
 43 759.469726562 l 1
 307 759.469726562 l 1
 307 -171.469726562 l 1xe0
EndSplineSet
EndChar

StartChar: asciicircum
Encoding: 94 94 85
Width: 449
Flags: W
HStem: 440 291.008
LayerCount: 2
Fore
SplineSet
287.5 731.0078125 m 1
 437.5 440 l 1
 317.2 440 l 1
 225.393554688 639.163476562 l 1
 132.8 440 l 1
 11.5 440 l 1
 161.5 731.0078125 l 1
 287.5 731.0078125 l 1
EndSplineSet
EndChar

StartChar: braceleft
Encoding: 123 123 86
Width: 433
Flags: W
HStem: -171.47 100.596<270.779 383.914> 258.032 113<43 125.222> 658.874 100.596<270.686 383.617>
VStem: 133 123<-57.6035 248.929 379.394 645.603>
LayerCount: 2
Fore
SplineSet
195 314.532226562 m 1
 195 314.532226562 256 289.532226562 256 209.532226562 c 2
 256 209.532226562 256 1.1263671875 256 1.1263671875 c 2
 256 -54.155859375 282.6015625 -70.8736328125 330 -70.8736328125 c 0
 373.443359375 -70.8736328125 383 -65.8736328125 383 -65.8736328125 c 1
 390 -161.469726562 l 1
 390 -161.469726562 353 -171.469726562 293 -171.469726562 c 0
 175.204301075 -171.469726562 133 -117.110332031 133 -24.8697265625 c 2
 133 -24.8697265625 133 196.032226562 133 196.032226562 c 2
 133 243.360351562 114.501953125 258.032226562 78 258.032226562 c 2
 43 258.032226562 l 1
 43 371.032226562 l 1
 78 371.032226562 l 2
 114.501953125 371.032226562 133 385.705078125 133 433.032226562 c 2
 133 612.869726562 l 2
 133 705.107805607 175.204301075 759.469726562 293 759.469726562 c 0
 347.75 759.469726562 390 749.469726562 390 749.469726562 c 1
 383 653.873632812 l 1
 383 653.873632812 366.180664062 658.873632812 329 658.873632812 c 0
 282.2421875 658.873632812 256 642.154882812 256 586.873632812 c 2
 256 419.532226562 l 2
 256 337.53515625 195 314.532226562 195 314.532226562 c 1
EndSplineSet
EndChar

StartChar: grave
Encoding: 96 96 87
Width: 242
Flags: W
HStem: 529 212.008
VStem: 7.5 227
LayerCount: 2
Fore
SplineSet
147.5 529 m 1
 7.5 711.0078125 l 1
 127.5 741.0078125 l 1
 234.5 549 l 1
 147.5 529 l 1
EndSplineSet
EndChar

StartChar: underscore
Encoding: 95 95 88
Width: 564
Flags: W
HStem: -98 98<36.5 527.5>
LayerCount: 2
Fore
SplineSet
527.5 -98 m 1
 36.5 -98 l 1
 36.5 0 l 1
 527.5 0 l 1
 527.5 -98 l 1
EndSplineSet
EndChar

StartChar: dollar
Encoding: 36 36 89
Width: 591
Flags: W
HStem: -105 174.47<238 351> -10 124.712<139.375 374.193> 613.409 125.712<230.514 445.441> 655 174.47<238 351>
VStem: 52.627 145.062<476.374 581.439> 238 113<-105 69.4697 655 829.47> 411.088 138.932<147.593 255.91>
LayerCount: 2
Fore
SplineSet
238 -105 m 1x8e
 238 69.4697265625 l 1
 351 69.4697265625 l 1
 351 -105 l 1
 238 -105 l 1x8e
238 655 m 1x1e
 238 829.469726562 l 1
 351 829.469726562 l 1
 351 655 l 1
 238 655 l 1x1e
EndSplineSet
Refer: 22 83 N 1 0 0 1 0 0 2
EndChar

StartChar: percent
Encoding: 37 37 90
Width: 953
Flags: W
HStem: -9.99805 100.53<665.241 779.906> 0 21G<197.5 325.675> 268.322 100.529<664.565 780.598> 360.143 100.529<177.016 288.906> 638.462 100.53<173.926 289.598> 711.008 20G<630.325 758.5>
VStem: 41.5 110.41<484.648 615.417> 313.16 108.3<484.648 615.417> 532.5 109.41<114.508 245.277> 804.16 108.3<114.508 245.277>
LayerCount: 2
Fore
SplineSet
641.91015625 179.981445312 m 0xa3c0
 641.91015625 115.81081592 678.166339557 90.5322265623 722.48046875 90.5322265623 c 0
 766.308816316 90.5322265623 804.16015625 115.81081592 804.16015625 179.981445312 c 0
 804.16015625 244.765164093 766.308816316 268.322265625 722.48046875 268.322265625 c 0
 678.166339557 268.322265625 641.91015625 244.765164093 641.91015625 179.981445312 c 0xa3c0
532.5 179.981445312 m 0
 532.5 284.052592232 601.817063612 368.8515625 722.48046875 368.8515625 c 0
 843.142890637 368.8515625 912.459960938 284.052592232 912.459960938 179.981445312 c 0
 912.459960938 76.0063373081 843.142890637 -9.998046875 722.48046875 -9.998046875 c 0
 601.817063612 -9.998046875 532.5 76.0063373081 532.5 179.981445312 c 0
151.91015625 550.122070312 m 0
 151.91015625 485.951546863 187.716345233 460.671875 231.48046875 460.671875 c 0
 275.308816316 460.671875 313.16015625 485.951546863 313.16015625 550.122070312 c 0
 313.16015625 614.90477258 275.308816316 638.461914062 231.48046875 638.461914062 c 0x1bc0
 187.716345233 638.461914062 151.91015625 614.90477258 151.91015625 550.122070312 c 0
41.5 550.122070312 m 0
 41.5 654.193217232 110.817063612 738.9921875 231.48046875 738.9921875 c 0
 352.142890637 738.9921875 421.459960938 654.193217232 421.459960938 550.122070312 c 0
 421.459960938 446.146962308 352.142890637 360.142578125 231.48046875 360.142578125 c 0
 110.817063612 360.142578125 41.5 446.146962308 41.5 550.122070312 c 0
EndSplineSet
Refer: 138 8260 N 1 0 0 1 301 0 2
EndChar

StartChar: at
Encoding: 64 64 91
Width: 924
Flags: W
HStem: -159.727 100.508<352.828 647.965> 71.9697 99.6039<389.564 510.408 668.466 761.481> 381.453 97.6234<404.48 522.906> 608.988 98.7383<343.965 611.645>
VStem: 35 105.625<142.908 403.743> 247.842 119.767<194.262 343.605> 546.433 116.402<215.956 333.775> 553.283 64.8217<151.619 350.156> 792.567 96.7201<206.641 437.949>
LayerCount: 2
Fore
SplineSet
367.608398438 263.1546875 m 0xfe80
 367.608398438 203.227483405 395.563710023 171.573632812 448.494335938 171.573632812 c 0
 510.345695223 171.573632812 546.432617188 215.9560142 546.432617188 292.029296875 c 0
 546.432617188 349.781746452 516.139775148 381.452734375 466.934960938 381.452734375 c 0
 404.139444696 381.452734375 367.608398438 337.944119858 367.608398438 263.1546875 c 0xfe80
422.692578125 71.9697265625 m 0
 318.017286922 71.9697265625 247.841796875 146.666648006 247.841796875 258.087109375 c 0
 247.841796875 389.0550073 332.01270827 479.076171875 446.158105469 479.076171875 c 0
 562.201440927 479.076171875 618.104882812 398.757124251 618.104882812 264.92734375 c 0xfd80
 618.104882812 151.619403441 537.443373595 71.9697265625 422.692578125 71.9697265625 c 0
487.713867188 -159.7265625 m 0
 207.397460938 -159.7265625 35 14.611328125 35 268.08984375 c 0
 35 524.041992188 214.398133521 707.7265625 472.920898438 707.7265625 c 0
 716.00303383 707.7265625 889.287109375 561.379882812 889.287109375 321.901367188 c 0
 889.287109375 171.18359375 819.111374469 72.708984375 696.626953125 72.708984375 c 0
 606.757312557 72.708984375 553.283203125 120.982421875 553.283203125 228.081054688 c 0xfd80
 553.283203125 350.15625 592.313476562 476.46484375 592.313476562 476.46484375 c 1
 704.12890625 476.46484375 l 1
 704.12890625 476.46484375 662.834960938 333.775477243 662.834960938 230.977148438 c 0xfe80
 662.834960938 188.140605389 677.008320297 165.534765625 708.330175781 165.534765625 c 0
 753.907047157 165.534765625 792.566992188 198.927807789 792.566992188 324.572265625 c 0
 792.566992188 506.345587232 669.565586905 608.98828125 469.484375 608.98828125 c 0
 268.180700178 608.98828125 140.624804688 478.380069379 140.624804688 271.689257812 c 0
 140.624804688 66.0674470664 262.297079408 -59.21875 501.1796875 -59.21875 c 0
 665.31136574 -59.21875 767.91328125 15.5576171875 767.91328125 15.5576171875 c 1
 805.250976562 -72.2255859375 l 1
 805.250976562 -72.2255859375 701.004882812 -159.7265625 487.713867188 -159.7265625 c 0
EndSplineSet
EndChar

StartChar: numbersign
Encoding: 35 35 92
Width: 767
Flags: W
HStem: 0 21G<109.5 227.014 379.5 497.014> 180.5 101.5<48 684> 432 101.5<83 719> 711.008 20G<269.986 387.5 539.986 657.5>
LayerCount: 2
Fore
SplineSet
83 533.5 m 1
 719 533.5 l 1
 719 432 l 1
 83 432 l 1
 83 533.5 l 1
48 282 m 1
 684 282 l 1
 684 180.5 l 1
 48 180.5 l 1
 48 282 l 1
379.5 0 m 1
 544.5 731.0078125 l 1
 657.5 731.0078125 l 1
 492.5 0 l 1
 379.5 0 l 1
109.5 0 m 1
 274.5 731.0078125 l 1
 387.5 731.0078125 l 1
 222.5 0 l 1
 109.5 0 l 1
EndSplineSet
EndChar

StartChar: braceright
Encoding: 125 125 93
Width: 433
Flags: W
HStem: -171.47 100.596<36.086 155.567> 258.032 113<307.778 390> 658.874 100.596<36.3831 155.689>
VStem: 177 123<-48.3188 248.929 379.394 636.318>
LayerCount: 2
Fore
SplineSet
238 314.532226562 m 1
 238 314.532226562 177 337.53515625 177 419.532226562 c 2
 177 563.473632812 l 2
 177 636.721289062 146.084546233 658.873632812 91 658.873632812 c 0
 53.8193359375 658.873632812 37 653.873632812 37 653.873632812 c 1
 30 749.469726562 l 1
 30 749.469726562 72.25 759.469726562 127 759.469726562 c 0
 254.366599462 759.469726562 300 696.430664062 300 589.469726562 c 2
 300 433.032226562 l 2
 300 385.705078125 318.498046875 371.032226562 355 371.032226562 c 2
 390 371.032226562 l 1
 390 258.032226562 l 1
 355 258.032226562 l 2
 318.498046875 258.032226562 300 243.360351562 300 196.032226562 c 2
 300 -1.4697265625 l 2
 300 -108.43359375 254.366599462 -171.469726562 127 -171.469726562 c 0
 67 -171.469726562 30 -161.469726562 30 -161.469726562 c 1
 37 -65.8736328125 l 1
 37 -65.8736328125 46.556640625 -70.8736328125 90 -70.8736328125 c 0
 145.725190034 -70.8736328125 177 -48.7225830078 177 24.5263671875 c 2
 177 209.532226562 l 2
 177 289.532226562 238 314.532226562 238 314.532226562 c 1
EndSplineSet
EndChar

StartChar: asciitilde
Encoding: 126 126 94
Width: 436
VWidth: 999
Flags: W
HStem: 290 104<231.151 354.136> 339 103<84.513 204.877>
LayerCount: 2
Fore
SplineSet
424.5 355 m 1x80
 424.5 355 375.12295082 290 299 290 c 0x80
 221.461538462 290 195.615384615 339 139 339 c 0
 97.4202898551 339 63.5 298.5 63.5 298.5 c 1
 11.5 388.5 l 1
 11.5 388.5 66.0204918033 442 137 442 c 0x40
 213.307692308 442 245.307692308 394 297 394 c 0
 344.3 394 368.5 430.5 368.5 430.5 c 1
 424.5 355 l 1x80
EndSplineSet
EndChar

StartChar: cent
Encoding: 162 162 95
Width: 492
Flags: W
HStem: -5 189.47<241 346> 105.002 110.062<234.827 419.345> 513.684 112.249<228.923 400.391> 570 159.47<241 346>
VStem: 41.5 133.899<277.592 457.356> 241 105<-5 184.47 570 729.47>
LayerCount: 2
Fore
SplineSet
241 -5 m 1x8c
 241 184.469726562 l 1
 346 184.469726562 l 1
 346 -5 l 1
 241 -5 l 1x8c
241 570 m 1x1c
 241 729.469726562 l 1
 346 729.469726562 l 1
 346 570 l 1
 241 570 l 1x1c
EndSplineSet
Refer: 40 99 N 1 0 0 1 0 115 2
EndChar

StartChar: sterling
Encoding: 163 163 96
Width: 553
Flags: W
HStem: 0 121.6<194.319 523> 286.7 113.9<46.5 434> 615.371 124.091<244.716 450.632>
VStem: 65.8516 147.629<445.718 585.937> 143.324 129.907<213.604 402.1>
LayerCount: 2
Fore
SplineSet
434 286.7 m 1xe0
 46.5 286.7 l 1
 46.5 400.6 l 1
 434 400.6 l 1
 434 286.7 l 1xe0
523 0 m 1
 30 0 l 1
 30 112 l 1
 30 112 143.32421875 187.513671875 143.32421875 296.379882812 c 0xe8
 143.32421875 395.813097549 65.8515625 421.670965514 65.8515625 547.185546875 c 0
 65.8515625 671.3984375 160.667042764 739.461914062 302.80859375 739.461914062 c 0
 440.292351283 739.461914062 501.70703125 703.405273438 501.70703125 703.405273438 c 1
 474.9375 583.774414062 l 1
 474.9375 583.774414062 409.877929688 615.37109375 337.80859375 615.37109375 c 0
 268.704454253 615.37109375 213.480078125 600.029817933 213.480078125 522.524414062 c 0xf0
 213.480078125 442.122498687 273.231445312 408.387214799 273.231445312 300.658203125 c 0xe8
 273.231445312 189.705449735 194.319335938 121.6 194.319335938 121.6 c 1
 523 121.6 l 1
 523 0 l 1
EndSplineSet
EndChar

StartChar: yen
Encoding: 165 165 97
Width: 649
Flags: W
HStem: 0 21G<253 396> 175 86<92.5 556.5> 305 96.5<253 396> 305 86<92.5 259 390 556.5> 322 69<259 390> 711.008 20G<26.5 189.399 459.601 622.5>
VStem: 253 143<0 401.5>
LayerCount: 2
Fore
SplineSet
259 322 m 1xce
 26.5 731.0078125 l 1
 179.3 731.0078125 l 1
 324.5 443.466015625 l 1
 469.7 731.0078125 l 1
 622.5 731.0078125 l 1
 390 322 l 1
 259 322 l 1xce
253 0 m 1
 253 401.5 l 1
 396 401.5 l 1xe6
 396 0 l 1
 253 0 l 1
556.5 175 m 1
 92.5 175 l 1
 92.5 261 l 1
 556.5 261 l 1
 556.5 175 l 1
556.5 305 m 1xd6
 92.5 305 l 1
 92.5 391 l 1
 556.5 391 l 1
 556.5 305 l 1xd6
EndSplineSet
EndChar

StartChar: currency
Encoding: 164 164 98
Width: 513
Flags: W
HStem: 156.724 109.462<203.856 311.473> 448.006 109.649<203.877 311.493>
VStem: 52.6113 117.849<290.235 423.598> 342.54 117.849<293.438 423.598>
LayerCount: 2
Fore
SplineSet
311.739257812 213.436523438 m 1
 407.389648438 246.325195312 l 1
 501.759765625 124.765625 l 1
 382.580078125 66.1455078125 l 1
 311.739257812 213.436523438 l 1
201.520507812 213.436523438 m 1
 130.6796875 66.1455078125 l 1
 11.5 124.765625 l 1
 105.870117188 246.325195312 l 1
 201.520507812 213.436523438 l 1
311.739257812 497.74609375 m 1
 382.580078125 645.036132812 l 1
 501.759765625 586.416015625 l 1
 407.389648438 464.856445312 l 1
 311.739257812 497.74609375 l 1
201.520507812 497.74609375 m 1
 105.870117188 464.856445312 l 1
 11.5 586.416015625 l 1
 130.6796875 645.036132812 l 1
 201.520507812 497.74609375 l 1
170.459960938 359.283203125 m 0
 170.459960938 303.457526128 195.92937513 266.185546875 255.5 266.185546875 c 0
 316.472080737 266.185546875 342.540039062 303.457526128 342.540039062 359.283203125 c 0
 342.540039062 412.485902992 316.505250079 448.005859375 255.611328125 448.005859375 c 0
 195.962543446 448.005859375 170.459960938 412.485902992 170.459960938 359.283203125 c 0
52.611328125 359.283203125 m 0
 52.611328125 479.317382812 129.379882812 557.655273438 255.5 557.655273438 c 0
 382.86328125 557.655273438 460.388671875 479.317382812 460.388671875 359.283203125 c 0
 460.388671875 236.715820312 382.86328125 156.723632812 255.5 156.723632812 c 0
 129.379882812 156.723632812 52.611328125 236.715820312 52.611328125 359.283203125 c 0
EndSplineSet
EndChar

StartChar: brokenbar
Encoding: 166 166 99
Width: 249
Flags: W
VStem: 61.5 126<-171.47 239 339 759.47>
LayerCount: 2
Fore
SplineSet
61.5 -171.469726562 m 1
 61.5 239 l 1
 187.5 239 l 1
 187.5 -171.469726562 l 1
 61.5 -171.469726562 l 1
61.5 339 m 1
 61.5 759.469726562 l 1
 187.5 759.469726562 l 1
 187.5 339 l 1
 61.5 339 l 1
EndSplineSet
EndChar

StartChar: section
Encoding: 167 167 100
Width: 593
Flags: W
HStem: -19.6709 104.891<169.702 336.325> 649.712 104.891<256.932 423.555>
VStem: 36.2613 124.359<344.835 429.705> 110.412 132.182<548.388 635.311> 350.663 132.182<99.621 187.494> 432.636 124.359<304.559 387.444>
LayerCount: 2
Fore
SplineSet
178.093017578 522.153320312 m 1xe8
 242.901611328 459.951171875 l 1
 242.901611328 459.951171875 160.620361328 445.112304688 160.620361328 382.393554688 c 0
 160.620361328 350.247648605 189.971018997 324.328917519 301.152001953 312.262792969 c 0
 439.230551591 297.386245074 482.844970703 228.395183655 482.844970703 145.370117188 c 0
 482.844970703 42.560546875 408.051953125 -19.6708984375 285.179296875 -19.6708984375 c 0
 172.464453125 -19.6708984375 117.647705078 19.734375 117.647705078 19.734375 c 1
 149.275 116.925195312 l 1
 149.275 116.925195312 199.764892578 85.2197265623 274.182861328 85.2197265623 c 0
 326.93828125 85.2197265623 350.662890625 107.487060547 350.662890625 143.393359375 c 0
 350.662890625 173.197822447 333.959274831 202.881116994 257.724267578 208.437353516 c 0
 83.0173713328 223.259277344 36.261328125 288.837109929 36.261328125 362.309570312 c 0
 36.261328125 481.31328125 178.093017578 522.153320312 178.093017578 522.153320312 c 1xe8
402.163671875 199.778320312 m 1
 350.355078125 274.98046875 l 1
 350.355078125 274.98046875 432.636328125 289.819335938 432.636328125 347.638330078 c 0
 432.636328125 384.455701884 401.681103278 407.464697265 286.949121094 422.470800781 c 0
 153.225143104 439.98176357 110.41171875 506.437933381 110.41171875 589.561523438 c 0
 110.41171875 692.37109375 185.204736328 754.602539062 308.077392578 754.602539062 c 0
 420.792236328 754.602539062 475.608984375 715.197265625 475.608984375 715.197265625 c 1
 443.981689453 618.006445312 l 1
 443.981689453 618.006445312 393.49243164 649.711914062 319.073828125 649.711914062 c 0
 266.318408203 649.711914062 242.593798828 627.444580078 242.593798828 591.53828125 c 0
 242.593798828 560.982519752 258.762219683 535.081393128 340.054492188 524.8546875 c 0
 507.914091108 503.666064453 556.995361328 442.167445259 556.995361328 366.772070312 c 0xd4
 556.995361328 243.290087891 402.163671875 199.778320312 402.163671875 199.778320312 c 1
EndSplineSet
EndChar

StartChar: dieresis
Encoding: 168 168 101
Width: 459
Flags: W
HStem: 585.543 153.449<69.1513 179.848 279.151 389.848>
VStem: 48.3867 152.227<606.475 718.06> 258.387 152.227<606.475 718.06>
LayerCount: 2
Fore
SplineSet
258.38671875 662.267578125 m 0
 258.38671875 708.748586964 288.388248431 738.9921875 334.499023438 738.9921875 c 0
 380.610804162 738.9921875 410.61328125 708.748586964 410.61328125 662.267578125 c 0
 410.61328125 615.785729536 380.610804162 585.54296875 334.499023438 585.54296875 c 0
 288.388248431 585.54296875 258.38671875 615.785729536 258.38671875 662.267578125 c 0
48.38671875 662.267578125 m 0
 48.38671875 708.748586964 78.3882484312 738.9921875 124.499023438 738.9921875 c 0
 170.610804161 738.9921875 200.61328125 708.748586964 200.61328125 662.267578125 c 0
 200.61328125 615.785729536 170.610804161 585.54296875 124.499023438 585.54296875 c 0
 78.3882484311 585.54296875 48.38671875 615.785729536 48.38671875 662.267578125 c 0
EndSplineSet
EndChar

StartChar: copyright
Encoding: 169 169 102
Width: 797
Flags: W
HStem: -9.99805 96.8574<280.467 517.31> 177.281 89.9814<367.578 523.546> 461.86 89.9814<367.578 504.975> 642.264 96.8574<280.467 517.31>
VStem: 35 99.8965<234.56 494.563> 230.207 108.174<295.12 434.004> 662.881 99.8965<234.56 494.563>
LayerCount: 2
Fore
SplineSet
230.20703125 364.561523438 m 0
 230.20703125 477.88408452 294.331136039 551.841796875 417.701367188 551.841796875 c 0
 500.5421875 551.841796875 540.597851562 518.7265625 540.597851562 518.7265625 c 1
 509.934765625 436.099609375 l 1
 509.934765625 436.099609375 488.60859375 461.860351562 433.201367188 461.860351562 c 0
 364.184439042 461.860351562 338.380859375 422.907525295 338.380859375 364.561523438 c 0
 338.380859375 306.215521581 364.184439042 267.262695312 433.201367188 267.262695312 c 0
 493.06171875 267.262695312 518.765820312 290.328125 518.765820312 290.328125 c 1
 542.170117188 204.578125 l 1
 542.170117188 204.578125 499.982617188 177.28125 417.701367188 177.28125 c 0
 294.331136039 177.28125 230.20703125 251.238962356 230.20703125 364.561523438 c 0
134.896484375 364.561523438 m 0
 134.896484375 198.03653956 213.960817462 86.859375 398.888671875 86.859375 c 0
 583.816526288 86.859375 662.880859375 198.03653956 662.880859375 364.561523438 c 0
 662.880859375 531.086507315 583.816526288 642.263671875 398.888671875 642.263671875 c 0
 213.960817462 642.263671875 134.896484375 531.086507315 134.896484375 364.561523438 c 0
35 364.561523438 m 0
 35 591.206054688 172.688476562 739.12109375 398.888671875 739.12109375 c 0
 625.088867188 739.12109375 762.77734375 591.206054688 762.77734375 364.561523438 c 0
 762.77734375 137.916992188 625.088867188 -9.998046875 398.888671875 -9.998046875 c 0
 172.688476562 -9.998046875 35 137.916992188 35 364.561523438 c 0
EndSplineSet
EndChar

StartChar: registered
Encoding: 174 174 103
Width: 797
Flags: W
HStem: -9.99805 96.8574<280.467 517.31> 310.752 70.4258<300.15 433.936> 474.826 73.4297<346.9 446.377> 642.264 96.8574<280.467 517.31>
VStem: 35 99.8965<234.56 494.563> 248.65 98.25<182.752 310.752 381.178 474.826> 300.15 46.75<310.752 381.178> 454.365 95.6738<388.748 466.389> 662.881 99.8965<234.56 494.563>
LayerCount: 2
Fore
SplineSet
300.15 381.177734375 m 1xfb80
 390.444335938 381.232421875 l 2
 427.038733149 381.252653287 454.36484375 389.557762175 454.36484375 427.533203125 c 0
 454.36484375 465.942251725 427.038728848 474.741449901 390.444335938 474.775390625 c 2
 346.9 474.826171875 l 1
 346.9 182.751953125 l 1
 248.65 182.751953125 l 1
 248.65 548.255859375 l 1xfd80
 409.094335938 548.255859375 l 2
 483.252050781 548.255859375 550.038671875 516.888482315 550.038671875 433.083203125 c 0
 550.038671875 362.703768251 489.99375 341.890625 489.99375 341.890625 c 1
 489.99375 341.890625 517.948810448 331.488757338 537.0015625 271.451171875 c 2
 565.15 182.751953125 l 1
 465.4 182.751953125 l 1
 442.9 265.251953125 l 2
 431.28654993 307.834603382 419.243748542 310.751953125 385.75 310.751953125 c 2
 300.15 310.751953125 l 1
 300.15 381.177734375 l 1xfb80
134.896484375 364.561523438 m 0
 134.896484375 198.03653956 213.960817462 86.859375 398.888671875 86.859375 c 0
 583.816526288 86.859375 662.880859375 198.03653956 662.880859375 364.561523438 c 0
 662.880859375 531.086507315 583.816526288 642.263671875 398.888671875 642.263671875 c 0
 213.960817462 642.263671875 134.896484375 531.086507315 134.896484375 364.561523438 c 0
35 364.561523438 m 0
 35 591.206054688 172.688476562 739.12109375 398.888671875 739.12109375 c 0
 625.088867188 739.12109375 762.77734375 591.206054688 762.77734375 364.561523438 c 0
 762.77734375 137.916992188 625.088867188 -9.998046875 398.888671875 -9.998046875 c 0
 172.688476562 -9.998046875 35 137.916992188 35 364.561523438 c 0
EndSplineSet
EndChar

StartChar: uni2117
Encoding: 8471 8471 104
Width: 797
Flags: W
HStem: -9.99805 96.8574<280.467 517.31> 286.752 72.1758<316.294 463.741> 473.426 74.8297<355.894 461.887> 642.264 96.8574<280.467 517.31>
VStem: 35 99.8965<234.56 494.563> 257.644 98.25<182.752 286.752 358.928 473.426> 316.294 39.6<286.752 358.928> 473.709 94.3738<371.212 461.297> 662.881 99.8965<234.56 494.563>
LayerCount: 2
Fore
SplineSet
316.294335938 286.751953125 m 1xfb80
 316.294335938 358.927734375 l 1xfb80
 399.538671875 358.982421875 l 2
 442.001228222 359.014158684 473.709179688 369.24093499 473.709179688 416.033203125 c 0
 473.709179688 462.654065038 442.001212264 473.31464834 399.538671875 473.375390625 c 2
 355.894335938 473.426171875 l 1
 355.894335938 182.751953125 l 1
 257.644335938 182.751953125 l 1
 257.644335938 548.255859375 l 1xfd80
 414.038671875 548.255859375 l 2
 495.088863721 548.255859375 568.083007812 512.244978898 568.083007812 416.033203125 c 0
 568.083007812 321.475395761 498.334546605 286.751953125 421.838671875 286.751953125 c 2
 316.294335938 286.751953125 l 1xfb80
134.896484375 364.561523438 m 0
 134.896484375 198.03653956 213.960817462 86.859375 398.888671875 86.859375 c 0
 583.816526288 86.859375 662.880859375 198.03653956 662.880859375 364.561523438 c 0
 662.880859375 531.086507315 583.816526288 642.263671875 398.888671875 642.263671875 c 0
 213.960817462 642.263671875 134.896484375 531.086507315 134.896484375 364.561523438 c 0
35 364.561523438 m 0
 35 591.206054688 172.688476562 739.12109375 398.888671875 739.12109375 c 0
 625.088867188 739.12109375 762.77734375 591.206054688 762.77734375 364.561523438 c 0
 762.77734375 137.916992188 625.088867188 -9.998046875 398.888671875 -9.998046875 c 0
 172.688476562 -9.998046875 35 137.916992188 35 364.561523438 c 0
EndSplineSet
EndChar

StartChar: guillemotleft
Encoding: 171 171 105
Width: 590
Flags: W
LayerCount: 2
Fore
SplineSet
41.5 281 m 1
 181.5 441 l 1
 315.5 441 l 1
 162.25 254 l 1
 315.5 67 l 1
 181.5 67 l 1
 41.5 227 l 1
 41.5 281 l 1
291.5 281 m 1
 431.5 441 l 1
 565.5 441 l 1
 412.25 254 l 1
 565.5 67 l 1
 431.5 67 l 1
 291.5 227 l 1
 291.5 281 l 1
EndSplineSet
EndChar

StartChar: guillemotright
Encoding: 187 187 106
Width: 590
Flags: W
LayerCount: 2
Fore
SplineSet
548.5 227 m 1
 408.5 67 l 1
 274.5 67 l 1
 427.75 254 l 1
 274.5 441 l 1
 408.5 441 l 1
 548.5 281 l 1
 548.5 227 l 1
298.5 227 m 1
 158.5 67 l 1
 24.5 67 l 1
 177.75 254 l 1
 24.5 441 l 1
 158.5 441 l 1
 298.5 281 l 1
 298.5 227 l 1
EndSplineSet
EndChar

StartChar: mu
Encoding: 181 181 107
Width: 595
Flags: W
HStem: -9.92285 107.899<227.399 358.474> 0 21G<401.277 534.277> 481.011 20G<61.5 194.5 401.277 534.277>
VStem: 61.5 133<196.449 501.011> 101.5 93<56.9261 321.011> 401.277 133<207.449 501.011>
LayerCount: 2
Fore
SplineSet
61.5 -180 m 1x34
 61.5 501.010742188 l 1
 194.5 501.010742188 l 1x34
 194.5 -180 l 1x2c
 61.5 -180 l 1x34
401.27734375 217.010742188 m 9
 459.77734375 207.44921875 l 17
 438.60371698 57.0107421877 381.54122747 -9.9228515625 263.27734375 -9.9228515625 c 0
 163.3510401 -9.9228515625 101.5 56.9260601597 101.5 196.44921875 c 2
 101.5 321.010742188 l 1xac
 194.5 321.010742188 l 1
 194.5 213.44921875 l 2
 194.5 140.301130317 224.992032177 97.9765625 296.77734375 97.9765625 c 0xb4
 369.98020465 97.9765625 401.27734375 145.631477729 401.27734375 217.010742188 c 9
534.27734375 501.010742188 m 1
 534.27734375 0 l 1
 401.27734375 0 l 1x64
 401.27734375 501.010742188 l 1
 534.27734375 501.010742188 l 1
EndSplineSet
EndChar

StartChar: acute
Encoding: 180 180 108
Width: 242
Flags: W
HStem: 529 212.008
VStem: 7.5 227
LayerCount: 2
Fore
SplineSet
94.5 529 m 1
 7.5 549 l 1
 114.5 741.0078125 l 1
 234.5 711.0078125 l 1
 94.5 529 l 1
EndSplineSet
EndChar

StartChar: macron
Encoding: 175 175 109
Width: 374
Flags: W
HStem: 623.008 108<36.5 337.5>
VStem: 36.5 301<623.008 731.008>
LayerCount: 2
Fore
SplineSet
337.5 623.0078125 m 1
 36.5 623.0078125 l 1
 36.5 731.0078125 l 1
 337.5 731.0078125 l 1
 337.5 623.0078125 l 1
EndSplineSet
EndChar

StartChar: uni00AD
Encoding: 173 173 110
Width: 354
Flags: W
HStem: 221.35 116.3<43 311>
VStem: 43 268<221.35 337.65>
LayerCount: 2
Fore
SplineSet
311 221.35 m 1
 43 221.35 l 1
 43 337.65 l 1
 311 337.65 l 1
 311 221.35 l 1
EndSplineSet
EndChar

StartChar: logicalnot
Encoding: 172 172 111
Width: 450
Flags: W
HStem: 304.75 106.5<30 299.75>
VStem: 299.75 110.5<165 304.75>
LayerCount: 2
Fore
SplineSet
410.25 165 m 1
 299.75 165 l 1
 299.75 304.75 l 1
 30 304.75 l 1
 30 411.25 l 1
 410.25 411.25 l 1
 410.25 165 l 1
EndSplineSet
EndChar

StartChar: minus
Encoding: 8722 8722 112
Width: 450
Flags: W
HStem: 304.75 106.5<30 420>
LayerCount: 2
Fore
SplineSet
420 304.75 m 1
 30 304.75 l 1
 30 411.25 l 1
 420 411.25 l 1
 420 304.75 l 1
EndSplineSet
EndChar

StartChar: notequal
Encoding: 8800 8800 113
Width: 450
Flags: W
HStem: 224.75 96.5<30 420> 394.75 96.5<30 420>
LayerCount: 2
Fore
SplineSet
63 108.530273438 m 1
 268 601.403320312 l 1
 381 601.403320312 l 1
 176 108.530273438 l 1
 63 108.530273438 l 1
EndSplineSet
Refer: 52 61 N 1 0 0 1 0 0 2
EndChar

StartChar: partialdiff
Encoding: 8706 8706 114
Width: 620
Flags: W
HStem: -9.99805 117.739<215.342 369.878> 366.041 104.559<229.226 383.777> 614.47 124.523<193.204 370.393>
VStem: 41.5 133.367<148.811 310.976> 448.561 130.104<418.697 519.757>
LayerCount: 2
Fore
SplineSet
423.666601562 246.890625 m 0
 423.666601562 315.757138761 390.392529714 366.040625 309.766601562 366.040625 c 0
 214.275326901 366.040625 174.866601562 307.316771789 174.866601562 226.890625 c 0
 174.866601562 158.024111239 208.432669327 107.740625 289.766601562 107.740625 c 0
 384.54984809 107.740625 423.666601562 166.464478211 423.666601562 246.890625 c 0
448.561328125 418.697070312 m 1
 442.707440924 545.62961745 390.87198931 614.46953125 288.38671875 614.46953125 c 0
 206.427093217 614.46953125 161.845898438 573.388671875 161.845898438 573.388671875 c 1
 109.741210938 688.860351562 l 1
 109.741210938 688.860351562 172.325600075 738.9921875 295.8671875 738.9921875 c 0
 477.655682507 738.9921875 578.665039062 612.671898034 578.665039062 385.331054688 c 0
 578.665039062 105.516837439 470.822174071 -9.998046875 288.8671875 -9.998046875 c 0
 135.460543839 -9.998046875 41.5 75.5176128099 41.5 229 c 0
 41.5 372.20164401 138.622179477 470.599609375 291.901367188 470.599609375 c 0
 410.514674727 470.599609375 448.561328125 418.697070312 448.561328125 418.697070312 c 1
EndSplineSet
EndChar

StartChar: emptyset
Encoding: 8709 8709 115
Width: 797
Flags: W
HStem: -9.99805 109.462<317.494 517.567> 629.659 109.462<280.21 488.32>
VStem: 35 111.849<237.561 491.562> 650.929 111.849<237.561 491.562>
LayerCount: 2
Fore
SplineSet
146.848632812 364.561523438 m 0
 146.848632812 205.594781592 222.333151104 99.4638671877 398.888671875 99.4638671877 c 0
 575.444192646 99.4638671877 650.928710938 205.594781592 650.928710938 364.561523438 c 0
 650.928710938 523.52826528 575.444192646 629.659179688 398.888671875 629.659179688 c 0
 222.333151104 629.659179688 146.848632812 523.52826528 146.848632812 364.561523438 c 0
35 364.561523438 m 0
 35 591.206054688 172.688476562 739.12109375 398.888671875 739.12109375 c 0
 625.088867188 739.12109375 762.77734375 591.206054688 762.77734375 364.561523438 c 0
 762.77734375 137.916992188 625.088867188 -9.998046875 398.888671875 -9.998046875 c 0
 172.688476562 -9.998046875 35 137.916992188 35 364.561523438 c 0
108 -90.873046875 m 1
 573 812 l 1
 689 812 l 1
 224 -90.873046875 l 1
 108 -90.873046875 l 1
EndSplineSet
EndChar

StartChar: Delta
Encoding: 8710 8710 116
Width: 719
Flags: W
HStem: 0 132.6<197.75 521.25> 711.008 20G<270.226 439.103>
LayerCount: 2
Fore
SplineSet
677.5 0 m 1
 41.5 0 l 1
 41.5 122.6 l 1
 278 731.0078125 l 1
 431 731.0078125 l 1
 677.5 122.6 l 1
 677.5 0 l 1
521.25 132.6 m 1
 355.393554688 572.813476562 l 1
 197.75 132.6 l 1
 521.25 132.6 l 1
EndSplineSet
EndChar

StartChar: plusminus
Encoding: 177 177 117
Width: 450
Flags: W
HStem: 150.6 96.5<30 171.75 278.25 420> 160.85 86.25<171.75 278.25> 338.9 106.5<30 420>
VStem: 171.75 106.5<160.85 562.15>
LayerCount: 2
Fore
SplineSet
420 150.6 m 1xb0
 30 150.6 l 1
 30 247.1 l 1
 420 247.1 l 1
 420 150.6 l 1xb0
171.75 160.85 m 1x70
 171.75 562.15 l 1
 278.25 562.15 l 1
 278.25 160.85 l 1
 171.75 160.85 l 1x70
420 338.9 m 1
 30 338.9 l 1
 30 445.4 l 1
 420 445.4 l 1
 420 338.9 l 1
EndSplineSet
EndChar

StartChar: degree
Encoding: 176 176 118
Width: 431
Flags: W
HStem: 400.07 95.9764<159.121 271.676> 664.838 96.1639<159.137 271.692>
VStem: 33.25 104.912<517.202 643.933> 293.615 104.912<517.85 643.29>
LayerCount: 2
Fore
SplineSet
138.162109375 580.854492188 m 0
 138.162109375 529.999553919 161.111018648 496.046679688 214.786132812 496.046679688 c 0
 270.00623768 496.046679688 293.615234375 529.999553919 293.615234375 580.854492188 c 0
 293.615234375 631.215544946 270.043414009 664.838085938 214.909179688 664.838085938 c 0
 161.148197004 664.838085938 138.162109375 631.215544946 138.162109375 580.854492188 c 0
33.25 580.629882812 m 0
 33.25 689.772696384 101.978198541 761.001953125 214.888671875 761.001953125 c 0
 329.042309804 761.001953125 398.52734375 689.772696384 398.52734375 580.629882812 c 0
 398.52734375 471.374251811 329.042309804 400.0703125 214.888671875 400.0703125 c 0
 101.978198541 400.0703125 33.25 471.374251811 33.25 580.629882812 c 0
EndSplineSet
EndChar

StartChar: cedilla
Encoding: 184 184 120
Width: 317
VWidth: 999
Flags: W
HStem: -255 75<48.568 183.527> -89.5 68.5<138.816 186.884>
VStem: 191 96<-164.176 -94.5094>
LayerCount: 2
Fore
SplineSet
287 -131 m 0
 287 -209.970703125 237.749023438 -255 146 -255 c 0
 86.9715887662 -255 33.9 -232 33.9 -232 c 1
 54 -159 l 1
 54 -159 83.103515625 -180 130 -180 c 0
 175.37520345 -180 191 -161.68869299 191 -132.6 c 0
 191 -103.316360294 174.293681898 -89.5 147.15 -89.5 c 0
 115.89149414 -89.5 105 -111 105 -111 c 1
 47 -92 l 1
 69 39 l 1
 150.55 39 l 1
 138.735351562 -31.153515625 l 1
 138.735351562 -31.153515625 150.888706307 -21 184.05 -21 c 0
 247.828869508 -21 287 -62.5234375 287 -131 c 0
EndSplineSet
EndChar

StartChar: paragraph
Encoding: 182 182 121
Width: 682
Flags: W
HStem: 622.392 108.6<405.889 492.389>
VStem: 36.5 369.389<393.837 606.32> 283.389 122.5<-179.994 284.637> 492.389 122.5<-179.994 622.392>
LayerCount: 2
Fore
SplineSet
405.888671875 -179.994140625 m 1xb0
 283.388671875 -179.994140625 l 1
 283.388671875 282.9921875 l 1xb0
 145.530075101 292.9921875 36.5 337.833007812 36.5 499.432617188 c 0xd0
 36.5 667.032226562 148.5 730.9921875 290.388671875 730.9921875 c 2
 614.888671875 730.9921875 l 1
 614.888671875 -179.994140625 l 1
 492.388671875 -179.994140625 l 1
 492.388671875 622.3921875 l 1
 405.888671875 622.3921875 l 1
 405.888671875 -179.994140625 l 1xb0
EndSplineSet
EndChar

StartChar: ordfeminine
Encoding: 170 170 122
Width: 402
Flags: W
HStem: 369.992 76.6<129.29 232.966 300.449 385.273> 532.692 63.25<133.905 256> 657.592 81.4<89.1379 229.345>
VStem: 26.5 99.1<452.362 519.583> 244 96.9<460.383 486.992 586.442 641.2> 244 37<414.692 481.742> 244 12<532.692 595.942>
LayerCount: 2
Fore
SplineSet
244 496.7421875 m 1xf2
 244 466.418931686 216.703703704 446.5921875 177 446.5921875 c 0
 140.643902439 446.5921875 125.6 461.611542338 125.6 485.3921875 c 0
 125.6 524.0921875 157.285981308 532.6921875 256 532.6921875 c 1
 256 595.9421875 l 1xf2
 122.210762332 595.9421875 26.5 579.67778072 26.5 475.9921875 c 0
 26.5 411.9921875 72.5 369.9921875 146.5 369.9921875 c 0
 237.91796875 369.9921875 281 414.6921875 281 481.7421875 c 1xf4
 244 496.7421875 l 1xf2
244 586.4421875 m 2xf8
 244 459.9921875 l 2xf4
 244 398.9921875 271.99893617 369.9921875 328.9 369.9921875 c 0
 370.308450704 369.9921875 390.15 386.9921875 390.15 386.9921875 c 1
 384.15 454.9921875 l 1
 384.15 454.9921875 375.952631579 450.9921875 361.9 450.9921875 c 0
 346.9 450.9921875 340.9 460.383491848 340.9 486.9921875 c 2
 340.9 595.9921875 l 2
 340.9 682.197861259 295.398125 738.9921875 186 738.9921875 c 0
 106.853571429 738.9921875 52.5 705.9921875 52.5 705.9921875 c 1
 80.5 630.3421875 l 1
 80.5 630.3421875 117.079310345 657.5921875 168.9 657.5921875 c 0
 220.98548387 657.5921875 244 635.788155242 244 586.4421875 c 2xf8
EndSplineSet
EndChar

StartChar: ordmasculine
Encoding: 186 186 123
Width: 418
Flags: W
HStem: 367.992 89.8<153.613 264.791> 649.192 89.8<153.613 264.557>
VStem: 29.5 99.1<481.997 624.461> 289.4 99.1<481.997 624.461>
LayerCount: 2
Fore
SplineSet
128.6 554.9921875 m 0
 128.6 495.884079391 152.72 457.7921875 209 457.7921875 c 0
 266.428571429 457.7921875 289.4 495.884079391 289.4 554.9921875 c 0
 289.4 610.716131162 265.28 649.1921875 209 649.1921875 c 0
 152.72 649.1921875 128.6 610.716131162 128.6 554.9921875 c 0
29.5 555.9921875 m 0
 29.5 667.025895365 98.0188172044 738.9921875 209 738.9921875 c 0
 320.946236559 738.9921875 388.5 667.025895365 388.5 555.9921875 c 0
 388.5 441.959400615 320.946236559 367.9921875 209 367.9921875 c 0
 98.0188172044 367.9921875 29.5 441.959400615 29.5 555.9921875 c 0
EndSplineSet
EndChar

StartChar: arrowleft
Encoding: 8592 8592 124
Width: 550
Flags: W
HStem: 296.14 125<254.599 537.749> 306.14 105<133.249 416.399>
LayerCount: 2
Fore
SplineSet
537.749023438 296.139648438 m 1x80
 133.249023438 306.139648438 l 1
 133.249023438 411.139648438 l 1x40
 537.749023438 421.139648438 l 1
 537.749023438 296.139648438 l 1x80
144.561523438 358.638671875 m 1
 311.348632812 210.6171875 l 1
 224.510742188 123.779296875 l 1
 12.2509765625 358.638671875 l 1
 224.510742188 593.5 l 1
 311.348632812 506.66015625 l 1
 144.561523438 358.638671875 l 1
EndSplineSet
EndChar

StartChar: product
Encoding: 8719 8719 128
Width: 719
Flags: W
HStem: 607.758 123.25<204.5 514.5>
VStem: 61.5 143<-179.994 607.758> 514.5 143<-179.994 607.758>
LayerCount: 2
Fore
SplineSet
657.5 731.0078125 m 1
 657.5 -179.994140625 l 1
 514.5 -179.994140625 l 1
 514.5 607.7578125 l 1
 204.5 607.7578125 l 1
 204.5 -179.994140625 l 1
 61.5 -179.994140625 l 1
 61.5 731.0078125 l 1
 657.5 731.0078125 l 1
EndSplineSet
EndChar

StartChar: summation
Encoding: 8721 8721 129
Width: 634
Flags: W
HStem: -179.994 122.6<217.35 597.5> 608.408 122.6<237.35 597.5>
LayerCount: 2
Back
SplineSet
264 585.0078125 m 5
 394 410 l 5
 394 319 l 5
 244 146 l 5
 544 146 l 5
 544 0 l 5
 55 0 l 5
 55 161 l 5
 235 358 l 5
 55 589 l 5
 55 731.0078125 l 5
 544 731.0078125 l 5
 544 585.0078125 l 5
 264 585.0078125 l 5
EndSplineSet
Fore
SplineSet
237.35 608.4078125 m 1
 433.35 330 l 1
 433.35 239 l 1
 217.35 -57.394140625 l 1
 597.5 -57.394140625 l 1
 597.5 -179.994140625 l 1
 61.5 -179.994140625 l 1
 61.5 -42.394140625 l 1
 301 278 l 1
 61.5 612.4 l 1
 61.5 731.0078125 l 1
 597.5 731.0078125 l 1
 597.5 608.4078125 l 1
 237.35 608.4078125 l 1
EndSplineSet
EndChar

StartChar: approxequal
Encoding: 8776 8776 130
Width: 450
VWidth: 999
Flags: W
HStem: 190 104<238.722 367.571> 239 103<86.497 212.291> 380 104<238.722 367.571> 429 103<86.497 212.291>
LayerCount: 2
Fore
SplineSet
438 255 m 1x80
 438 255 386.065429688 190 306 190 c 0x80
 228.461914062 190 202.615234375 239 146 239 c 0
 102.988405797 239 67.9 201.75 67.9 201.75 c 1
 12 288.5 l 1
 12 288.5 69.3447265625 342 144 342 c 0x40
 221.237616272 342 253.627616272 294 305.95 294 c 0
 355.83 294 381.35 327.9 381.35 327.9 c 1
 438 255 l 1x80
438 445 m 1
 438 445 386.065429688 380 306 380 c 0x20
 228.461914062 380 202.615234375 429 146 429 c 0
 102.988405797 429 67.9 391.75 67.9 391.75 c 1
 12 478.5 l 1
 12 478.5 69.3447265625 532 144 532 c 0x10
 221.237616272 532 253.627616272 484 305.95 484 c 0x20
 355.83 484 381.35 517.9 381.35 517.9 c 1
 438 445 l 1
EndSplineSet
EndChar

StartChar: perthousand
Encoding: 8240 8240 131
Width: 1263
Flags: W
HStem: -9.99805 100.53<667.104 784.019 971.12 1088.03> 0 21G<197.5 325.675> 268.322 100.529<666.4 787.04 970.416 1088.75> 360.143 100.529<177.016 288.906> 638.462 100.53<173.926 289.598> 711.008 20G<630.325 758.5>
VStem: 41.5 110.41<484.648 615.417> 313.16 108.3<484.648 615.417> 532.5 109.41<114.508 245.277> 810.66 134.75<115.811 244.765> 849.25 56.46<76.0066 284.052> 1114.16 108.3<115.24 244.561>
LayerCount: 2
Fore
SplineSet
945.41015625 179.981445312 m 0xa3d0
 945.41015625 115.811067679 983.129296875 90.5322265623 1029.23046875 90.5322265623 c 0
 1074.80280555 90.5322265623 1114.16015625 115.811067679 1114.16015625 179.981445312 c 0
 1114.16015625 244.76529899 1074.80280555 268.322265625 1029.23046875 268.322265625 c 0
 983.129296875 268.322265625 945.41015625 244.76529899 945.41015625 179.981445312 c 0xa3d0
849.25 179.981445312 m 0xa3b0
 849.25 284.052175638 918.566866292 368.8515625 1039.23046875 368.8515625 c 0
 1161.84660286 368.8515625 1222.45996094 284.052175638 1222.45996094 179.981445312 c 0
 1222.45996094 76.006635684 1161.84660286 -9.998046875 1039.23046875 -9.998046875 c 0
 918.566866292 -9.998046875 849.25 76.006635684 849.25 179.981445312 c 0xa3b0
641.91015625 179.981445312 m 0
 641.91015625 115.81081592 679.62882111 90.5322265623 725.73046875 90.5322265623 c 0
 771.30272761 90.5322265623 810.66015625 115.81081592 810.66015625 179.981445312 c 0xa3d0
 810.66015625 244.765164093 771.30272761 268.322265625 725.73046875 268.322265625 c 0
 679.62882111 268.322265625 641.91015625 244.765164093 641.91015625 179.981445312 c 0
532.5 179.981445312 m 0
 532.5 284.052592232 593.113363709 368.8515625 715.73046875 368.8515625 c 0
 836.393106433 368.8515625 905.709960938 284.052175638 905.709960938 179.981445312 c 0xa3b0
 905.709960938 76.006635684 836.393106433 -9.998046875 715.73046875 -9.998046875 c 0
 593.113363709 -9.998046875 532.5 76.0063373081 532.5 179.981445312 c 0
151.91015625 550.122070312 m 0
 151.91015625 485.951546863 187.716345233 460.671875 231.48046875 460.671875 c 0
 275.308816316 460.671875 313.16015625 485.951546863 313.16015625 550.122070312 c 0
 313.16015625 614.90477258 275.308816316 638.461914062 231.48046875 638.461914062 c 0x1b90
 187.716345233 638.461914062 151.91015625 614.90477258 151.91015625 550.122070312 c 0
41.5 550.122070312 m 0
 41.5 654.193217232 110.817063612 738.9921875 231.48046875 738.9921875 c 0
 352.142890637 738.9921875 421.459960938 654.193217232 421.459960938 550.122070312 c 0
 421.459960938 446.146962308 352.142890637 360.142578125 231.48046875 360.142578125 c 0
 110.817063612 360.142578125 41.5 446.146962308 41.5 550.122070312 c 0
EndSplineSet
Refer: 138 8260 N 1 0 0 1 301 0 2
EndChar

StartChar: uni2031
Encoding: 8241 8241 132
Width: 1573
Flags: W
HStem: -9.99805 100.53<667.104 784.019 973.501 1091.64 1281.12 1398.03> 0 21G<197.5 325.675> 268.322 100.529<666.4 787.04 972.797 1092.36 1280.42 1398.75> 360.143 100.529<177.016 288.906> 638.462 100.53<173.926 289.598> 711.008 20G<630.325 758.5>
VStem: 41.5 110.41<484.648 615.417> 313.16 108.3<484.648 615.417> 532.5 109.41<114.508 245.277> 810.66 138<115.811 244.765> 846 59.71<76.0066 284.052> 1117.41 138<115.811 244.765> 1159.25 59.71<76.0066 284.052> 1424.16 108.3<115.24 244.561>
LayerCount: 2
Fore
SplineSet
1255.41015625 179.981445312 m 0xa394
 1255.41015625 115.811067679 1293.12929688 90.5322265623 1339.23046875 90.5322265623 c 0
 1384.80280555 90.5322265623 1424.16015625 115.811067679 1424.16015625 179.981445312 c 0
 1424.16015625 244.76529899 1384.80280555 268.322265625 1339.23046875 268.322265625 c 0
 1293.12929688 268.322265625 1255.41015625 244.76529899 1255.41015625 179.981445312 c 0xa394
1159.25 179.981445312 m 0xa38c
 1159.25 284.052175638 1228.56686629 368.8515625 1349.23046875 368.8515625 c 0
 1471.84660286 368.8515625 1532.45996094 284.052175638 1532.45996094 179.981445312 c 0
 1532.45996094 76.006635684 1471.84660286 -9.998046875 1349.23046875 -9.998046875 c 0
 1228.56686629 -9.998046875 1159.25 76.006635684 1159.25 179.981445312 c 0xa38c
948.66015625 179.981445312 m 0xa3d4
 948.66015625 115.811067679 986.379296875 90.5322265623 1032.48046875 90.5322265623 c 0
 1078.05280555 90.5322265623 1117.41015625 115.811067679 1117.41015625 179.981445312 c 0
 1117.41015625 244.76529899 1078.05280555 268.322265625 1032.48046875 268.322265625 c 0
 986.379296875 268.322265625 948.66015625 244.76529899 948.66015625 179.981445312 c 0xa3d4
846 179.981445312 m 0xa3ac
 846 284.052175638 907.688476562 368.8515625 1032.48046875 368.8515625 c 0
 1157.27148438 368.8515625 1218.95996094 284.052175638 1218.95996094 179.981445312 c 0
 1218.95996094 76.006635684 1157.27148438 -9.998046875 1032.48046875 -9.998046875 c 0
 907.688476562 -9.998046875 846 76.006635684 846 179.981445312 c 0xa3ac
641.91015625 179.981445312 m 0
 641.91015625 115.81081592 679.62882111 90.5322265623 725.73046875 90.5322265623 c 0
 771.30272761 90.5322265623 810.66015625 115.81081592 810.66015625 179.981445312 c 0xa3c4
 810.66015625 244.765164093 771.30272761 268.322265625 725.73046875 268.322265625 c 0
 679.62882111 268.322265625 641.91015625 244.765164093 641.91015625 179.981445312 c 0
532.5 179.981445312 m 0
 532.5 284.052592232 593.113363709 368.8515625 715.73046875 368.8515625 c 0
 836.393106433 368.8515625 905.709960938 284.052175638 905.709960938 179.981445312 c 0xa3a4
 905.709960938 76.006635684 836.393106433 -9.998046875 715.73046875 -9.998046875 c 0
 593.113363709 -9.998046875 532.5 76.0063373081 532.5 179.981445312 c 0
151.91015625 550.122070312 m 0
 151.91015625 485.951546863 187.716345233 460.671875 231.48046875 460.671875 c 0
 275.308816316 460.671875 313.16015625 485.951546863 313.16015625 550.122070312 c 0
 313.16015625 614.90477258 275.308816316 638.461914062 231.48046875 638.461914062 c 0x1b84
 187.716345233 638.461914062 151.91015625 614.90477258 151.91015625 550.122070312 c 0
41.5 550.122070312 m 0
 41.5 654.193217232 110.817063612 738.9921875 231.48046875 738.9921875 c 0
 352.142890637 738.9921875 421.459960938 654.193217232 421.459960938 550.122070312 c 0
 421.459960938 446.146962308 352.142890637 360.142578125 231.48046875 360.142578125 c 0
 110.817063612 360.142578125 41.5 446.146962308 41.5 550.122070312 c 0
EndSplineSet
Refer: 138 8260 N 1 0 0 1 301 0 2
EndChar

StartChar: uni203D
Encoding: 8253 8253 133
Width: 566
Flags: W
HStem: -10 160.449<180.106 295.893> 291.158 107.891<226.317 346.247> 615.979 123.014<120.817 367.461>
VStem: 158.387 159.227<11.8866 128.562> 173 132<560.085 791.008> 190.4 97.2<217 447.923> 387.596 137.774<436.132 567.248>
LayerCount: 2
Fore
SplineSet
190.4 217 m 1xe6
 173 791.0078125 l 1
 305 791.0078125 l 1xea
 287.6 217 l 1
 190.4 217 l 1xe6
158.38671875 70.224609375 m 0xf2
 158.38671875 118.825619299 189.768246391 150.44921875 237.999023438 150.44921875 c 0
 286.230806057 150.44921875 317.61328125 118.825619299 317.61328125 70.224609375 c 0
 317.61328125 21.6227590682 286.230806057 -10 237.999023438 -10 c 0
 189.768246391 -10 158.38671875 21.6227590682 158.38671875 70.224609375 c 0xf2
212.422851562 301.5 m 1
 220.65625 403.46875 l 1
 220.65625 403.46875 235.394505433 399.048828125 253.8984375 399.048828125 c 0
 344.32777447 399.048828125 387.595703125 434.901181257 387.595703125 501.745507812 c 0
 387.595703125 580.970268298 327.810663974 615.978515625 228.84453125 615.978515625 c 0
 139.731577542 615.978515625 64.323828125 566.958007812 64.323828125 566.958007812 c 1
 20.2412109375 688.811523438 l 1
 20.2412109375 688.811523438 101.0703125 738.9921875 229.89453125 738.9921875 c 0
 407.112230434 738.9921875 525.370117188 664.363007144 525.370117188 503.610742188 c 0
 525.370117188 360.444345894 407.386334751 291.1578125 280.1 291.1578125 c 0
 231.966391386 291.1578125 212.422851562 301.5 212.422851562 301.5 c 1
EndSplineSet
EndChar

StartChar: lira
Encoding: 8356 8356 134
Width: 553
Flags: W
HStem: 0 121.6<194.319 523> 215 86<56.5 424> 345 86<56.5 424> 615.371 124.091<243.692 452.196>
VStem: 64.1016 147.629<445.718 585.937> 143.324 129.907<188.61 342.031>
LayerCount: 2
Fore
SplineSet
523 0 m 1xf4
 30 0 l 1
 30 112 l 1
 30 112 143.32421875 187.513671875 143.32421875 296.379882812 c 0xf4
 143.32421875 395.813097549 64.1015625 421.6709125 64.1015625 547.185546875 c 0
 64.1015625 671.398535433 165.17825764 739.461914062 309.30859375 739.461914062 c 0
 442.299382735 739.461914062 501.70703125 703.405273438 501.70703125 703.405273438 c 1
 474.9375 583.774414062 l 1
 474.9375 583.774414062 415.627518559 615.37109375 336.75859375 615.37109375 c 0
 267.833004304 615.37109375 211.730078125 600.029817933 211.730078125 522.524414062 c 0xf8
 211.730078125 442.122498687 273.231445312 408.387214799 273.231445312 300.658203125 c 0
 273.231445312 189.705449735 194.319335938 121.6 194.319335938 121.6 c 1
 523 121.6 l 1
 523 0 l 1xf4
424 215 m 1
 56.5 215 l 1
 56.5 301 l 1
 424 301 l 1
 424 215 l 1
424 345 m 1
 56.5 345 l 1
 56.5 431 l 1
 424 431 l 1
 424 345 l 1
EndSplineSet
EndChar

StartChar: uni20B5
Encoding: 8373 8373 135
Width: 623
Flags: W
HStem: -9.99805 79.4678<318 431> 655 84.1211<318 431>
VStem: 41.5 148.849<236.311 492.812> 318 113<-105 69.4697 655 829.47>
LayerCount: 2
Fore
SplineSet
41.5 364.561523438 m 0
 41.5 591.206054688 166.238539961 739.12109375 385.888671875 739.12109375 c 0
 537.397841668 739.12109375 599.681640625 672.891601562 599.681640625 672.891601562 c 1
 544.85546875 561.138671875 l 1
 544.85546875 561.138671875 495.817211174 612.659179688 396.388671875 612.659179688 c 0
 252.056846737 612.659179688 190.348632812 513.334155496 190.348632812 364.561523438 c 0
 190.348632812 215.788891377 252.056846737 116.463867188 396.388671875 116.463867188 c 0
 504.995667494 116.463867188 562.518554688 162.595703125 562.518554688 162.595703125 c 1
 602.827148438 44.595703125 l 1
 602.827148438 44.595703125 536.561329272 -9.998046875 385.888671875 -9.998046875 c 0
 166.238539961 -9.998046875 41.5 137.916992188 41.5 364.561523438 c 0
318 -105 m 1
 318 69.4697265625 l 1
 431 69.4697265625 l 1
 431 -105 l 1
 318 -105 l 1
318 655 m 1
 318 829.469726562 l 1
 431 829.469726562 l 1
 431 655 l 1
 318 655 l 1
EndSplineSet
EndChar

StartChar: uni20B2
Encoding: 8370 8370 136
Width: 739
Flags: W
HStem: -9.99805 79.4678<318 431> 293.15 117.85<379 497.619 627.827 707.5> 293.15 24.4457<497.619 627.827> 655 84.1211<318 431>
VStem: 41.5 148.849<226.746 494.862> 318 113<-105 69.4697 655 829.47> 516.331 131.901<164.636 292.636>
LayerCount: 2
Fore
SplineSet
318 -105 m 1x9e
 318 69.4697265625 l 1
 431 69.4697265625 l 1
 431 -105 l 1
 318 -105 l 1x9e
318 655 m 1
 318 829.469726562 l 1
 431 829.469726562 l 1
 431 655 l 1
 318 655 l 1
707.5 293.15 m 1xde
 379 293.15 l 1
 379 411 l 1
 707.5 411 l 1
 707.5 293.15 l 1xde
41.5 364.561523438 m 0
 41.5 591.206054688 169.161386107 739.12109375 378.888671875 739.12109375 c 0
 530.751921072 739.12109375 593.181640625 672.891601562 593.181640625 672.891601562 c 1
 544.20546875 559.188671875 l 1
 544.20546875 559.188671875 492.90469313 610.709179688 388.888671875 610.709179688 c 0
 249.81021386 610.709179688 190.348632812 512.164831139 190.348632812 364.561523438 c 0
 190.348632812 215.788891377 238.461517266 116.463867188 369.888671875 116.463867188 c 0
 474.475564914 116.463867188 516.331445312 165.460114496 516.331445312 239 c 0
 516.331445312 293.970070578 497.618554688 317.595703125 497.618554688 317.595703125 c 1
 627.827148438 317.595703125 l 1xbe
 627.827148438 317.595703125 648.232421875 295.204797442 648.232421875 222 c 0
 648.232421875 93.0859042083 558.651613073 -9.998046875 369.888671875 -9.998046875 c 0
 160.721348862 -9.998046875 41.5 137.916992188 41.5 364.561523438 c 0
EndSplineSet
EndChar

StartChar: uni20BA
Encoding: 8378 8378 137
Width: 648
Flags: W
HStem: 0 123.25<244.5 390.922> 711.008 20G<101.5 244.5>
VStem: 101.5 143<123.25 731.008>
LayerCount: 2
Fore
SplineSet
378 351.75 m 1
 36.5 248.25 l 1
 36.5 334.25 l 1
 378 437.75 l 1
 378 351.75 l 1
378 481.75 m 1
 36.5 378.25 l 1
 36.5 464.25 l 1
 378 567.75 l 1
 378 481.75 l 1
244.5 123.25 m 1
 300 123.25 l 2
 483.179347826 123.25 487.25 316.75 487.25 316.75 c 1
 620.75 297.3 l 1
 620.75 297.3 612.001435545 -3.7521374896e-14 300 0 c 2
 101.5 0 l 1
 101.5 731.0078125 l 1
 244.5 731.0078125 l 1
 244.5 123.25 l 1
EndSplineSet
EndChar

StartChar: fraction
Encoding: 8260 8260 138
Width: 304
Flags: W
HStem: 0 21G<-103.5 24.675> 711.008 20G<329.325 457.5>
LayerCount: 2
Fore
SplineSet
-103.5 0 m 1
 341.5 731.0078125 l 1
 457.5 731.0078125 l 1
 12.5 0 l 1
 -103.5 0 l 1
EndSplineSet
EndChar

StartChar: endash
Encoding: 8211 8211 139
Width: 570
Flags: W
HStem: 221.35 116.3<36.5 533.5>
LayerCount: 2
Fore
SplineSet
36.5 221.35 m 1
 36.5 337.65 l 1
 533.5 337.65 l 1
 533.5 221.35 l 1
 36.5 221.35 l 1
EndSplineSet
EndChar

StartChar: emdash
Encoding: 8212 8212 140
Width: 820
Flags: W
HStem: 221.35 116.3<23.5 796.5>
LayerCount: 2
Fore
SplineSet
23.5 221.35 m 1
 23.5 337.65 l 1
 796.5 337.65 l 1
 796.5 221.35 l 1
 23.5 221.35 l 1
EndSplineSet
EndChar

StartChar: Euro
Encoding: 8364 8364 141
Width: 683
Flags: W
HStem: -9.99805 126.462<360.41 577.876> 260 86<36.5 441.957> 390 86<36.5 464.879> 612.659 126.462<358.704 558.003>
LayerCount: 2
Fore
SplineSet
441.95703125 260 m 1
 36.5 260 l 1
 36.5 346 l 1
 457.12109375 346 l 1
 441.95703125 260 l 1
464.87890625 390 m 1
 36.5 390 l 1
 36.5 476 l 1
 480.04296875 476 l 1
 464.87890625 390 l 1
101.5 364.561523438 m 0
 101.5 591.206054688 226.238456831 739.12109375 445.888671875 739.12109375 c 0
 597.397460938 739.12109375 659.681640625 672.891601562 659.681640625 672.891601562 c 1
 604.85546875 561.138671875 l 1
 604.85546875 561.138671875 555.816713712 612.659179688 456.388671875 612.659179688 c 0
 312.056515997 612.659179688 250.348632812 513.334155496 250.348632812 364.561523438 c 0
 250.348632812 215.788891377 314.003231027 116.463867188 462.888671875 116.463867188 c 0
 567.2460687 116.463867188 622.518554688 162.595703125 622.518554688 162.595703125 c 1
 662.827148438 44.595703125 l 1
 662.827148438 44.595703125 596.561523438 -9.998046875 445.888671875 -9.998046875 c 0
 226.238456831 -9.998046875 101.5 137.916992188 101.5 364.561523438 c 0
EndSplineSet
EndChar

StartChar: uni20AD
Encoding: 8365 8365 142
Width: 665
Flags: W
HStem: 0 21G<97.5 240.5 457.294 648.5> 301.5 108<23.5 607.5> 711.008 20G<97.5 240.5 455.409 638.5>
VStem: 97.5 143<0 311 401 731.008> 221.5 19<311 401>
LayerCount: 2
Fore
SplineSet
607.5 301.5 m 1xe0
 23.5 301.5 l 1
 23.5 409.5 l 1
 607.5 409.5 l 1
 607.5 301.5 l 1xe0
473.5 0 m 1
 221.5 311 l 1
 221.5 401 l 1xe8
 470.5 731.0078125 l 1
 638.5 731.0078125 l 1
 345.5 372 l 1
 648.5 0 l 1
 473.5 0 l 1
97.5 0 m 1xf0
 97.5 731.0078125 l 1
 240.5 731.0078125 l 1
 240.5 0 l 1
 97.5 0 l 1xf0
EndSplineSet
EndChar

StartChar: uni20B9
Encoding: 8377 8377 143
Width: 574
Flags: W
HStem: 0 21G<346.045 498.5> 266.4 121.502<36.5 263.879> 450 86<36.5 537.5> 606.749 124.258<36.5 269.352>
VStem: 315.429 143.849<398.36 563.897>
LayerCount: 2
Fore
SplineSet
144 266.4 m 2
 36.5 266.4 l 1
 36.5 387.9015625 l 1
 166.888671875 388.011914062 l 2
 251.705947432 388.080392779 315.428710938 407.440306913 315.428710938 496.061523438 c 0
 315.428710938 585.969312611 251.635977196 606.582796254 167.888671875 606.645898438 c 2
 36.5 606.749414062 l 1
 36.5 731.0078125 l 1
 183.888671875 731.0078125 l 2
 328.584738129 731.0078125 459.27734375 669.334960938 459.27734375 504.561523438 c 0
 459.27734375 369.525734629 342.688476562 331.276367188 342.688476562 331.276367188 c 1
 342.688476562 331.276367188 407.950213686 314.286908312 438.356738281 208.749804687 c 2
 498.5 0 l 1
 351.5 0 l 1
 306.5 165 l 2
 281.519620605 256.59472445 255.003521128 266.4 144 266.4 c 2
537.5 450 m 1
 36.5 450 l 1
 36.5 536 l 1
 537.5 536 l 1
 537.5 450 l 1
EndSplineSet
EndChar

StartChar: uni20B4
Encoding: 8372 8372 144
Width: 677
Flags: W
HStem: -10 123.312<256.443 490.598> 255 86<36.5 640.5> 385 86<36.5 640.5> 614.809 124.312<190.484 402.317>
VStem: 83 137.532<147.456 252.73> 436.731 143.662<475.69 580.744>
LayerCount: 2
Fore
SplineSet
640.5 255 m 1
 36.5 255 l 1
 36.5 341 l 1
 640.5 341 l 1
 640.5 255 l 1
640.5 385 m 1
 36.5 385 l 1
 36.5 471 l 1
 640.5 471 l 1
 640.5 385 l 1
349.801416015 301.77578125 m 0
 238.396854947 272.43365426 220.531640625 245.295924307 220.531640625 197.5 c 0
 220.531640625 141.950385904 268.360536448 113.311914062 368.823242188 113.311914062 c 0
 472.216868276 113.311914062 556.546875 162.482421875 556.546875 162.482421875 c 1
 593.703125 42.2294921875 l 1
 593.703125 42.2294921875 496.331054688 -10 342.71484375 -10 c 0
 173.421239699 -10 83 73.4386703354 83 207.45 c 0
 83 320.270339021 137.582421875 379.922412109 311.522460938 429.031054688 c 0
 409.732474493 457.100342838 436.731054688 478.264305476 436.731054688 529.5 c 0
 436.731054688 582.155710304 395.203270055 614.809179688 302.85625 614.809179688 c 0
 209.789528289 614.809179688 146.6484375 572.288671875 146.6484375 572.288671875 c 1
 104.274414062 688.891601562 l 1
 104.274414062 688.891601562 173.971833275 739.12109375 317.286132812 739.12109375 c 0
 480.838375891 739.12109375 580.392578125 653.133666396 580.392578125 519.6 c 0
 580.392578125 411.28201725 520.749414063 346.983447266 349.801416015 301.77578125 c 0
EndSplineSet
EndChar

StartChar: colonmonetary
Encoding: 8353 8353 145
Width: 623
Flags: W
HStem: -9.99805 79.4678<169.878 262.378 323.378 413.155> 612.659 126.462<271.437 424.598> 655 84.1211<273.122 365.622 426.622 519.122>
VStem: 41.5 148.849<236.311 492.812>
LayerCount: 2
Fore
SplineSet
292.614257812 -105 m 1x90
 323.377929688 69.4697265625 l 1
 415.877929688 69.4697265625 l 1
 385.114257812 -105 l 1
 292.614257812 -105 l 1x90
426.622070312 655 m 1xb0
 457.385742188 829.469726562 l 1
 549.885742188 829.469726562 l 1
 519.122070312 655 l 1
 426.622070312 655 l 1xb0
41.5 364.561523438 m 0
 41.5 591.206054688 166.238539961 739.12109375 385.888671875 739.12109375 c 0
 537.397841668 739.12109375 599.681640625 672.891601562 599.681640625 672.891601562 c 1
 544.85546875 561.138671875 l 1
 544.85546875 561.138671875 495.817211174 612.659179688 396.388671875 612.659179688 c 0xd0
 252.056846737 612.659179688 190.348632812 513.334155496 190.348632812 364.561523438 c 0
 190.348632812 215.788891377 254.0035722 116.463867188 402.888671875 116.463867188 c 0
 507.246308742 116.463867188 562.518554688 162.595703125 562.518554688 162.595703125 c 1
 602.827148438 44.595703125 l 1
 602.827148438 44.595703125 536.561329272 -9.998046875 385.888671875 -9.998046875 c 0
 166.238539961 -9.998046875 41.5 137.916992188 41.5 364.561523438 c 0
139.114257812 -105 m 1
 169.877929688 69.4697265625 l 1
 262.377929688 69.4697265625 l 1
 231.614257812 -105 l 1
 139.114257812 -105 l 1
273.122070312 655 m 1xb0
 303.885742188 829.469726562 l 1
 396.385742188 829.469726562 l 1
 365.622070312 655 l 1
 273.122070312 655 l 1xb0
EndSplineSet
EndChar

StartChar: zero.inferior
Encoding: 8320 8320 148
Width: 455
Flags: W
HStem: -358 94.5875<170.438 285.473> 48.4125 94.5875<170.438 285.473>
VStem: 26.325 102.587<-216.264 0.577894> 326.562 102.587<-217.587 1.91235>
LayerCount: 2
Fore
SplineSet
128.9125 -108 m 0
 128.9125 -201.8 158.625 -263.4125 228 -263.4125 c 0
 297.375 -263.4125 326.5625 -201.8 326.5625 -108 c 0
 326.5625 -14.2 297.375 48.4125 228 48.4125 c 0
 158.625 48.4125 128.9125 -14.2 128.9125 -108 c 0
26.325 -108 m 0
 26.325 44 96.1375 143 228 143 c 0
 359.8625 143 429.15 44 429.15 -108 c 0
 429.15 -260 359.8625 -358 228 -358 c 0
 96.1375 -358 26.325 -260 26.325 -108 c 0
EndSplineSet
EndChar

StartChar: one.inferior
Encoding: 8321 8321 149
Width: 277
Flags: W
VStem: 131.088 106.588<-350 27.225>
LayerCount: 2
Fore
SplineSet
237.675 137 m 1
 237.675 -350 l 1
 131.0875 -350 l 1
 131.0875 27.225 l 1
 42.85 -20.25 l 1
 10.0875 57 l 1
 142.0875 137 l 1
 237.675 137 l 1
EndSplineSet
EndChar

StartChar: two.inferior
Encoding: 8322 8322 150
Width: 404
Flags: W
HStem: -350 91.3<145.25 382.15> 48.7 94.3<102.104 257.129>
VStem: 272.562 104.587<-59.3989 32.2342>
LayerCount: 2
Fore
SplineSet
272.5625 -13.625 m 0
 272.5625 24.5625 250.6125 48.7 188.2375 48.7 c 0
 123.1875 48.7 77.425 12.7 77.425 12.7 c 1
 77.425 12.7 43.425 101 43.425 101 c 1
 43.425 101 102.95 143 191 143 c 0
 307.1 143 377.15 92 377.15 -9 c 0
 377.15 -99.3375 327.825 -137.1 233 -184.675 c 0
 147.9125 -228 145.8375 -250.6875 145.25 -258.7 c 1
 382.15 -258.7 l 1
 382.15 -350 l 1
 33.6625 -350 l 1
 33.6625 -314 l 2
 33.6625 -209.1875 97.1875 -151.1375 209.2375 -89.6125 c 0
 255.2875 -64.85 272.5625 -40.95 272.5625 -13.625 c 0
EndSplineSet
EndChar

StartChar: three.inferior
Encoding: 8323 8323 151
Width: 388
Flags: W
HStem: -358 92.0625<63.7048 238.578> -143.863 83.725<111.525 234.089> 47.9375 95.0625<68.16 232.595>
VStem: 243.512 108.4<-48.5529 34.3828> 254.325 108.35<-247.2 -160.136>
LayerCount: 2
Fore
SplineSet
163.375 -60.1375 m 2xe8
 223.8 -60.1375 243.5125 -41.95 243.5125 -6.3375 c 0
 243.5125 24.275 225.325 47.9375 164.2375 47.9375 c 0
 96.7125 47.9375 54.95 18.9875 54.95 18.9875 c 1
 26.1875 107.525 l 1
 26.1875 107.525 78.7125 143 169 143 c 0
 282.1 143 351.9125 95 351.9125 5 c 0xf0
 351.9125 -76 279.675 -100 279.675 -100 c 1
 279.675 -100 362.675 -123 362.675 -214 c 0
 362.675 -317 285.1 -358 168 -358 c 0
 70.1875 -358 11.6625 -323 11.6625 -323 c 1
 42.05 -231.7 l 1
 42.05 -231.7 88.2875 -265.9375 161 -265.9375 c 0
 225.375 -265.9375 254.325 -243.5125 254.325 -204.1375 c 0
 254.325 -163.2875 223.6125 -143.8625 164.1375 -143.8625 c 2
 111.525 -143.8625 l 1
 111.525 -60.1375 l 1
 163.375 -60.1375 l 2xe8
EndSplineSet
EndChar

StartChar: four.inferior
Encoding: 8324 8324 152
Width: 439
Flags: W
HStem: -237.625 86.25<137.625 415.913>
VStem: 244.562 102.587<-350 -10.4>
LayerCount: 2
Fore
SplineSet
347.15 137 m 1
 347.15 -350 l 1
 244.5625 -350 l 1
 244.5625 -10.4 l 1
 137.625 -151.375 l 1
 415.9125 -151.375 l 1
 415.9125 -237.625 l 1
 43.0875 -237.625 l 1
 23.5625 -162.7125 l 1
 245.8 137 l 1
 347.15 137 l 1
EndSplineSet
EndChar

StartChar: five.inferior
Encoding: 8325 8325 153
Width: 401
Flags: W
HStem: -357 93.5375<65.53 248.195> -111.963 82.9625<140.001 251.666> 47.225 89.775<147.95 342.762>
VStem: 271.025 104.825<-240.598 -129.575>
LayerCount: 2
Fore
SplineSet
180.6125 -357 m 0
 75.85 -357 13.325 -323 13.325 -323 c 1
 13.325 -323 41.375 -230.9875 41.375 -230.9875 c 1
 41.375 -230.9875 98.0875 -263.4625 171.5625 -263.4625 c 0
 243.6 -263.4625 271.025 -234.325 271.025 -186.7625 c 0
 271.025 -140.15 245.8375 -111.9625 193.9375 -111.9625 c 0
 139.0375 -111.9625 120.325 -145.8125 120.325 -145.8125 c 1
 40.225 -126.575 l 1
 63.3625 137 l 1
 342.7625 137 l 1
 342.7625 47.225 l 1
 147.95 47.225 l 1
 138.7625 -52 l 1
 138.7625 -52 159 -29 223.7125 -29 c 0
 322.1375 -29 375.85 -87 375.85 -183.475 c 0
 375.85 -291.2375 309.85 -357 180.6125 -357 c 0
EndSplineSet
EndChar

StartChar: six.inferior
Encoding: 8326 8326 154
Width: 427
Flags: W
HStem: -358 88.25<160.931 280.339> -115.25 80.2<158.305 282.088> 51.9875 91.0125<170.872 337.486>
VStem: 26.325 112.587<-245.847 -45.0456> 302.325 98.5875<-250.207 -134.623>
LayerCount: 2
Fore
SplineSet
138.9125 -192 m 0
 138.9125 -236.6125 162.8625 -269.75 220.2375 -269.75 c 0
 278.375 -269.75 302.325 -236.6125 302.325 -192 c 0
 302.325 -147.3875 278.375 -115.25 220.2375 -115.25 c 0
 162.8625 -115.25 138.9125 -147.3875 138.9125 -192 c 0
125.9125 -71.6625 m 1
 125.9125 -71.6625 152.3875 -35.05 236.8625 -35.05 c 0
 337.15 -35.05 400.9125 -98.525 400.9125 -191 c 0
 400.9125 -298 332.1 -358 221 -358 c 0
 98.9 -358 26.325 -285 26.325 -107 c 0
 26.325 54 103.6625 143 241.575 143 c 0
 339.3875 143 388.675 102 388.675 102 c 1
 354 19.9875 l 1
 354 19.9875 315.7625 51.9875 246.8125 51.9875 c 0
 169.625 51.9875 130.15 8.6125 125.9125 -71.6625 c 1
EndSplineSet
EndChar

StartChar: seven.inferior
Encoding: 8327 8327 155
Width: 402
Flags: W
HStem: 45.7 91.3<30.0875 252.938>
VStem: 109.088 106.825<-350 -214.126>
LayerCount: 2
Fore
SplineSet
215.9125 -350 m 1
 109.0875 -350 l 1
 116.325 -131.9125 252.9375 45.7 252.9375 45.7 c 1
 30.0875 45.7 l 1
 30.0875 137 l 1
 372.9125 137 l 1
 372.9125 67 l 1
 372.9125 67 217.9125 -113 215.9125 -350 c 1
EndSplineSet
EndChar

StartChar: eight.inferior
Encoding: 8328 8328 156
Width: 438
Flags: W
HStem: -358 86.0125<148.188 290.973> -136.387 80.775<175.863 265.85> -111 38.3375<109.9 332.05> 55.9875 87.0125<159.989 280.669>
VStem: 26.325 101.587<-251.629 -156.255> 50.0875 97.825<-41.6656 41.9862> 293.75 97.825<-41.2321 41.9862> 310.75 101.587<-252.2 -155.691>
LayerCount: 2
Fore
SplineSet
219.475 -55.6125 m 0xd2
 265.85 -55.6125 293.75 -34.1875 293.75 0.1875 c 0
 293.75 35.5625 266.85 55.9875 219.475 55.9875 c 0
 174.1 55.9875 147.9125 35.5625 147.9125 0.1875 c 0
 147.9125 -34.1875 175.8625 -55.6125 219.475 -55.6125 c 0xd2
219.475 143 m 0
 327.05 143 391.575 93 391.575 12 c 0
 391.575 -68 332.05 -111 219.475 -111 c 0
 109.9 -111 50.0875 -68 50.0875 12 c 0xb6
 50.0875 93 113.9 143 219.475 143 c 0
219.7125 -271.9875 m 0
 279.0875 -271.9875 310.75 -247.5625 310.75 -203.1875 c 0
 310.75 -162.05 279.0875 -136.3875 219.7125 -136.3875 c 0xd1
 160.3375 -136.3875 127.9125 -162.05 127.9125 -203.1875 c 0
 127.9125 -247.5625 160.3375 -271.9875 219.7125 -271.9875 c 0
219.7125 -72.6625 m 0xb9
 344.05 -72.6625 412.3375 -122.95 412.3375 -212 c 0
 412.3375 -301 337.05 -358 219.7125 -358 c 0
 102.375 -358 26.325 -301 26.325 -212 c 0
 26.325 -122.95 95.375 -72.6625 219.7125 -72.6625 c 0xb9
EndSplineSet
EndChar

StartChar: nine.inferior
Encoding: 8329 8329 157
Width: 426
Flags: W
HStem: -358 91.0125<86.8932 251.937> -181.475 80.2<148.57 269.752> 53.225 89.775<146.981 270.005>
VStem: 26.325 100.35<-80.8244 32.9513> 289.85 110.825<-167.19 30.9646>
LayerCount: 2
Fore
SplineSet
289.85 -23.525 m 0
 289.85 21.0875 265.9 53.225 208.525 53.225 c 0
 150.3875 53.225 126.675 21.0875 126.675 -23.525 c 0
 126.675 -68.1375 150.3875 -101.275 208.525 -101.275 c 0
 265.9 -101.275 289.85 -68.1375 289.85 -23.525 c 0
296.5125 -142.575 m 1
 296.5125 -142.575 270.0375 -181.475 190.1375 -181.475 c 0
 89.85 -181.475 26.325 -116.475 26.325 -23.2375 c 0
 26.325 83.7625 94.9 143 206 143 c 0
 328.1 143 400.675 70 400.675 -108 c 0
 400.675 -269 323.3375 -358 185.425 -358 c 0
 87.6125 -358 38.325 -317 38.325 -317 c 1
 68.6625 -234.225 l 1
 68.6625 -234.225 107.6625 -266.9875 180.1875 -266.9875 c 0
 254.325 -266.9875 292.275 -222.85 296.5125 -142.575 c 1
EndSplineSet
EndChar

StartChar: zero.superior
Encoding: 8304 8304 158
Width: 455
Flags: W
HStem: 342 94.5875<170.438 285.602> 748.413 94.5875<170.438 285.602>
VStem: 26.325 102.587<483.736 700.578> 327.325 102.588<483.736 700.578>
LayerCount: 2
Fore
SplineSet
128.9125 592 m 0
 128.9125 498.2 158.625 436.5875 228 436.5875 c 0
 297.375 436.5875 327.325 498.2 327.325 592 c 0
 327.325 685.8 297.375 748.4125 228 748.4125 c 0
 158.625 748.4125 128.9125 685.8 128.9125 592 c 0
26.325 592 m 0
 26.325 744 96.1375 843 228 843 c 0
 359.8625 843 429.9125 744 429.9125 592 c 0
 429.9125 440 359.8625 342 228 342 c 0
 96.1375 342 26.325 440 26.325 592 c 0
EndSplineSet
EndChar

StartChar: one.superior
Encoding: 185 185 159
Width: 277
Flags: W
VStem: 131.088 106.588<350 727.225>
LayerCount: 2
Fore
SplineSet
237.675 837 m 1
 237.675 350 l 1
 131.0875 350 l 1
 131.0875 727.225 l 1
 42.85 679.75 l 1
 10.0875 757 l 1
 142.0875 837 l 1
 237.675 837 l 1
EndSplineSet
EndChar

StartChar: two.superior
Encoding: 178 178 160
Width: 404
Flags: W
HStem: 350 91.3<145.25 382.675> 748.7 94.3<102.259 257.468>
VStem: 273.087 104.588<640.601 732.234>
LayerCount: 2
Fore
SplineSet
273.0875 686.375 m 0
 273.0875 724.5625 251.375 748.7 189 748.7 c 0
 123.95 748.7 77.425 712.7 77.425 712.7 c 1
 43.425 800.2375 l 1
 43.425 800.2375 102.95 843 191 843 c 0
 307.1 843 377.675 792 377.675 691 c 0
 377.675 600.6625 327.825 562.9 233 515.325 c 0
 147.9125 472 145.8375 449.3125 145.25 441.3 c 1
 382.675 441.3 l 1
 382.675 350 l 1
 33.6625 350 l 1
 33.6625 386 l 2
 33.6625 490.8125 98.1875 548.8625 210 610.3875 c 0
 256.05 635.15 273.0875 659.05 273.0875 686.375 c 0
EndSplineSet
EndChar

StartChar: three.superior
Encoding: 179 179 161
Width: 388
Flags: W
HStem: 342 92.0625<63.7048 238.578> 556.138 83.725<111.525 234.089> 747.938 95.0625<68.7753 232.595>
VStem: 243.512 108.4<651.447 734.383> 254.325 108.35<452.914 539.966>
LayerCount: 2
Fore
SplineSet
163.375 639.8625 m 2xe8
 223.8 639.8625 243.5125 658.05 243.5125 693.6625 c 0
 243.5125 724.275 225.325 747.9375 164.2375 747.9375 c 0
 96.7125 747.9375 54.95 718.225 54.95 718.225 c 1
 26.1875 806.7625 l 1
 26.1875 806.7625 78.7125 843 169 843 c 0
 282.1 843 351.9125 795 351.9125 705 c 0xf0
 351.9125 624 279.675 600 279.675 600 c 1
 279.675 600 362.675 577.2375 362.675 486.2375 c 0
 362.675 383.2375 285.1 342 168 342 c 0
 70.1875 342 11.6625 376 11.6625 376 c 1
 42.05 468.3 l 1
 42.05 468.3 88.2875 434.0625 161 434.0625 c 0
 225.375 434.0625 254.325 456.4875 254.325 495.8625 c 0
 254.325 536.7125 223.6125 556.1375 164.1375 556.1375 c 2
 111.525 556.1375 l 1
 111.525 639.8625 l 1
 163.375 639.8625 l 2xe8
EndSplineSet
EndChar

StartChar: four.superior
Encoding: 8308 8308 162
Width: 439
Flags: W
HStem: 462.375 86.25<137.625 415.913>
VStem: 244.562 102.587<350 688.362>
LayerCount: 2
Fore
SplineSet
347.15 837 m 1
 347.15 350 l 1
 244.5625 350 l 1
 244.5625 688.3625 l 1
 137.625 548.625 l 1
 415.9125 548.625 l 1
 415.9125 462.375 l 1
 43.0875 462.375 l 1
 23.5625 537.2875 l 1
 245.8 837 l 1
 347.15 837 l 1
EndSplineSet
EndChar

StartChar: five.superior
Encoding: 8309 8309 163
Width: 401
Flags: W
HStem: 343 93.5375<65.53 248.195> 588.038 82.9625<140.001 251.666> 747.225 89.775<147.95 342.762>
VStem: 271.025 104.825<459.402 570.425>
LayerCount: 2
Fore
SplineSet
180.6125 343 m 0
 75.85 343 13.325 377 13.325 377 c 1
 13.325 377 41.375 469.0125 41.375 469.0125 c 1
 41.375 469.0125 98.0875 436.5375 171.5625 436.5375 c 0
 243.6 436.5375 271.025 465.675 271.025 513.2375 c 0
 271.025 559.85 245.8375 588.0375 193.9375 588.0375 c 0
 139.0375 588.0375 120.325 554.1875 120.325 554.1875 c 1
 40.225 573.425 l 1
 63.3625 837 l 1
 342.7625 837 l 1
 342.7625 747.225 l 1
 147.95 747.225 l 1
 138.7625 648 l 1
 138.7625 648 159 671 223.7125 671 c 0
 322.1375 671 375.85 613 375.85 516.525 c 0
 375.85 408.7625 309.85 343 180.6125 343 c 0
EndSplineSet
EndChar

StartChar: six.superior
Encoding: 8310 8310 164
Width: 427
Flags: W
HStem: 342 88.25<160.931 280.339> 584.75 80.2<158.305 282.088> 751.987 91.0125<170.872 336.826>
VStem: 26.325 112.587<454.153 654.954> 302.325 98.5875<449.793 565.377>
LayerCount: 2
Fore
SplineSet
138.9125 508 m 0
 138.9125 463.3875 162.8625 430.25 220.2375 430.25 c 0
 278.375 430.25 302.325 463.3875 302.325 508 c 0
 302.325 552.6125 278.375 584.75 220.2375 584.75 c 0
 162.8625 584.75 138.9125 552.6125 138.9125 508 c 0
125.9125 627.3375 m 1
 125.9125 627.3375 152.3875 664.95 236.8625 664.95 c 0
 337.15 664.95 400.9125 601.475 400.9125 509 c 0
 400.9125 402 332.1 342 221 342 c 0
 98.9 342 26.325 415 26.325 593 c 0
 26.325 754 103.6625 843 241.575 843 c 0
 339.3875 843 388.675 802 388.675 802 c 1
 354 719.225 l 1
 354 719.225 315.7625 751.9875 246.8125 751.9875 c 0
 169.625 751.9875 130.15 708.375 125.9125 627.3375 c 1
EndSplineSet
EndChar

StartChar: seven.superior
Encoding: 8311 8311 165
Width: 402
Flags: W
HStem: 745.7 91.3<30.0875 252.938>
VStem: 109.088 106.825<350 485.874>
LayerCount: 2
Fore
SplineSet
215.9125 350 m 1
 109.0875 350 l 1
 116.325 568.0875 252.9375 745.7 252.9375 745.7 c 1
 30.0875 745.7 l 1
 30.0875 837 l 1
 372.9125 837 l 1
 372.9125 766.2375 l 1
 372.9125 766.2375 217.9125 587 215.9125 350 c 1
EndSplineSet
EndChar

StartChar: eight.superior
Encoding: 8312 8312 166
Width: 443
Flags: W
HStem: 342 86.0125<149.402 294.334> 563.612 80.775<176.625 269.663> 589 38.3375<110.662 335.863> 755.987 87.0125<160.996 284.344>
VStem: 26.325 101.587<448.371 542.083> 50.0875 97.825<658.768 741.559> 298.325 97.825<658.768 741.559> 315.325 101.588<448.371 542.083>
LayerCount: 2
Fore
SplineSet
221.7625 644.3875 m 0xd2
 269.6625 644.3875 298.325 665.8125 298.325 700.1875 c 0
 298.325 735.5625 270.6625 755.9875 221.7625 755.9875 c 0
 175.625 755.9875 147.9125 735.5625 147.9125 700.1875 c 0
 147.9125 665.8125 176.625 644.3875 221.7625 644.3875 c 0xd2
221.7625 843 m 0
 330.8625 843 396.15 793 396.15 712 c 0
 396.15 632 335.8625 589 221.7625 589 c 0
 110.6625 589 50.0875 632 50.0875 712 c 0xb6
 50.0875 793 114.6625 843 221.7625 843 c 0
222 428.0125 m 0
 282.1375 428.0125 315.325 452.4375 315.325 496.8125 c 0
 315.325 537.95 282.1375 563.6125 222 563.6125 c 0xd1
 161.8625 563.6125 127.9125 537.95 127.9125 496.8125 c 0
 127.9125 452.4375 161.8625 428.0125 222 428.0125 c 0
222 627.3375 m 0xb9
 347.8625 627.3375 416.9125 577.05 416.9125 488 c 0
 416.9125 399 340.1 342 222 342 c 0
 103.9 342 26.325 399 26.325 488 c 0
 26.325 577.05 96.1375 627.3375 222 627.3375 c 0xb9
EndSplineSet
EndChar

StartChar: nine.superior
Encoding: 8313 8313 167
Width: 426
Flags: W
HStem: 342 91.0125<86.8932 251.937> 518.525 80.2<148.57 269.752> 753.225 89.775<146.981 270.005>
VStem: 26.325 100.35<619.176 732.951> 289.85 110.825<532.81 730.965>
LayerCount: 2
Fore
SplineSet
289.85 676.475 m 0
 289.85 721.0875 265.9 753.225 208.525 753.225 c 0
 150.3875 753.225 126.675 721.0875 126.675 676.475 c 0
 126.675 631.8625 150.3875 598.725 208.525 598.725 c 0
 265.9 598.725 289.85 631.8625 289.85 676.475 c 0
296.5125 557.6625 m 1
 296.5125 557.6625 270.0375 518.525 190.1375 518.525 c 0
 89.85 518.525 26.325 583.525 26.325 676.7625 c 0
 26.325 783.7625 94.9 843 206 843 c 0
 328.1 843 400.675 770 400.675 592 c 0
 400.675 431 323.3375 342 185.425 342 c 0
 87.6125 342 38.325 383 38.325 383 c 1
 68.6625 465.775 l 1
 68.6625 465.775 107.6625 433.0125 180.1875 433.0125 c 0
 254.325 433.0125 292.275 477.3875 296.5125 557.6625 c 1
EndSplineSet
EndChar

StartChar: circumflex
Encoding: 710 710 168
Width: 362
Flags: W
HStem: 516 215.008
LayerCount: 2
Fore
SplineSet
271 516 m 1
 181 620.432617188 l 1
 91 516 l 1
 14 546 l 1
 124 731.0078125 l 1
 238 731.0078125 l 1
 348 546 l 1
 271 516 l 1
EndSplineSet
EndChar

StartChar: caron
Encoding: 711 711 169
Width: 362
Flags: W
HStem: 526 215.008
LayerCount: 2
Fore
SplineSet
91 741.0078125 m 1
 181 636.575195312 l 1
 271 741.0078125 l 1
 348 711.0078125 l 1
 238 526 l 1
 124 526 l 1
 14 711.0078125 l 1
 91 741.0078125 l 1
EndSplineSet
EndChar

StartChar: breve
Encoding: 728 728 170
Width: 322
VWidth: 999
Flags: W
HStem: 589.837 96.0375<97.6021 225.218> 715 20G<45.9437 74.9434 247.877 276.877>
VStem: 5 312.82
LayerCount: 2
Fore
SplineSet
161.41015625 589.836523438 m 0
 51.853515625 589.836523438 5 686.762695312 5 686.762695312 c 1
 74.943359375 735 l 1
 74.943359375 735 94.0546875 685.874023438 161.41015625 685.874023438 c 0
 228.765625 685.874023438 247.876953125 735 247.876953125 735 c 1
 317.8203125 686.762695312 l 1
 317.8203125 686.762695312 270.966796875 589.836523438 161.41015625 589.836523438 c 0
EndSplineSet
EndChar

StartChar: dotaccent
Encoding: 729 729 171
Width: 248
Flags: W
HStem: 585.543 153.449<69.1513 179.848>
VStem: 48.3867 152.227<606.475 718.06>
LayerCount: 2
Fore
SplineSet
48.38671875 662.267578125 m 0
 48.38671875 708.748586964 78.3882484312 738.9921875 124.499023438 738.9921875 c 0
 170.610804161 738.9921875 200.61328125 708.748586964 200.61328125 662.267578125 c 0
 200.61328125 615.785729536 170.610804161 585.54296875 124.499023438 585.54296875 c 0
 78.3882484311 585.54296875 48.38671875 615.785729536 48.38671875 662.267578125 c 0
EndSplineSet
EndChar

StartChar: tilde
Encoding: 732 732 172
Width: 371
VWidth: 999
Flags: W
HStem: 594.665 102.537<196.109 318.185> 641.134 101.668<62.9165 175.392>
LayerCount: 2
Fore
SplineSet
366.400390625 652.677246094 m 1x80
 366.400390625 652.677246094 323.839615408 594.664550781 258.225585938 594.664550781 c 0x80
 184.144278795 594.664550781 169.00431842 641.133886719 114.913085938 641.133886719 c 0
 80.1105424584 641.133886719 51.71875 608.995800781 51.71875 608.995800781 c 1
 5 697.177246094 l 1
 5 697.177246094 51.9945779941 742.802246094 113.17578125 742.802246094 c 0x40
 186.081075297 742.802246094 207.100027166 697.202050781 256.48828125 697.202050781 c 0
 296.423696043 697.202050781 316.85703125 725.214550781 316.85703125 725.214550781 c 1
 366.400390625 652.677246094 l 1x80
EndSplineSet
EndChar

StartChar: hungarumlaut
Encoding: 733 733 173
Width: 412
Flags: W
HStem: 529 212.008
LayerCount: 2
Fore
SplineSet
280.6 529 m 1
 201.4 549 l 1
 278 741.0078125 l 1
 398 711.0078125 l 1
 280.6 529 l 1
90.6 529 m 1
 11.4 549 l 1
 88 741.0078125 l 1
 208 711.0078125 l 1
 90.6 529 l 1
EndSplineSet
EndChar

StartChar: multiply
Encoding: 215 215 174
Width: 450
Flags: W
LayerCount: 2
Fore
SplineSet
418.040039062 478.194335938 m 1
 104.805664062 164.959960938 l 1
 31.9599609375 237.805664062 l 1
 345.194335938 551.040039062 l 1
 418.040039062 478.194335938 l 1
345.194335938 164.959960938 m 1
 31.9599609375 478.194335938 l 1
 104.805664062 551.040039062 l 1
 418.040039062 237.805664062 l 1
 345.194335938 164.959960938 l 1
EndSplineSet
EndChar

StartChar: divide
Encoding: 247 247 175
Width: 450
Flags: W
HStem: 121.246 141.804<171.605 278.394> 304.75 106.5<30 420> 452.95 141.804<171.605 278.394>
VStem: 154.648 140.703<138.336 245.96 470.04 577.664>
CounterMasks: 1 e0
LayerCount: 2
Fore
SplineSet
420 304.75 m 1
 30 304.75 l 1
 30 411.25 l 1
 420 411.25 l 1
 420 304.75 l 1
154.6484375 192.147460938 m 0
 154.6484375 235.100997995 182.378689784 263.049804688 224.999023438 263.049804688 c 0
 267.62036589 263.049804688 295.3515625 235.100997995 295.3515625 192.147460938 c 0
 295.3515625 149.194015546 267.62036589 121.24609375 224.999023438 121.24609375 c 0
 182.378689784 121.24609375 154.6484375 149.194015546 154.6484375 192.147460938 c 0
154.6484375 523.852539062 m 0
 154.6484375 566.805159203 182.378689784 594.75390625 224.999023438 594.75390625 c 0
 267.62036589 594.75390625 295.3515625 566.805159203 295.3515625 523.852539062 c 0
 295.3515625 480.898176754 267.62036589 452.950195312 224.999023438 452.950195312 c 0
 182.378689784 452.950195312 154.6484375 480.898176754 154.6484375 523.852539062 c 0
EndSplineSet
EndChar

StartChar: AE
Encoding: 198 198 176
Width: 1024
Flags: W
HStem: 0 123.25<661 987.5> 145 122.6<225.5 626> 301.75 126.5<590 927.5> 607.758 123.25<661 987.5>
VStem: 518 108<145 267.6> 518 68<633.5 731.008> 590 71<301.75 428.25>
LayerCount: 2
Fore
SplineSet
927.5 301.75 m 1xf2
 590 301.75 l 1
 590 428.25 l 1
 927.5 428.25 l 1
 927.5 301.75 l 1xf2
661 607.7578125 m 1
 661 123.25 l 1
 987.5 123.25 l 1
 987.5 0 l 1
 518 0 l 1
 518 731.0078125 l 1xf6
 987.5 731.0078125 l 1
 987.5 607.7578125 l 1
 661 607.7578125 l 1
626 145 m 1xf8
 155.5 145 l 1
 225.5 267.6 l 1
 626 267.6 l 1
 626 145 l 1xf8
586 731.0078125 m 1xf4
 586 633.5 l 1
 176.5 0 l 1
 11.5 0 l 1
 508 731.0078125 l 1
 586 731.0078125 l 1xf4
EndSplineSet
EndChar

StartChar: ae
Encoding: 230 230 177
Width: 872
Flags: W
HStem: -9.99805 105.212<180.65 315.11> -9.99805 109.112<553.807 772.492> 205 91.25<456.05 709.75> 224.684 85.2494<198.68 366.377> 402.811 108.2<132.612 311.111> 403.834 107.099<539.006 670.666>
VStem: 33.25 133.399<111.303 197.426> 350.529 101.45<168.5 362.156> 350.529 15.8486<224.684 309.934> 456.05 37.2486<205 296.25>
LayerCount: 2
Fore
SplineSet
350.528710938 188.061523438 m 1x9340
 459.5 175.5 l 1
 437.92039159 58.5963958374 365.217572031 -9.998046875 225.938671875 -9.998046875 c 0
 96.1669388333 -9.998046875 33.25 50 33.25 141 c 0
 33.25 286.71747631 162.178888432 309.797851562 366.528710938 309.93359375 c 1
 366.37734375 224.684179688 l 1x92c0
 193.803470278 224.57962223 166.648632812 199.647466978 166.648632812 155.311523438 c 0
 166.648632812 115.447896438 196.929932198 95.2138671877 246.438671875 95.2138671877 c 0
 300.999276251 95.2138671877 350.528710938 125.683455449 350.528710938 188.061523438 c 1x9340
451.978710938 168.5 m 1x0b40
 350.528710938 165 l 1x0ac0
 350.528710938 290.360742188 l 2
 350.528710938 368.941839402 302.127149685 402.810742188 236.678710938 402.810742188 c 0
 160.18201538 402.810742188 105.528710938 367.460742188 105.528710938 367.460742188 c 1
 70.3287109375 467.010742188 l 1
 70.3287109375 467.010742188 134.817312597 511.010742188 253.375048828 511.010742188 c 0
 369.41483847 511.010742188 451.978710938 440.139120815 451.978710938 333.010742188 c 2
 451.978710938 168.5 l 1x0b40
EndSplineSet
Refer: 43 101 N 1 0 0 1 321 0 2
EndChar

StartChar: Eth
Encoding: 208 208 178
Width: 789
Flags: W
HStem: 0 127.602<266.5 481.515> 300.4 120.2<30 434> 603.4 127.608<266.5 481.943>
VStem: 123.5 143<127.602 603.4> 604.429 143.849<240.757 488.57>
LayerCount: 2
Fore
SplineSet
434 300.4 m 1
 30 300.4 l 1
 30 420.6 l 1
 434 420.6 l 1
 434 300.4 l 1
EndSplineSet
Refer: 5 68 N 1 0 0 1 62 0 2
EndChar

StartChar: eth
Encoding: 240 240 179
Width: 588
Flags: W
HStem: -9.99805 119.712<221.974 366.814> 398.034 112.899<223.046 369.731>
VStem: 44.5713 128.849<162.757 343.51> 419.5 132.849<166.734 440> 419.5 62.8486<281.562 346.734>
LayerCount: 2
Fore
SplineSet
181.078125 616.658203125 m 1xe0
 507.991210938 710.080078125 l 1
 532.170898438 625.467773438 l 1
 205.256835938 532.044921875 l 1
 181.078125 616.658203125 l 1xe0
419.5 251.561523438 m 0xf0
 419.5 498.571998748 366.5 562.496404472 232.43359375 701.048828125 c 1
 351.327148438 771.274414062 l 1
 351.327148438 771.274414062 552.348632812 601 552.348632812 279 c 0xf0
 552.348632812 93.8330078125 455.108682229 -9.998046875 296.959960938 -9.998046875 c 0
 140.069834102 -9.998046875 44.5712890625 94.0830078124 44.5712890625 253.561523438 c 0
 44.5712890625 409.295898438 128.630944807 510.93359375 275 510.93359375 c 0
 396.337900716 510.93359375 482.348632812 423.747070312 482.348632812 281.561523438 c 1xe8
 419.5 273.561523438 l 1
 419.5 346.734199532 377.516226961 398.034179688 298.848632812 398.034179688 c 0
 210.984589884 398.034179688 173.419921875 340.194813015 173.419921875 253.561523438 c 0
 173.419921875 167.303274743 210.419199368 109.713867188 296.959960938 109.713867188 c 0
 385.298701484 109.713867188 419.5 179.817706155 419.5 251.561523438 c 0xf0
EndSplineSet
EndChar

StartChar: Thorn
Encoding: 222 222 180
Width: 650
Flags: W
HStem: 0 21G<61.5 204.5> 154 108.952<157.5 425.993> 488.049 112.958<158.5 426.286> 711.008 20G<61.5 204.5>
VStem: 61.5 143<0 154 262.952 488.049 601.008 731.008> 158.5 46<154 262.952 488.049 601.008> 475.429 133.849<304.881 445.442>
LayerCount: 2
Fore
SplineSet
61.5 0 m 1xfa
 61.5 731.0078125 l 1
 204.5 731.0078125 l 1
 204.5 0 l 1
 61.5 0 l 1xfa
157.5 154 m 1
 157.5 262.9515625 l 1
 320.388671875 263.061914062 l 2
 409.149276637 263.184801956 475.428710938 283.110771499 475.428710938 374.561523438 c 0
 475.428710938 466.746733211 409.139476173 487.915695891 320.388671875 487.945898438 c 2
 158.5 488.049414062 l 1
 158.5 601.0078125 l 1xf6
 352.388671875 601.0078125 l 2
 487.55048035 601.0078125 609.27734375 539.335495382 609.27734375 374.561523438 c 0
 609.27734375 213.240207598 486.759109269 154 352.388671875 154 c 2
 157.5 154 l 1
EndSplineSet
EndChar

StartChar: thorn
Encoding: 254 254 181
Width: 602
Flags: W
HStem: -9.99805 113.712<240.213 386.535> 398.034 112.899<246.285 384.762> 731.002 20G<61.5 194.5>
VStem: 61.5 133<-180 751.002> 119.651 74.8486<66.4395 183.562> 144.651 49.8486<283.562 425.747> 433.58 128.849<156.331 347.9>
LayerCount: 2
Fore
SplineSet
61.5 -180 m 1xf2
 61.5 751.001953125 l 1
 194.5 751.001953125 l 1
 194.5 -180 l 1
 61.5 -180 l 1xf2
194.5 213.561523438 m 1
 194.5 160.044230087 230.450805597 103.713867188 314.540039062 103.713867188 c 0
 397.927813904 103.713867188 433.580078125 163.704510772 433.580078125 253.561523438 c 0
 433.580078125 340.194813015 397.962096327 398.034179688 314.651367188 398.034179688 c 0
 230.485216703 398.034179688 194.5 352.205628727 194.5 283.561523438 c 1xf2
 144.651367188 283.561523438 l 1xe6
 144.651367188 425.747070312 220.965820312 510.93359375 338.5 510.93359375 c 0
 480.740234375 510.93359375 562.428710938 409.295898438 562.428710938 253.561523438 c 0
 562.428710938 94.0830078124 476.95703125 -9.998046875 336.540039062 -9.998046875 c 0
 201.717773438 -9.998046875 119.651367188 66.4394531249 119.651367188 183.561523438 c 1xea
 194.5 213.561523438 l 1
EndSplineSet
EndChar

StartChar: kgreenlandic
Encoding: 312 312 182
Width: 555
Flags: W
HStem: 0 21G<68 201 348.994 532> 217.5 77<99.5 185.5> 481.011 20G<68 201 345.403 522>
VStem: 68 133<0 217.5 294.5 501.011> 99.5 101.5<217.5 294.5>
LayerCount: 2
Fore
SplineSet
185.5 294.5 m 1xe8
 185.5 217.5 l 1
 99.5 217.5 l 1
 99.5 294.5 l 1
 185.5 294.5 l 1xe8
365.55 0 m 1
 185.5 217.5 l 1
 185.5 294.5 l 1
 362.55 501.010742188 l 1
 522 501.010742188 l 1
 306 267.45 l 1
 532 0 l 1
 365.55 0 l 1
68 0 m 1xf0
 68 501.010742188 l 1
 201 501.010742188 l 1
 201 0 l 1
 68 0 l 1xf0
EndSplineSet
EndChar

StartChar: Eng
Encoding: 330 330 183
Width: 719
Flags: W
HStem: -189.994 110.5<338.289 498.887> 0 21G<61.5 199.7> 711.008 20G<61.5 220.165 519.3 657.5>
VStem: 61.5 138.2<0 490.505> 519.3 138.2<253.1 731.008>
LayerCount: 2
Back
SplineSet
75 0 m 5
 75 731.0078125 l 5
 208 731.0078125 l 5
 517 228.599609375 l 5
 517 731.0078125 l 5
 644 731.0078125 l 5
 644 0 l 5
 511 0 l 5
 202 515.004882812 l 5
 202 0 l 5
 75 0 l 5
EndSplineSet
Fore
SplineSet
61.5 0 m 1
 61.5 731.0078125 l 1
 207.1 731.0078125 l 1
 519.3 253.099609375 l 1
 519.3 731.0078125 l 1
 657.5 731.0078125 l 1
 657.5 -3 l 2
 657.5 -125.529296875 601.810344828 -189.994140625 467.5 -189.994140625 c 0
 378.737488586 -189.994140625 326.5 -169.994140625 326.5 -169.994140625 c 1
 340.5 -64.494140625 l 1
 340.5 -64.494140625 381.130187989 -79.494140625 438 -79.494140625 c 0
 486.946448871 -79.494140625 512.939235918 -59.7080434099 517.776392703 -9.43686363961 c 1
 199.7 490.504882812 l 1
 199.7 0 l 1
 61.5 0 l 1
EndSplineSet
Substitution2: "'ss06' Style Set 6 lookup 7-1" Eng.ss06
EndChar

StartChar: eng
Encoding: 331 331 184
Width: 595
Flags: W
HStem: -189.994 113.65<252.169 381.681> 0 21G<61.5 194.5> 403.034 107.899<241.224 368.39> 481.011 20G<61.5 194.5>
VStem: 61.5 133<0 501.011> 401.277 133<-58.9052 364.662>
LayerCount: 2
Fore
SplineSet
61.5 0 m 1xdc
 61.5 501.010742188 l 1
 194.5 501.010742188 l 1
 194.5 0 l 1
 61.5 0 l 1xdc
194.5 284 m 1
 136 293.561523438 l 1
 158.574426506 444 212.103327188 510.93359375 345.5 510.93359375 c 0
 470.166135504 510.93359375 534.27734375 444.084682028 534.27734375 304.561523438 c 2
 534.27734375 304.561523438 534.27734375 1.5 534.27734375 1.5 c 2
 534.27734375 -113.757389383 482.251633387 -189.994140625 356.77734375 -189.994140625 c 0
 287.614453125 -189.994140625 239.77734375 -172.694140625 239.77734375 -172.694140625 c 1
 253.77734375 -64.694140625 l 1
 253.77734375 -64.694140625 282.510438232 -76.344140625 322.72734375 -76.344140625 c 0
 378.030375053 -76.344140625 401.27734375 -51.1483574925 401.27734375 7.305859375 c 2
 401.27734375 287.561523438 l 2
 401.27734375 360.476912057 370.785311574 403.034179688 299 403.034179688 c 0xec
 225.7971391 403.034179688 194.5 355.379264459 194.5 284 c 1
EndSplineSet
EndChar

StartChar: OE
Encoding: 338 338 185
Width: 991
Flags: W
HStem: 0 123.25<621.5 959.5> 0 125.112<306.199 532.777> 301.75 126.5<550.5 899.5> 606.546 124.462<307.352 532.777> 607.758 123.25<621.5 959.5>
VStem: 48 138.849<240.071 489.422> 550.5 71<301.75 428.25>
LayerCount: 2
Fore
SplineSet
532.77734375 125.0015625 m 1x76
 532.77734375 0 l 1
 421.888671875 0 l 2
 226.319335938 0 48 97.9169921874 48 364.561523438 c 0
 48 631.206054688 225.16796875 731.0078125 421.888671875 731.0078125 c 2
 532.77734375 731.0078125 l 1
 532.77734375 606.649414062 l 1
 441.888671875 606.545898438 l 2
 295.878719821 606.39490985 186.848632812 561.301840188 186.848632812 364.561523438 c 0
 186.848632812 168.1682387 295.878719821 125.271373842 441.888671875 125.111914062 c 2
 532.77734375 125.0015625 l 1x76
EndSplineSet
Refer: 10 69 N 1 0 0 1 417 0 2
EndChar

StartChar: oe
Encoding: 339 339 186
Width: 920
Flags: W
HStem: -9.99805 116.462<218.903 369.777> -9.99805 109.112<601.807 820.492> 205 91.25<504.05 757.75> 394.284 116.649<218.925 369.799> 403.834 107.099<587.006 718.666>
VStem: 41.5 128.849<161.721 342.315> 419.429 128.849<129.719 373.621> 504.05 44.2273<207.031 295.896>
LayerCount: 2
Fore
SplineSet
170.348632812 253.561523438 m 0xb6
 170.348632812 165.354199219 207.348291015 106.463867188 293.888671875 106.463867188 c 0
 381.830078125 106.463867188 419.428710938 165.354199219 419.428710938 253.561523438 c 0
 419.428710938 337.946582031 381.863623047 394.284179688 294 394.284179688 c 0
 207.381494141 394.284179688 170.348632812 337.946582031 170.348632812 253.561523438 c 0xb6
41.5 253.561523438 m 0
 41.5 409.295898438 136.998925781 510.93359375 293.888671875 510.93359375 c 0
 452.021582031 510.93359375 548.27734375 409.295898438 548.27734375 253.561523438 c 0
 548.27734375 94.0830078125 452.021582031 -9.998046875 293.888671875 -9.998046875 c 0
 136.998925781 -9.998046875 41.5 94.0830078125 41.5 253.561523438 c 0
410.5 253.561523438 m 0
 410.5 409.295898438 503.728759765 510.93359375 656.888671875 510.93359375 c 0
 833.582617187 510.93359375 888.965820312 373.274414062 888.965820312 274.7109375 c 0
 888.965820312 231.673828125 884.5 205 884.5 205 c 1
 504.05 205 l 1
 504.05 296.25 l 1
 757.75 296.25 l 1
 757.75 296.25 757.374804688 302.583300781 755.51484375 313.2 c 0
 748.459179687 356.425390624 724.155419922 403.834179688 650.3 403.834179688 c 0
 573.944238281 403.834179688 541.298632812 344.413574219 541.298632812 255.411523438 c 0
 541.298632812 153.27734375 585.34819336 99.1138671877 697.55 99.1138671877 c 0
 784.83125 99.1138671877 834.568554688 127.245703125 834.568554688 127.245703125 c 1
 855.827148438 18.245703125 l 1
 855.827148438 18.245703125 796.295898438 -9.998046875 692.888671875 -9.998046875 c 0x6d
 497.800537109 -9.998046875 410.5 94.0830078125 410.5 253.561523438 c 0
EndSplineSet
EndChar

StartChar: longs
Encoding: 383 383 187
Width: 269
Flags: W
HStem: 0 21G<68 201> 653.411 107.6<222.886 357.175>
VStem: 68 133<0 630.327>
LayerCount: 2
Fore
SplineSet
201 557.010742188 m 2
 201 0 l 1
 68 0 l 1
 68 570.010742188 l 2
 68 684.97265625 121.930877221 761.010742188 252 761.010742188 c 0
 321.162890625 761.010742188 369 745.010742188 369 745.010742188 c 1
 355 642.410742188 l 1
 355 642.410742188 327.079516601 653.410742188 288 653.410742188 c 0
 226.747756545 653.410742188 201 624.374162565 201 557.010742188 c 2
EndSplineSet
EndChar

StartChar: uni018F
Encoding: 399 399 188
Width: 765
Flags: W
HStem: -9.99805 129.062<289.35 476.943> 318.123 120.5<189.608 627.608> 609.409 129.712<168.482 452.819>
VStem: 583.76 45.8486<318.123 438.623>
LayerCount: 2
Back
SplineSet
35 364.561523438 m 0
 35 591.206054688 163.541887394 739.12109375 389.888671875 739.12109375 c 0
 653.541980974 739.12109375 740.108398438 551.971330386 740.108398438 365.891601562 c 0
 740.108398438 303.039520695 732 284 732 284 c 1
 162 284 l 1
 160 424 l 1
 562 424 l 1
 562 424 560.13712938 586.659179688 391 586.659179688 c 0
 261.796380576 586.659179688 205.848632812 497.743164062 205.848632812 364.561523438 c 4
 205.848632812 231.379882812 273.845797251 142.463867188 432.888671875 142.463867188 c 0
 580.720714467 142.463867188 659.018554688 179.595703125 659.018554688 179.595703125 c 1
 682.827148438 32.595703125 l 1
 682.827148438 32.595703125 604.343305548 -9.998046875 425.888671875 -9.998046875 c 0
 176.581210181 -9.998046875 35 137.916992188 35 364.561523438 c 0
EndSplineSet
Fore
SplineSet
728.608398438 364.561523438 m 0
 728.608398438 137.916992187 602.420833214 -9.998046875 380.219726562 -9.998046875 c 0
 121.459764066 -9.998046875 36.5 170.63308124 36.5 350.231445312 c 0
 36.5 418.07229814 44.6083984375 438.623046875 44.6083984375 438.623046875 c 1
 627.608398438 438.623046875 l 1
 629.608398438 318.123046875 l 1
 189.608398438 318.123046875 l 1
 189.608398438 318.123046875 189.606309037 308.573489279 191.708904424 287.750000352 c 0
 196.099371894 218.21964536 249.361949459 119.063867188 380.108398438 119.063867188 c 0
 522.221816992 119.063867188 583.759765625 217.347990521 583.759765625 364.561523438 c 0
 583.759765625 511.385281568 509.922465182 609.409179688 337.219726562 609.409179688 c 0
 193.637048384 609.409179688 117.58984375 569.67734375 117.58984375 569.67734375 c 1
 93.78125 693.92734375 l 1
 93.78125 693.92734375 170.279617668 739.12109375 344.219726562 739.12109375 c 0
 589.381510426 739.12109375 728.608398438 591.206054687 728.608398438 364.561523438 c 0
EndSplineSet
EndChar

StartChar: florin
Encoding: 402 402 190
Width: 398
Flags: W
HStem: -190.011 113.65<-41.1084 88.4037> 395.75 105.261<27 369> 653.411 107.6<262.886 397.175>
VStem: 108 133<-58.9218 630.327>
LayerCount: 2
Fore
SplineSet
27 501.010742188 m 1
 369 501.010742188 l 1
 369 395.75 l 1
 27 395.75 l 1
 27 501.010742188 l 1
108 7.2892578125 m 2
 108 570.010742188 l 2
 108 684.97265625 161.930877221 761.010742188 292 761.010742188 c 0
 361.162890625 761.010742188 409 745.010742188 409 745.010742188 c 1
 395 642.410742188 l 1
 395 642.410742188 367.079516601 653.410742188 328 653.410742188 c 0
 266.747756545 653.410742188 241 624.374162565 241 557.010742188 c 2
 241 557.010742188 241 1.4892578125 241 1.4892578125 c 2
 241 -113.773775363 188.974137931 -190.010742188 63.5 -190.010742188 c 0
 -5.66290134337 -190.010742188 -53.5 -172.710742188 -53.5 -172.710742188 c 1
 -39.5 -64.7107421875 l 1
 -39.5 -64.7107421875 -10.7671644945 -76.3607421875 29.45 -76.3607421875 c 0
 84.7533422851 -76.3607421875 108 -51.164959055 108 7.2892578125 c 2
EndSplineSet
EndChar

StartChar: uni01B7
Encoding: 439 439 191
Width: 584
Flags: W
HStem: -9.99805 118.487<110.784 352.36> 608.4 122.6<40 354.2>
VStem: 406.327 142.084<154.568 287.243>
LayerCount: 2
Fore
SplineSet
349.95 428 m 1
 349.95 428 548.411132812 427.71416832 548.411132812 218.270898438 c 0
 548.411132812 55.2851453453 429.11965682 -9.998046875 250 -9.998046875 c 0
 102.934570312 -9.998046875 15.451171875 40.9091796875 15.451171875 40.9091796875 c 1
 52.3744140625 155.912695312 l 1
 52.3744140625 155.912695312 126.5890549 108.489453125 243 108.489453125 c 0
 355.98317367 108.489453125 406.327148438 148.915199103 406.327148438 221.8 c 0
 406.327148438 296.013920705 351.589359674 331.836473649 246.638671875 332.137304688 c 2
 170.5 332.4 l 1
 170.5 398 l 1
 354.2 608.4 l 1
 40 608.4 l 1
 40 731 l 1
 521 731 l 1
 521 625 l 1
 349.95 428 l 1
EndSplineSet
EndChar

StartChar: uni0292
Encoding: 658 658 192
Width: 524
Flags: W
HStem: -189.994 109.838<74.7276 312.43> 388.411 112.6<44 308.6>
VStem: 358.077 130.334<-39.4633 81.6106>
LayerCount: 2
Fore
SplineSet
299.3 210.4 m 1
 299.3 210.4 488.411132812 210.137342286 488.411132812 17.6748046875 c 0
 488.411132812 -130.60239263 377.114765774 -189.994140625 210 -189.994140625 c 0
 94.2852768714 -189.994140625 25.451171875 -159.086914062 25.451171875 -159.086914062 c 1
 51.2744140625 -48.8333984375 l 1
 51.2744140625 -48.8333984375 111.025760829 -80.156640625 204.75 -80.156640625 c 0
 310.815574561 -80.156640625 358.077148438 -43.7445514057 358.077148438 21.90390625 c 0
 358.077148438 88.0465128056 305.56696431 119.946765909 204.888671875 120.241210938 c 2
 130.5 120.50390625 l 1
 130.5 190.00390625 l 1
 308.6 388.410742188 l 1
 44 388.410742188 l 1
 44 501.010742188 l 1
 474 501.010742188 l 1
 474 405.010742188 l 1
 299.3 210.4 l 1
EndSplineSet
EndChar

StartChar: Oslash
Encoding: 216 216 193
Width: 797
Flags: W
HStem: -9.99805 129.712<294.431 503.346> 609.409 129.712<294.431 503.346>
VStem: 41.5 142.099<237.154 491.969> 614.179 142.099<237.154 491.969>
LayerCount: 2
Fore
SplineSet
151.5 -91.4697265625 m 1
 536.5 801.403320312 l 1
 645.5 801.403320312 l 1
 260.5 -91.4697265625 l 1
 151.5 -91.4697265625 l 1
EndSplineSet
Refer: 1 79 N 1 0 0 1 0 0 2
EndChar

StartChar: oslash
Encoding: 248 248 194
Width: 589
Flags: W
HStem: -9.99805 116.462<218.903 369.777> 394.284 116.649<218.925 369.799>
VStem: 41.5 128.849<161.721 342.315> 419.429 128.849<161.721 342.315>
LayerCount: 2
Fore
SplineSet
64 -91.4697265625 m 1
 425 581.403320312 l 1
 525 581.403320312 l 1
 164 -91.4697265625 l 1
 64 -91.4697265625 l 1
EndSplineSet
Refer: 29 111 N 1 0 0 1 0 0 2
EndChar

StartChar: ring
Encoding: 730 730 197
Width: 355
Flags: W
HStem: 480.07 82.1465<133.13 221.796> 678.668 82.334<132.803 223.958>
VStem: 33.25 89.9531<570.794 670.151> 232.574 89.9531<572.492 670.151>
LayerCount: 2
Fore
SplineSet
123.203125 622.396484375 m 0
 123.203125 586.309781952 139.314129146 562.216796875 176.99609375 562.216796875 c 0
 215.928795379 562.216796875 232.57421875 586.309781952 232.57421875 622.396484375 c 0
 232.57421875 656.139874803 215.958564097 678.66796875 177.094726562 678.66796875 c 0
 139.343898465 678.66796875 123.203125 656.139874803 123.203125 622.396484375 c 0
33.25 622.629882812 m 0
 33.25 706.358572334 87.5998091949 761.001953125 176.888671875 761.001953125 c 0
 267.420715305 761.001953125 322.52734375 706.358572334 322.52734375 622.629882812 c 0
 322.52734375 536.367848721 267.420715305 480.0703125 176.888671875 480.0703125 c 0
 87.5998091949 480.0703125 33.25 536.367848721 33.25 622.629882812 c 0
EndSplineSet
EndChar

StartChar: ogonek
Encoding: 731 731 198
Width: 307
VWidth: 999
Flags: W
HStem: -255 79<150.99 263.218>
VStem: 36.5 102<-162.972 -46.049>
LayerCount: 2
Fore
SplineSet
36.5 -130 m 0
 36.5 -30.5220125786 124.5 39 124.5 39 c 1
 221.5 39 l 1
 221.5 39 138.5 -29.3503184713 138.5 -108 c 0
 138.5 -156.888552296 161.875401088 -176 203 -176 c 0
 241.620592949 -176 259 -162 259 -162 c 1
 277 -232 l 1
 277 -232 244.426287616 -255 179 -255 c 0
 91.2534507388 -255 36.5 -210.528428819 36.5 -130 c 0
EndSplineSet
EndChar

StartChar: minute
Encoding: 8242 8242 203
Width: 235
Flags: W
HStem: 456 275.008<91.4 104.9>
VStem: 11.4 213.5
LayerCount: 2
Fore
SplineSet
11.4 456 m 1
 91.4 731.0078125 l 1
 224.9 731.0078125 l 1
 104.9 456 l 1
 11.4 456 l 1
EndSplineSet
EndChar

StartChar: bullet
Encoding: 8226 8226 206
Width: 325
Flags: W
HStem: 243 240.449<88.295 236.931>
VStem: 43 239.227<288.527 437.922>
LayerCount: 2
Fore
SplineSet
43 363.224609375 m 0
 43 436.058088763 90.148702207 483.44921875 162.612304688 483.44921875 c 0
 235.076823475 483.44921875 282.2265625 436.058088763 282.2265625 363.224609375 c 0
 282.2265625 290.389870589 235.076823475 243 162.612304688 243 c 0
 90.148702207 243 43 290.389870589 43 363.224609375 c 0
EndSplineSet
EndChar

StartChar: dagger
Encoding: 8224 8224 207
Width: 530
Flags: W
HStem: 373.011 115<30 500>
VStem: 188.5 153<-171.47 6.49998> 198.5 133<587.078 759.47> 212 106<248.732 598.91>
LayerCount: 2
Fore
SplineSet
188.5 -171.469726562 m 1xc0
 212 427 l 1x90
 198.5 759.469726562 l 1
 331.5 759.469726562 l 1xa0
 318 426 l 1x90
 341.5 -171.469726562 l 1
 188.5 -171.469726562 l 1xc0
30 373.010742188 m 1
 30 488.010742188 l 1
 500 488.010742188 l 1
 500 373.010742188 l 1
 30 373.010742188 l 1
EndSplineSet
EndChar

StartChar: daggerdbl
Encoding: 8225 8225 208
Width: 530
Flags: W
HStem: 83.0107 115<30 500> 423.011 115<30 500>
VStem: 198.5 133<-171.47 -12.041 223.667 399.926 613.004 759.47> 212 106<-22.9473 230.333 394.074 622.984>
LayerCount: 2
Fore
SplineSet
30 83.0107421875 m 1xc0
 30 198.010742188 l 1
 500 198.010742188 l 1
 500 83.0107421875 l 1
 30 83.0107421875 l 1xc0
198.5 -171.469726562 m 1xe0
 212 137 l 1xd0
 198.5 317 l 1xe0
 212 477 l 1xd0
 198.5 759.469726562 l 1
 331.5 759.469726562 l 1xe0
 318 476 l 1xd0
 331.5 318 l 1xe0
 318 136 l 1xd0
 331.5 -171.469726562 l 1
 198.5 -171.469726562 l 1xe0
30 423.010742188 m 1
 30 538.010742188 l 1
 500 538.010742188 l 1
 500 423.010742188 l 1
 30 423.010742188 l 1
EndSplineSet
EndChar

StartChar: uni2116
Encoding: 8470 8470 209
Width: 1126
Flags: W
HStem: 0 21G<61.5 199.7 499.17 657.5> 245.5 92.5<734.1 1071.9> 378.061 103.526<853.071 961.965> 635.278 103.714<852.555 962.526> 711.008 20G<61.5 220.165 519.3 657.5>
VStem: 61.5 138.2<0 490.505> 519.3 138.2<253.1 731.008> 726.711 109.412<498.405 618.29> 979.877 109.412<501.201 617.738>
LayerCount: 2
Fore
SplineSet
734.1 338 m 1xe780
 1071.9 338 l 1
 1071.9 245.5 l 1
 734.1 245.5 l 1
 734.1 338 l 1xe780
836.1234375 560.844726562 m 0
 836.1234375 513.317841444 857.320270684 481.586914062 906.897460938 481.586914062 c 0
 958.019617115 481.586914062 979.8765625 513.317841444 979.8765625 560.844726562 c 0
 979.8765625 605.479088759 958.056769341 635.278320312 907.020507812 635.278320312 c 0xf780
 857.357424208 635.278320312 836.1234375 605.479088759 836.1234375 560.844726562 c 0
726.711328125 560.620117188 m 0
 726.711328125 668.552734375 794.928715466 738.9921875 907 738.9921875 c 0
 1020.3144497 738.9921875 1089.28867188 668.552734375 1089.28867188 560.620117188 c 0
 1089.28867188 450.154296875 1020.3144497 378.060546875 907 378.060546875 c 0
 794.928715466 378.060546875 726.711328125 450.154296875 726.711328125 560.620117188 c 0
EndSplineSet
Refer: 11 78 N 1 0 0 1 0 0 2
EndChar

StartChar: uni20BF
Encoding: 8383 8383 210
Width: 640
Flags: W
HStem: -105 174.47<151 264 345 458> 0 123.71<201.25 427.546> 307.656 115.695<157.5 405.653> 607.399 123.608<201.25 399.735> 655 174.47<151 264 345 458>
VStem: 151 113<-105 69.4697 655 829.47> 157.5 43.75<307.656 423.352> 345 113<-105 69.4697 655 829.47> 439.679 140.599<455.378 572.8> 462.679 140.599<153.752 273.127>
LayerCount: 2
Fore
SplineSet
345 -105 m 1xa1
 345 69.4697265625 l 1
 458 69.4697265625 l 1
 458 -105 l 1
 345 -105 l 1xa1
345 655 m 1x29
 345 829.469726562 l 1
 458 829.469726562 l 1
 458 655 l 1
 345 655 l 1x29
151 -105 m 1xa4
 151 69.4697265625 l 1
 264 69.4697265625 l 1
 264 -105 l 1
 151 -105 l 1xa4
151 655 m 1x2c
 151 829.469726562 l 1
 264 829.469726562 l 1
 264 655 l 1
 151 655 l 1x2c
EndSplineSet
Refer: 19 66 N 1 0 0 1 0 0 2
EndChar

StartChar: uni20A6
Encoding: 8358 8358 211
Width: 874
Flags: W
HStem: 0 21G<152.3 290.5 568.83 728.7> 259 86<36.5 247 627 837.5> 389 86<36.5 247 627 837.5> 711.008 20G<152.3 312.473 590.5 728.7>
VStem: 36.5 254<259 345 389 475> 152.3 138.2<0 259 345 389 475 497.005> 152.3 94.7<259 345 389 475> 590.5 247<259 345 389 475> 590.5 138.2<246.6 259 345 389 475 731.008> 627 101.7<259 345 389 475>
LayerCount: 2
Fore
SplineSet
837.5 259 m 1xf1
 627 259 l 1
 627 345 l 1xf040
 837.5 345 l 1
 837.5 259 l 1xf1
837.5 389 m 1xf1
 627 389 l 1
 627 475 l 1xf040
 837.5 475 l 1
 837.5 389 l 1xf1
247 259 m 1xf2
 36.5 259 l 1
 36.5 345 l 1xf8
 247 345 l 1
 247 259 l 1xf2
247 389 m 1xf2
 36.5 389 l 1
 36.5 475 l 1xf8
 247 475 l 1
 247 389 l 1xf2
152.3 0 m 1xf440
 152.3 731.0078125 l 1
 300.5 731.0078125 l 1
 590.5 246.599609375 l 1
 590.5 731.0078125 l 1
 728.7 731.0078125 l 1xf280
 728.7 0 l 1
 580.5 0 l 1
 290.5 497.004882812 l 1
 290.5 0 l 1
 152.3 0 l 1xf440
EndSplineSet
EndChar

StartChar: uni20BD
Encoding: 8381 8381 212
Width: 703
Flags: W
HStem: 0 21G<137.5 280.5> 158.352 86<30 544> 294.852 98.5<30 477.819> 607.399 123.608<280.5 472.399>
VStem: 137.5 143<0 607.399> 521.679 140.599<432.701 566.898>
LayerCount: 2
Fore
SplineSet
544 158.3515625 m 1
 30 158.3515625 l 1
 30 244.3515625 l 1
 544 244.3515625 l 1
 544 158.3515625 l 1
30 294.8515625 m 1
 30 393.3515625 l 1
 370.138671875 393.461914062 l 2
 456.895303835 393.574999741 521.678710938 411.990831012 521.678710938 496.511523438 c 0
 521.678710938 586.582740636 456.895303835 607.1828826 370.138671875 607.295898438 c 2
 280.5 607.399414062 l 1
 280.5 0 l 1
 137.5 0 l 1
 137.5 731.0078125 l 1
 378.388671875 731.0078125 l 2
 561.002929688 731.0078125 662.27734375 661.741040524 662.27734375 496.511523438 c 0
 662.27734375 366.067967897 570.897460938 294.8515625 416.5 294.8515625 c 2
 30 294.8515625 l 1
EndSplineSet
EndChar

StartChar: dong
Encoding: 8363 8363 213
Width: 645
Flags: W
HStem: 0 86<30 594> 150.002 102.899<236.013 367.704> 474.222 100.712<236.691 375.129> 612.5 81<301 608.5> 731.002 20G<405.5 538.5>
VStem: 70.5713 128.849<289.669 437.295> 405.5 133<355.374 751.002> 405.5 67.8486<387.374 496.904>
LayerCount: 2
Fore
SplineSet
594 0 m 1xfc
 30 0 l 1
 30 86 l 1
 594 86 l 1
 594 0 l 1xfc
608.5 612.5 m 1
 301 612.5 l 1
 301 693.5 l 1
 608.5 693.5 l 1
 608.5 612.5 l 1
538.5 160 m 1xfe
 405.5 160 l 1xfd
 405.5 751.001953125 l 1
 538.5 751.001953125 l 1
 538.5 160 l 1xfe
405.5 385.374023438 m 1xfe
 405.5 428.660326011 378.953944234 474.221679688 303.459960938 474.221679688 c 0
 234.582051247 474.221679688 199.419921875 428.844085277 199.419921875 360.874023438 c 0
 199.419921875 296.127675907 234.548364171 252.901367188 303.348632812 252.901367188 c 0
 378.919003762 252.901367188 405.5 293.926329511 405.5 355.374023438 c 1xfe
 468.348632812 367.374023438 l 1
 468.348632812 237.6953125 399.810568724 150.001953125 268 150.001953125 c 0
 132.911425647 150.001953125 70.5712890625 239.146700045 70.5712890625 360.874023438 c 0
 70.5712890625 486.289371658 139.269253131 574.93359375 272.959960938 574.93359375 c 0
 409.787891955 574.93359375 473.348632812 496.904399613 473.348632812 387.374023438 c 1xfd
 405.5 385.374023438 l 1xfe
EndSplineSet
EndChar

StartChar: uni1E9E
Encoding: 7838 7838 220
Width: 743
Flags: W
HStem: -10 114.924<352.16 532.971> 0 21G<61.5 204.5> 608.408 122.6<249.032 487>
VStem: 61.5 143<0 559.348> 574.3 137.2<145.341 277.328>
LayerCount: 2
Fore
SplineSet
61.5 494.9 m 2x78
 61.5 661.010248572 150.518181818 731.0078125 349.5 731.0078125 c 2
 658.5 731.0078125 l 1
 658.5 641.0078125 l 1
 508.1 418.5 l 1
 580.818134715 418.5 711.5 380.619323671 711.5 212.15 c 0
 711.5 62.1013157895 620.957317073 -10 472 -10 c 0
 362.10347084 -10 305 26 305 26 c 1
 336.05 134.65 l 1
 336.05 134.65 381.705739992 104.924023438 457.815625 104.924023438 c 0xb8
 528.758729933 104.924023438 574.3 141.041846833 574.3 213.55 c 0
 574.3 286.386597938 528.040425532 319 419 319 c 2
 341 319 l 1
 341 389 l 1
 487 608.4078125 l 1
 338.5 608.4078125 l 2
 236.615702479 608.4078125 204.5 564.449637277 204.5 461.9078125 c 2
 204.5 0 l 1
 61.5 0 l 1
 61.5 494.9 l 2x78
EndSplineSet
EndChar

StartChar: germandbls
Encoding: 223 223 221
Width: 725
Flags: W
HStem: -9.99805 104.179<347.136 543.06> 0 21G<61.5 194.5> 405.404 106.179<439.285 528.947> 646.161 114.85<263.99 474.469>
VStem: 61.5 133<0 576.486> 295.754 130.758<322.751 390.719> 530.6 128.468<508.7 591.341> 554.971 129.219<108.69 176.372>
LayerCount: 2
Fore
SplineSet
459.796679688 201.318359375 m 0xbd
 331.253242774 230.781377326 295.754101562 278.194739688 295.754101562 354.3 c 0
 295.754101562 452.276930358 371.31564438 511.58359375 480 511.58359375 c 0
 514.151604239 511.58359375 530.6 508.7 530.6 508.7 c 1
 527.655890829 597.782342558 488.764285968 646.160742188 370 646.160742188 c 0
 232.967059839 646.160742188 194.5 585.918763538 194.5 467.010742188 c 2
 194.5 0 l 1
 61.5 0 l 1
 61.5 480.010742188 l 2
 61.5 651.613415948 137.589845346 761.010742188 361 761.010742188 c 0
 613.585724648 761.010742188 659.068164062 628.321042877 659.068164062 508 c 0x7e
 659.068164062 434.964318844 640.894921875 377.994335938 640.894921875 377.994335938 c 1
 640.894921875 377.994335938 590.853197288 405.404296875 517.093164062 405.404296875 c 0
 454.611274845 405.404296875 426.51171875 386.654516048 426.51171875 356.418554688 c 0
 426.51171875 331.018888554 445.058000179 316.175113004 506.737109375 300.986914062 c 0
 639.716448724 268.211335333 684.189453125 223.981782715 684.189453125 144.10234375 c 0
 684.189453125 49.1320345148 612.004659945 -9.998046875 476.856445312 -9.998046875 c 0
 360.96201098 -9.998046875 287.5 26.5625 287.5 26.5625 c 1
 314.314453125 129.361328125 l 1
 314.314453125 129.361328125 380.768841723 94.1814453123 462.243164062 94.1814453123 c 0
 525.062771997 94.1814453123 554.970507812 110.630679027 554.970507812 142.536914062 c 0
 554.970507812 169.480464418 538.328828092 183.369038506 459.796679688 201.318359375 c 0xbd
EndSplineSet
EndChar

StartChar: uni2113
Encoding: 8467 8467 222
Width: 619
Flags: W
HStem: -10 126.18<300.876 492.616> 643.872 117.13<322.666 423.272>
VStem: 438.644 134.496<484.327 627.874>
LayerCount: 2
Fore
SplineSet
102.5 303.099609375 m 0
 102.5 604.588812741 196.412932458 761.001953125 373.250390625 761.001953125 c 0
 516.534079455 761.001953125 573.139648438 662.566708764 573.139648438 570.75703125 c 0
 573.139648438 225.777161334 25.5 166 25.5 166 c 1
 11.5 281.45 l 1
 11.5 281.45 438.643554688 335.358291111 438.643554688 566.051953125 c 0
 438.643554688 614.962861989 416.953640564 643.872070312 375.250390625 643.872070312 c 0
 283.974345523 643.872070312 245.729492188 511.74764872 245.729492188 318.875 c 0
 245.729492188 187.28093071 269.020727742 116.179882812 386.85 116.179882812 c 0
 471.877631904 116.179882812 530.708007812 156.474804688 530.708007812 156.474804688 c 1
 563 42 l 1
 563 42 502.068063888 -10 367.400390625 -10 c 0
 196.287469101 -10 102.5 93.0958806184 102.5 303.099609375 c 0
EndSplineSet
EndChar

StartChar: uni20B8
Encoding: 8376 8376 223
Width: 614
Flags: W
HStem: 0 21G<235.5 378.5> 387.75 123.25<36.5 235.5 378.5 577.5> 387.75 93.25<235.5 378.5> 607.75 123.25<36.5 577.5>
VStem: 235.5 143<0 481>
LayerCount: 2
Fore
SplineSet
577.5 607.75 m 1x98
 36.5 607.75 l 1
 36.5 731 l 1
 577.5 731 l 1
 577.5 607.75 l 1x98
577.5 387.75 m 1xd8
 36.5 387.75 l 1
 36.5 511 l 1
 577.5 511 l 1
 577.5 387.75 l 1xd8
235.5 0 m 1
 235.5 481 l 1
 378.5 481 l 1xb8
 378.5 0 l 1
 235.5 0 l 1
EndSplineSet
EndChar

StartChar: uni20BC
Encoding: 8380 8380 224
Width: 839
Flags: W
HStem: 0 21G<61.5 204.5 348 491 631.277 774.277> 431.544 126.462<293.72 542.058> 711.008 20G<348 491>
VStem: 61.5 143<0 345.204> 348 143<0 731.008> 631.277 143<0 345.204>
LayerCount: 2
Fore
SplineSet
417.888671875 558.005859375 m 0
 684.043185632 558.005859375 774.27734375 434.96939844 774.27734375 246.446289062 c 2
 774.27734375 0 l 1
 631.27734375 0 l 1
 631.27734375 216.446289062 l 2
 631.27734375 345.429981949 601.856284506 431.543945312 417.888671875 431.543945312 c 0
 233.921059244 431.543945312 204.5 345.429981949 204.5 216.446289062 c 2
 204.5 0 l 1
 61.5 0 l 1
 61.5 246.446289062 l 2
 61.5 434.96939844 151.734158118 558.005859375 417.888671875 558.005859375 c 0
348 0 m 1
 348 731.0078125 l 1
 491 731.0078125 l 1
 491 0 l 1
 348 0 l 1
EndSplineSet
EndChar

StartChar: Ohorn
Encoding: 416 416 225
Width: 797
Flags: W
HStem: -9.99805 129.712<294.431 503.346> 609.409 129.712<294.431 503.346>
VStem: 41.5 142.099<237.154 491.969> 589.66 123.76<672.574 813.507> 614.179 142.099<237.154 491.969>
LayerCount: 2
Fore
SplineSet
559.580078125 825.799804688 m 1xf0
 691.259765625 825.799804688 l 1
 691.259765625 825.799804688 713.419921875 795.200195312 713.419921875 738.9921875 c 0
 713.419921875 645 631.099609375 592.639648438 631.099609375 592.639648438 c 1
 544.66015625 641.360351562 l 1
 544.66015625 641.360351562 589.66015625 688 589.66015625 733.729492188 c 0
 589.66015625 790.55078125 559.580078125 825.799804688 559.580078125 825.799804688 c 1xf0
EndSplineSet
Refer: 1 79 N 1 0 0 1 0 0 2
EndChar

StartChar: ohorn
Encoding: 417 417 226
Width: 589
Flags: W
HStem: -9.99805 116.462<218.903 369.777> 394.284 116.649<218.925 369.799>
VStem: 41.5 128.849<161.721 342.315> 415.66 117.76<462.574 603.507> 419.429 128.849<161.721 342.315>
LayerCount: 2
Fore
SplineSet
385.580078125 615.799804688 m 1xf0
 511.259765625 615.799804688 l 1
 511.259765625 615.799804688 533.419921875 585.200195312 533.419921875 528.9921875 c 0
 533.419921875 435 451.099609375 382.639648438 451.099609375 382.639648438 c 1
 370.66015625 431.360351562 l 1
 370.66015625 431.360351562 415.66015625 478 415.66015625 523.729492188 c 0
 415.66015625 580.55078125 385.580078125 615.799804688 385.580078125 615.799804688 c 1xf0
EndSplineSet
Refer: 29 111 N 1 0 0 1 0 0 2
EndChar

StartChar: Uhorn
Encoding: 431 431 227
Width: 777
Flags: W
HStem: -9.99805 129.712<264.146 451.632> 661 164.8<621.5 705.642> 711.008 20G<61.5 204.5 511.277 654.277>
VStem: 61.5 143<184.362 731.008> 511.277 143<184.362 731.008> 613.5 127<737.954 815.378>
LayerCount: 2
Fore
SplineSet
579.580078125 825.799804688 m 1xd4
 711.259765625 825.799804688 l 1
 711.259765625 825.799804688 740.5 800 740.5 752 c 0
 740.5 692 692.5 661 621.5 661 c 1xd4
 540.5 731.0078125 l 1xb4
 574.5 731.0078125 613.5 732.480474404 613.5 770 c 0
 613.5 804 579.580078125 825.799804688 579.580078125 825.799804688 c 1xd4
EndSplineSet
Refer: 6 85 N 1 0 0 1 0 0 2
EndChar

StartChar: uhorn
Encoding: 432 432 228
Width: 660
Flags: W
HStem: -9.92285 107.899<227.387 354.553> 0 21G<401.277 534.277> 481.011 20G<61.5 194.5 401.277 534.277>
VStem: 61.5 133<136.348 501.011> 401.277 133<207.449 501.011> 496.5 127<509.138 596.83>
LayerCount: 2
Fore
SplineSet
454.259765625 615.799804688 m 1x34
 585.939453125 615.799804688 l 1
 585.939453125 615.799804688 623.5 584.757147575 623.5 527.002929688 c 0
 623.5 463.70622639 575.5 431.002929688 504.5 431.002929688 c 1
 423.5 501.010742188 l 1
 457.5 501.010742188 496.5 502.672238349 496.5 545.002929688 c 0
 496.5 588.140961504 454.259765625 615.799804688 454.259765625 615.799804688 c 1x34
EndSplineSet
Refer: 50 117 N 1 0 0 1 0 0 2
EndChar

StartChar: integral
Encoding: 8747 8747 229
Width: 448
Flags: W
HStem: -190.011 116.25<-47.6081 81.8684> 652.761 108.25<316.394 447.175>
LayerCount: 2
Fore
SplineSet
108 31.9892578125 m 2
 158 570.010742188 l 2
 167.979359136 684.979719828 211.930877221 761.010742188 342 761.010742188 c 0
 411.162890625 761.010742188 459 745.010742188 459 745.010742188 c 1
 445 641.760742188 l 1
 445 641.760742188 415.454294433 652.760742188 374.1 652.760742188 c 0
 315.593546769 652.760742188 297.300552219 624.555369242 291 557.010742188 c 2
 241 20.9892578125 l 2
 229.944284184 -105.906604899 187.068965517 -190.010742188 57 -190.010742188 c 0
 -12.1629013434 -190.010742188 -60 -174.010742188 -60 -174.010742188 c 1
 -46 -62.7607421875 l 1
 -46 -62.7607421875 -16.4545607347 -73.7607421875 24.9 -73.7607421875 c 0
 83.4067822265 -73.7607421875 101.081204866 -42.4599507484 108 31.9892578125 c 2
EndSplineSet
EndChar

StartChar: dotlessi
Encoding: 305 305 231
Width: 269
Flags: W
HStem: 0 21G<68 201> 481.011 20G<68 201>
VStem: 68 133<0 501.011>
LayerCount: 2
Fore
SplineSet
68 0 m 1
 68 501.010742188 l 1
 201 501.010742188 l 1
 201 0 l 1
 68 0 l 1
EndSplineSet
EndChar

StartChar: uni0237
Encoding: 567 567 232
Width: 269
Flags: W
HStem: -190 113.65<-77.7699 48.4037> 481.011 20G<68 201>
VStem: 68 133<-58.911 501.011>
LayerCount: 2
Back
SplineSet
75 -6 m 6xe8
 75 501.010742188 l 5
 194 501.010742188 l 5
 194 -9 l 6
 194 -117.943127962 145.051724138 -190 27 -190 c 4
 -38.0249499809 -190 -83 -172 -83 -172 c 5
 -69 -78 l 5
 -69 -78 -42.7466477614 -90 -6 -90 c 4
 51.0282714843 -90 75 -64.6987951807 75 -6 c 6xe8
EndSplineSet
Fore
SplineSet
68 7.3 m 2
 68 501.010742188 l 1
 201 501.010742188 l 1
 201 501.010742188 201 1.5 201 1.5 c 2
 201 -113.763033175 148.974137931 -190 23.5 -190 c 0
 -43.5939256621 -190 -90 -172.7 -90 -172.7 c 1
 -76 -64.7 l 1
 -76 -64.7 -48.7256840632 -76.35 -10.55 -76.35 c 0
 44.7533422851 -76.35 68 -51.1542168675 68 7.3 c 2
EndSplineSet
EndChar

StartChar: uni20B3
Encoding: 8371 8371 233
Width: 824
Flags: W
HStem: 0 21G<74 227.206 596.751 750> 139 86<36.5 787.5> 269 86<66.5 757.5> 711.008 20G<326.887 494.196>
LayerCount: 2
Fore
SplineSet
487 731.0078125 m 1
 750 0 l 1
 603.5 0 l 1
 411.393554688 569.313476562 l 1
 220.5 0 l 1
 74 0 l 1
 334 731.0078125 l 1
 487 731.0078125 l 1
757.5 269 m 1
 66.5 269 l 1
 66.5 355 l 1
 757.5 355 l 1
 757.5 269 l 1
787.5 139 m 1
 36.5 139 l 1
 36.5 225 l 1
 787.5 225 l 1
 787.5 139 l 1
EndSplineSet
EndChar

StartChar: hookabovecomb
Encoding: 777 777 234
Width: 0
Flags: W
HStem: 468 104.949<46.9311 140.636> 511.358 21G<154.127 187.315> 654.629 84.3637<16.8529 146.858>
VStem: 45.1816 96.9561<468 512.153> 153.854 107.774<578.845 645.74>
LayerCount: 2
Fore
SplineSet
140.645507812 512.153320312 m 1x78
 142.137695312 468 l 1
 45.181640625 468 l 1
 46.9150390625 577.36875 l 1
 46.9150390625 577.36875 68.9687447096 572.948828125 96.6572265623 572.948828125 c 0xb8
 135.343661587 572.948828125 153.854492188 586.161161752 153.854492188 610.795507812 c 0
 153.854492188 641.195151207 129.252264136 654.628515625 93.1533203125 654.628515625 c 0
 50.5774567774 654.628515625 22.6826171875 635.358007812 22.6826171875 635.358007812 c 1
 0 715.311523438 l 1
 0 715.311523438 38.6950018413 738.9921875 105.153320312 738.9921875 c 0
 196.857594213 738.9921875 261.62890625 702.759765625 261.62890625 614.010742188 c 0
 261.62890625 544.697582616 213.963503489 511.3578125 160.665576172 511.3578125 c 0
 147.588414737 511.3578125 140.645507812 512.153320312 140.645507812 512.153320312 c 1x78
EndSplineSet
EndChar

StartChar: uni20B1
Encoding: 8369 8369 235
Width: 844
Flags: W
HStem: 0 21G<157.5 300.5> 224 119.602<260 507.159> 339 86<36.5 234 610 807.5> 469 86<36.5 234 610 807.5> 607.399 123.608<300.5 507.501>
VStem: 36.5 264<343.602 425 469 555> 157.5 76.5<339 425 469 555> 260 40.5<224 343.602> 610 95.2773<339 425 469 555>
LayerCount: 2
Fore
SplineSet
807.5 339 m 1xb880
 610 339 l 1
 610 425 l 1
 807.5 425 l 1
 807.5 339 l 1xb880
807.5 469 m 1
 610 469 l 1
 610 555 l 1
 807.5 555 l 1
 807.5 469 l 1
234 339 m 1xba80
 36.5 339 l 1
 36.5 425 l 1xbc80
 234 425 l 1
 234 339 l 1xba80
234 469 m 1x9a80
 36.5 469 l 1
 36.5 555 l 1x9c80
 234 555 l 1
 234 469 l 1x9a80
260 224 m 1xdb80
 260 343.6015625 l 1
 398.988671875 343.711914062 l 2
 493.474325675 343.80650953 564.028710938 367.240114552 564.028710938 474.561523438 c 0
 564.028710938 582.478916849 493.474318573 607.194049249 398.988671875 607.295898438 c 2
 300.5 607.399414062 l 1
 300.5 0 l 1
 157.5 0 l 1
 157.5 731.0078125 l 1
 418.388671875 731.0078125 l 2
 569.334960938 731.0078125 705.27734375 661.165039062 705.27734375 474.561523438 c 0
 705.27734375 291.297851562 568.451171875 224 418.388671875 224 c 2
 260 224 l 1xdb80
EndSplineSet
EndChar

StartChar: uni20A9
Encoding: 8361 8361 236
Width: 1114
Flags: W
HStem: 0 21G<269.341 455.775 667.203 853.823> 259 86<56.5 257.5 856.5 1057.5> 389 86<36.5 257.5 856.5 1077.5> 711.008 20G<121.5 273.018 855.919 1007.5>
LayerCount: 2
Fore
SplineSet
1057.5 259 m 1
 856.5 259 l 1
 856.5 345 l 1
 1057.5 345 l 1
 1057.5 259 l 1
1077.5 389 m 1
 856.5 389 l 1
 856.5 475 l 1
 1077.5 475 l 1
 1077.5 389 l 1
257.5 259 m 1
 56.5 259 l 1
 56.5 345 l 1
 257.5 345 l 1
 257.5 259 l 1
257.5 389 m 1
 36.5 389 l 1
 36.5 475 l 1
 257.5 475 l 1
 257.5 389 l 1
273.5 0 m 1
 121.5 731.0078125 l 1
 269.5 731.0078125 l 1
 369.106445312 164.694335938 l 1
 491.5 671.0078125 l 1
 631 671.0078125 l 1
 758.106445312 164.694335938 l 1
 859.5 731.0078125 l 1
 1007.5 731.0078125 l 1
 849.5 0 l 1
 672 0 l 1
 561.25 461.771484375 l 1
 451 0 l 1
 273.5 0 l 1
EndSplineSet
EndChar

StartChar: franc
Encoding: 8355 8355 237
Width: 584
Flags: W
HStem: 0 21G<101.5 244.5> 115.5 98<30 384> 329.3 117.4<173.5 494> 607.758 123.25<244.5 554>
VStem: 101.5 143<0 329.3 446.7 607.758> 173.5 71<329.3 446.7>
LayerCount: 2
Fore
SplineSet
384 115.5 m 1xf0
 30 115.5 l 1
 30 213.5 l 1
 384 213.5 l 1
 384 115.5 l 1xf0
494 329.3 m 1
 173.5 329.3 l 1
 173.5 446.7 l 1xf4
 494 446.7 l 1
 494 329.3 l 1
244.5 607.7578125 m 1xf8
 244.5 0 l 1
 101.5 0 l 1
 101.5 731.0078125 l 1
 554 731.0078125 l 1
 554 607.7578125 l 1
 244.5 607.7578125 l 1xf8
EndSplineSet
EndChar

StartChar: peseta
Encoding: 8359 8359 238
Width: 844
Flags: W
HStem: 0 21G<157.5 300.5> 224 119.602<260 507.159> 429 86<30 814> 607.399 123.608<300.5 507.501>
VStem: 157.5 143<0 224 343.602 607.399> 260 40.5<224 343.602> 564.029 141.249<395.417 554.824>
LayerCount: 2
Fore
SplineSet
814 429 m 1xf2
 629 429 l 1
 585 429 l 1
 265 429 l 1
 209 429 l 1
 30 429 l 1
 30 515 l 1
 211 515 l 1
 267 515 l 1
 583 515 l 1
 627 515 l 1
 814 515 l 1
 814 429 l 1xf2
260 224 m 1xf6
 260 343.6015625 l 1xf6
 398.988671875 343.711914062 l 2
 493.47433646 343.787476124 564.028710938 367.240114552 564.028710938 474.561523438 c 0
 564.028710938 582.478916849 493.47431983 607.197067531 398.988671875 607.295898438 c 2
 300.5 607.399414062 l 1
 300.5 0 l 1
 157.5 0 l 1
 157.5 731.0078125 l 1xfa
 418.388671875 731.0078125 l 2
 569.334960938 731.0078125 705.27734375 661.165039062 705.27734375 474.561523438 c 0
 705.27734375 291.297851562 568.451171875 224 418.388671875 224 c 2
 260 224 l 1xf6
EndSplineSet
EndChar

StartChar: uni20BE
Encoding: 8382 8382 239
Width: 781
Flags: W
HStem: 0 123.25<459 744> 40.252 82.998<190.384 399.389> 719.121 20G<302.875 516.73>
VStem: 61.5 148.849<262.696 498.269> 309 86<388 812> 439 86<388 812> 616.555 133.626<410.892 508.283>
LayerCount: 2
Fore
SplineSet
525 812 m 1x3e
 525 388 l 1
 439 388 l 1
 439 812 l 1
 525 812 l 1x3e
395 812 m 1
 395 388 l 1
 309 388 l 1
 309 812 l 1
 395 812 l 1
744 0 m 1xbe
 36.5 0 l 1xbe
 36.5 123.25 l 1x7e
 744 123.25 l 1
 744 0 l 1xbe
399.388671875 40.251953125 m 1x7e
 190.384140224 40.251953125 61.5 180.170013406 61.5 394.561523438 c 0
 61.5 603.05352116 189.86048238 739.12109375 415.888671875 739.12109375 c 0
 617.57190852 739.12109375 744.819542309 613.473940289 750.181640625 410.891601562 c 1
 616.55546875 393.138671875 l 1
 611.142644881 542.798221572 558.491390857 609.409179688 422.888671875 609.409179688 c 0
 274.003231027 609.409179688 210.348632812 519.392679185 210.348632812 384.561523438 c 0
 210.348632812 227.865646427 291.58006396 123.25 459 123.25 c 1xbe
 399.388671875 40.251953125 l 1x7e
EndSplineSet
EndChar

StartChar: uni030F
Encoding: 783 783 251
Width: 0
Flags: W
HStem: 516 225.008
LayerCount: 2
Fore
SplineSet
130.4 516 m 1
 13 711.0078125 l 1
 133 741.0078125 l 1
 209.6 536 l 1
 130.4 516 l 1
320.4 516 m 1
 203 711.0078125 l 1
 323 741.0078125 l 1
 399.6 536 l 1
 320.4 516 l 1
EndSplineSet
EndChar

StartChar: uni0326
Encoding: 806 806 254
Width: 0
Flags: W
HStem: -242.5 242.949
VStem: 13 152.227<-133.16 -24.6679>
LayerCount: 2
Fore
SplineSet
13 -76.732421875 m 0
 13 -29.9748850781 42.2581504686 0.44921875 87.2255859375 0.44921875 c 0
 134.480138658 0.44921875 165.2265625 -34.1359852565 165.2265625 -96.732421875 c 0
 165.2265625 -178.361655936 78.11328125 -242.5 78.11328125 -242.5 c 1
 28.61328125 -206 l 1
 28.61328125 -206 63.1708984375 -179.53125 78.61328125 -153 c 1
 38.5321710189 -149.071167779 13 -119.907282423 13 -76.732421875 c 0
EndSplineSet
EndChar

StartChar: uni031B
Encoding: 795 795 258
Width: 0
Flags: W
HStem: 497.848 233.16
VStem: 58 110.76<577.782 718.715>
LayerCount: 2
Fore
SplineSet
27.919921875 731.0078125 m 1
 146.599609375 731.0078125 l 1
 146.599609375 731.0078125 168.759765625 700.408203124 168.759765625 644.200195312 c 0
 168.759765625 550.208007812 86.439453125 497.84765625 86.439453125 497.84765625 c 1
 13 546.568359375 l 1
 13 546.568359375 58 593.208007812 58 638.9375 c 0
 58 695.758789062 27.919921875 731.0078125 27.919921875 731.0078125 c 1
EndSplineSet
EndChar

StartChar: dcaron
Encoding: 271 271 406
Width: 763
Flags: W
HStem: -9.99805 112.899<223.228 357.212> 0 21G<412.5 545.5> 397.222 113.712<224.406 363.908> 731 20G<641.843 781.5> 731.002 20G<412.5 545.5>
VStem: 44.5713 128.849<154.36 343.23> 412.5 49.8486<75.1885 217.374 317.374 434.496> 412.5 133<217.374 751.002>
LayerCount: 2
Fore
SplineSet
647.5 751 m 25x34
 781.5 751 l 25
 686.5 553 l 25
 591.5 553 l 25
 647.5 751 l 25x34
EndSplineSet
Refer: 44 100 N 1 0 0 1 0 0 2
EndChar

StartChar: tcaron
Encoding: 357 357 407
Width: 463
Flags: W
HStem: -10 110.25<256.835 367.942> 396.4 104.611<20.5 375.5> 731 20G<351.843 491.5>
VStem: 108 133<115.793 652.311>
LayerCount: 2
Fore
SplineSet
357.5 751 m 25
 491.5 751 l 25
 396.5 553 l 25
 301.5 553 l 25
 357.5 751 l 25
EndSplineSet
Refer: 41 116 N 1 0 0 1 0 0 2
EndChar

StartChar: dcroat
Encoding: 273 273 409
Width: 622
Flags: W
HStem: -9.99805 112.899<223.228 357.212> 0 21G<412.5 545.5> 397.222 113.712<224.406 363.908> 559.75 101.5<294.5 615.5> 731.002 20G<412.5 545.5>
VStem: 44.5713 128.849<154.36 343.23> 412.5 49.8486<75.1885 217.374 317.374 434.496> 412.5 133<217.374 751.002>
LayerCount: 2
Fore
SplineSet
615.5 559.75 m 1x3c
 294.5 559.75 l 1
 294.5 661.25 l 1
 615.5 661.25 l 1
 615.5 559.75 l 1x3c
EndSplineSet
Refer: 44 100 N 1 0 0 1 0 0 2
EndChar

StartChar: Tbar
Encoding: 358 358 410
Width: 614
Flags: W
HStem: 0 21G<235.5 378.5> 253 115<111.5 502.5> 607.75 93.25<235.5 378.5> 607.75 123.25<36.5 235.5 378.5 577.5>
VStem: 235.5 143<0 701>
LayerCount: 2
Fore
SplineSet
502.5 253 m 1xc8
 111.5 253 l 1
 111.5 368 l 1
 502.5 368 l 1
 502.5 253 l 1xc8
EndSplineSet
Refer: 17 84 N 1 0 0 1 0 0 2
EndChar

StartChar: tbar
Encoding: 359 359 411
Width: 412
Flags: W
HStem: -10 110.25<256.835 367.942> 213.75 101.5<39 343> 396.4 104.611<20.5 375.5>
VStem: 108 133<115.793 652.311>
LayerCount: 2
Fore
SplineSet
343 213.75 m 1
 39 213.75 l 1
 39 315.25 l 1
 343 315.25 l 1
 343 213.75 l 1
EndSplineSet
Refer: 41 116 N 1 0 0 1 0 0 2
EndChar

StartChar: Hbar
Encoding: 294 294 412
Width: 859
Flags: W
HStem: 0 21G<131.5 274.5 584.5 727.5> 298 120<203.5 640.5> 514.011 115<36.5 822.5> 711.008 20G<131.5 274.5 584.5 727.5>
VStem: 131.5 143<0 298 418 731.008> 203.5 71<298 418> 584.5 56<298 418> 584.5 143<0 298 418 731.008>
LayerCount: 2
Fore
SplineSet
822.5 514.010742188 m 1xf0
 36.5 511 l 1
 36.5 626 l 1
 822.5 629.010742188 l 1
 822.5 514.010742188 l 1xf0
EndSplineSet
Refer: 2 72 N 1 0 0 1 70 0 2
EndChar

StartChar: hbar
Encoding: 295 295 413
Width: 637
Flags: W
HStem: 0 21G<103.5 236.5 443.277 576.277> 403.034 107.899<283.224 410.39> 559.75 101.5<30 364> 731.002 20G<103.5 236.5>
VStem: 103.5 133<0 751.002> 443.277 133<0 364.662>
LayerCount: 2
Fore
SplineSet
364 559.75 m 1
 30 559.75 l 1
 30 661.25 l 1
 364 661.25 l 1
 364 559.75 l 1
EndSplineSet
Refer: 36 104 N 1 0 0 1 42 0 2
EndChar

StartChar: uogonek
Encoding: 371 371 423
Width: 595
Flags: W
HStem: -274 79<446.99 559.218> -9.92285 107.899<227.387 354.553> 0 21G<401.277 534.277> 481.011 20G<61.5 194.5 401.277 534.277>
VStem: 61.5 133<136.348 501.011> 332.5 102<-181.971 -65.0491> 401.277 133<207.449 501.011>
LayerCount: 2
Fore
SplineSet
332.5 -149 m 0x9c
 332.5 -49.5224609375 420.5 20 420.5 20 c 1
 517.5 20 l 1
 517.5 20 434.5 -48.3505859375 434.5 -127 c 0
 434.5 -175.888281251 457.875146485 -195 499 -195 c 0
 537.620117188 -195 555 -181 555 -181 c 1
 573 -251 l 1
 573 -251 540.426757812 -274 475 -274 c 0
 387.253173828 -274 332.5 -229.528320312 332.5 -149 c 0x9c
EndSplineSet
Refer: 50 117 N 1 0 0 1 0 0 3
EndChar

StartChar: Lslash
Encoding: 321 321 429
Width: 612
Flags: W
HStem: 0 123.25<248.5 588> 711.008 20G<105.5 248.5>
VStem: 105.5 143<123.25 731.008>
LayerCount: 2
Fore
SplineSet
422.7 380 m 1
 28.7 291 l 1
 21.3 402 l 1
 415.3 491 l 1
 422.7 380 l 1
EndSplineSet
Refer: 7 76 N 1 0 0 1 44 0 2
EndChar

StartChar: lslash
Encoding: 322 322 430
Width: 425
Flags: W
HStem: -10.0088 116.25<260.706 369.412> 491 20G<272.491 346.633> 731.002 20G<112 245>
VStem: 112 133<124.093 751.002>
LayerCount: 2
Fore
SplineSet
352.7 400 m 1
 28.7 311 l 1
 21.3 422 l 1
 345.3 511 l 1
 352.7 400 l 1
EndSplineSet
Refer: 35 108 N 1 0 0 1 44 0 2
EndChar

StartChar: guilsinglleft
Encoding: 8249 8249 530
Width: 340
Flags: W
VStem: 41.5 274
LayerCount: 2
Fore
SplineSet
41.5 281 m 1
 181.5 441 l 1
 315.5 441 l 1
 162.25 254 l 1
 315.5 67 l 1
 181.5 67 l 1
 41.5 227 l 1
 41.5 281 l 1
EndSplineSet
EndChar

StartChar: guilsinglright
Encoding: 8250 8250 531
Width: 340
Flags: W
VStem: 24.5 274
LayerCount: 2
Fore
SplineSet
298.5 227 m 1
 158.5 67 l 1
 24.5 67 l 1
 177.75 254 l 1
 24.5 441 l 1
 158.5 441 l 1
 298.5 281 l 1
 298.5 227 l 1
EndSplineSet
EndChar

StartChar: uni20AE
Encoding: 8366 8366 532
Width: 614
Flags: W
HStem: 0 21G<235.5 378.5> 607.75 123.25<36.5 235.5 378.5 577.5> 607.75 93.25<235.5 378.5>
VStem: 235.5 143<0 701>
LayerCount: 2
Fore
SplineSet
577.5 607.75 m 1xd0
 36.5 607.75 l 1
 36.5 731 l 1
 577.5 731 l 1
 577.5 607.75 l 1xd0
235.5 0 m 1
 235.5 701 l 1
 378.5 701 l 1xb0
 378.5 0 l 1
 235.5 0 l 1
494 255 m 1
 120 145 l 1
 120 231 l 1
 494 341 l 1
 494 255 l 1
494 385 m 1
 120 275 l 1
 120 361 l 1
 494 471 l 1
 494 385 l 1
EndSplineSet
EndChar

StartChar: estimated
Encoding: 8494 8494 533
Width: 765
Flags: W
HStem: -9.99805 106.462<306.188 607.943> 294 110<125.5 576> 362 42<576 626> 623.159 115.962<288.123 505.174>
VStem: 123.349 83.5<294 604.562> 123.5 39.8486<300.058 399.937> 576 83.5<362 404 418.734 624> 626.598 32.9023<404.004 489.145>
LayerCount: 2
Fore
SplineSet
576 624 m 1xb2
 659.5 624 l 1
 659.5 362 l 1
 576 362 l 1
 576 624 l 1xb2
123.348632812 604.561523438 m 1x98
 206.848632812 604.561523438 l 1
 206.848632812 132.561523438 l 1
 123.348632812 132.561523438 l 1
 123.348632812 604.561523438 l 1x98
35 364.561523438 m 0
 35 591.206054688 163.541887394 739.12109375 389.888671875 739.12109375 c 0
 633.541980974 739.12109375 740.108398438 587.014334807 740.108398438 395.891601562 c 0
 740.108398438 317.689453126 732 294 732 294 c 1
 125.5 294 l 1xd5
 123.5 404 l 1
 626 404 l 1
 626 404 626.597675392 409.501290275 626.597675392 418.734245862 c 0
 626.597675392 489.144808425 588.169805351 623.159179688 395 623.159179688 c 0
 233.347426002 623.159179688 163.348632812 519.630517422 163.348632812 364.561523438 c 0xb5
 163.348632812 203.795821042 244.373792953 96.4638671877 433.888671875 96.4638671877 c 0
 577.471350054 96.4638671877 653.518554688 133.595703125 653.518554688 133.595703125 c 1
 676.327148438 32.595703125 l 1
 676.327148438 32.595703125 599.82878077 -9.998046875 425.888671875 -9.998046875 c 0
 176.581210181 -9.998046875 35 137.916992188 35 364.561523438 c 0
EndSplineSet
EndChar

StartChar: Omega
Encoding: 8486 8486 534
Width: 837
Flags: W
HStem: 0 118.25<36.5 171.828 321.659 384 453 515.66 665.666 800.5> 609.409 129.712<313.659 524.119>
VStem: 61.5 138.849<249.937 489.919> 453 347.5<0 118.25> 637.429 138.849<249.937 489.919>
LayerCount: 2
Fore
SplineSet
384 0 m 1xe8
 36.5 0 l 1
 36.5 118.25 l 1
 171.828125 118.25 l 1
 171.828125 118.25 61.5 192.954413464 61.5 384.561523438 c 0
 61.5 599.104132899 196.729001545 739.12109375 418.888671875 739.12109375 c 0
 641.048342205 739.12109375 776.27734375 599.104132899 776.27734375 384.561523438 c 0xe8
 776.27734375 192.954413464 665.666015625 118.25 665.666015625 118.25 c 1
 800.5 118.25 l 1
 800.5 0 l 1
 453 0 l 1
 453 118.25 l 1xf0
 552.977245347 133.785233939 637.428710938 216.8599522 637.428710938 364.561523438 c 0
 637.428710938 511.385281567 571.977246807 609.409179688 418.888671875 609.409179688 c 0
 265.800096943 609.409179688 200.348632812 511.385281567 200.348632812 364.561523438 c 0
 200.348632812 216.8599522 284.579970107 133.785233939 384 118.25 c 1
 384 0 l 1xe8
EndSplineSet
EndChar

